<?xml version="1.0" standalone="no"?>
<!DOCTYPE svg PUBLIC "-//W3C//DTD SVG 20010904//EN"
 "http://www.w3.org/TR/2001/REC-SVG-20010904/DTD/svg10.dtd">
<svg version="1.0" xmlns="http://www.w3.org/2000/svg"
 width="256.000000pt" height="256.000000pt" viewBox="0 0 256.000000 256.000000"
 preserveAspectRatio="xMidYMid meet">
<metadata>
Created by potrace 1.11, written by Peter Selinger 2001-2013
</metadata>
<g transform="translate(0.000000,256.000000) scale(0.100000,-0.100000)"
fill="#000000" stroke="none">
<path d="M1109 2549 c-556 -80 -998 -510 -1093 -1064 -20 -116 -14 -346 12
-465 66 -303 221 -551 469 -751 137 -110 350 -208 534 -244 94 -19 340 -28
409 -15 25 5 65 11 90 15 25 3 91 21 147 40 437 145 758 504 855 955 26 121
32 350 12 465 -89 507 -461 910 -952 1034 -42 11 -93 23 -112 26 -57 10 -311
13 -371 4z"/>
</g>
</svg>
