<svg xmlns="http://www.w3.org/2000/svg" viewBox="0 0 194 68">
  <title>Audi</title>
  <path fill="none" stroke="currentColor" stroke-width="7" d="M29,0 C12.6355194,0.545785986 -0.268762799,14.1120935 0.00416811427,30.4833982 C0.277099028,46.8547029 13.6264204,59.9833287 30,59.9833287 C46.3735796,59.9833287 59.722901,46.8547029 59.9958319,30.4833982 C60.2687628,14.1120935 47.3644806,0.545785986 31,0 L29,0 Z M71,0 C54.6355194,0.545785986 41.7312372,14.1120935 42.0041681,30.4833982 C42.277099,46.8547029 55.6264204,59.9833287 72,59.9833287 C88.3735796,59.9833287 101.722901,46.8547029 101.995832,30.4833982 C102.268763,14.1120935 89.3644806,0.545785986 73,0 L71,0 Z M113,0 C96.6355194,0.545785986 83.7312372,14.1120935 84.0041681,30.4833982 C84.277099,46.8547029 97.6264204,59.9833287 114,59.9833287 C130.37358,59.9833287 143.722901,46.8547029 143.995832,30.4833982 C144.268763,14.1120935 131.364481,0.545785986 115,0 L113,0 Z M155,0 C138.635519,0.545785986 125.731237,14.1120935 126.004168,30.4833982 C126.277099,46.8547029 139.62642,59.9833287 156,59.9833287 C172.37358,59.9833287 185.722901,46.8547029 185.995832,30.4833982 C186.268763,14.1120935 173.364481,0.545785986 157,0 L155,0 Z" transform="translate(4 4)"/>
</svg>
