<svg xmlns="http://www.w3.org/2000/svg" viewBox="0 0 904 236"><path fill="currentColor" fill-rule="evenodd" d="M67.5,88.9 L67.5,88.6 C75.6,88.6 90.2,81.4 90.2,63.5 C90.2,51.9 84.5,44.9 78.6,41.1 C71.4,36.5 63.2,35.9 47.4,35.9 L0,35.9 L0,52 L11.9,52 L11.9,130.8 L1,130.8 L1,147 L55.1,147 C85.8,147 96.9,130.9 96.9,116.3 C96.9,98.3 82.9,88.9 67.5,88.9 Z M35.1,52 L50.9,52 C61.9,52 67.9,56.6 67.9,66 C67.9,76 60.1,81.3 50.6,81.3 L35.1,81.3 L35.1,52 Z M52.4,130.9 L35.1,130.9 L35.1,99.4 L53.3,99.4 C65.1,99.4 71.7,106.1 71.7,114.7 C71.8,123.5 65.9,130.9 52.4,130.9 Z M201,35.8 L200,67.3 L219.1,67.3 L220.1,52 L240.1,52 L240.1,130.8 L230.1,130.8 L230.1,147 L273.3,147 L273.3,130.8 L263.3,130.8 L263.3,52 L283.3,52 L284.3,67.3 L303.4,67.3 L302.4,35.8 L201,35.8 Z M820,98.8 C819.8,102.5 821.6,106.8 820,113 C816,128.5 806.9,139.2 797.8,148 L797.8,70.8 C797.8,65.5 792.5,61.1 784.2,61.1 C780.7,61.1 777.6,62.6 777.6,64.8 C777.6,66.3 778.6,67.7 778.6,71.8 L778.6,107.3 C775.6,122.7 768,137 757.9,137 C750.6,137 746.3,130.6 746.3,118.7 C746.3,100.2 749.1,90.5 753.6,74.2 C754.6,70.9 761.9,62.1 749.6,62.1 C741.3,62.1 738.8,63.8 737.7,66 C730,72.8 719.9,79.9 709.4,83.7 C707.7,76.5 704.7,71.1 700.8,67.3 C699,65.2 696.5,63.4 692.9,61.9 C688.9,60.2 684.8,59.9 680.8,60.5 C678.4,60.8 676.1,61.5 674,62.5 C661.2,68.3 653.8,83.7 669.2,92.3 C676.5,96.4 684,97.9 691.5,97.7 C691.5,97.8 691.5,97.9 691.5,98 C691.5,102.2 691.2,107.5 690.2,112.5 C690.2,112.5 688.2,133.7 672,133.9 C659.9,134 654.1,123.1 654.1,108.6 L654.1,32.3 C654.1,27 648.8,22.6 640.5,22.6 C637,22.6 632.4,23.5 632.4,25 C632.4,26.5 634.9,27 634.9,33.4 L634.9,110.1 C634.5,110.9 634.1,111.9 633.9,113.1 C631.6,122.8 627.1,136.9 617,136.9 C610.4,136.9 610.4,128.8 610.4,126.8 L610.4,70.8 C610.4,65.5 605.1,61.1 596.8,61.1 C593.3,61.1 588.7,62 588.7,63.5 C588.7,65 591.2,65.5 591.2,71.9 L591.2,107.4 C588.2,122.8 580.6,137.1 570.5,137.1 C563.2,137.1 558.9,130.7 558.9,118.8 C558.9,100.3 559.3,90.6 563.9,74.3 C564.9,71 572.2,62.2 559.9,62.2 C546.5,62.2 548.3,66.6 546.5,70.3 C546.5,70.3 539.2,93.1 539.8,119.9 C540.2,139.1 549.7,151.6 566.6,151.6 C577.7,151.6 585.8,145 591.9,135.7 C593.7,144.5 601.2,151.3 612.6,151.3 C626.3,151.3 635.2,143.5 641.1,134 C646.9,142.8 656.9,148.1 670.7,148.3 C700.7,148.7 707.1,121.2 707.1,121.2 C709.6,113.5 710.9,104.7 710.9,96.1 C710.9,95.2 710.9,94.2 710.8,93.3 C718.7,90.1 726.3,85.5 733.3,80.4 C730.7,90.2 727.3,105.5 727.3,119.7 C727.3,138.9 737.1,151.4 754.1,151.4 C765,151.4 772.8,145 778.9,136.2 L778.9,164.2 C762.2,177 747.6,188.2 747.6,210.4 C747.6,224.5 757.7,235.7 771.8,235.7 C784.7,235.7 798.1,227.6 798.1,204.4 L798.1,166.3 C811.7,155.9 826.9,142.9 835,117.4 C837.8,108.4 837.6,102.8 836.3,100.5 C833.3,96.2 820.4,93.4 820,98.8 Z M676.4,70.5 C680.8,71.3 683.8,74.2 686.7,77.4 C688.2,79.4 689.6,82.5 690.4,86.8 C681.1,86.6 662.6,79.1 676.4,70.5 Z M771.5,222.1 C767.5,222.1 764.9,216.8 764.9,210 C764.9,196.8 770.5,188.4 778.5,181.1 L778.5,204.7 C778.6,208.9 779.6,222.1 771.5,222.1 Z M886.3,35.8 L826.9,35.8 L809.4,49.6 L856.6,91.5 L903.8,49.6 L886.3,35.8 Z M538.6,162.9 C521.4,146.8 515.4,121.4 490.4,108.9 C508.5,106.6 530,89.8 530,59.8 C530,45.2 522.7,32.4 509.9,22.1 C471.2,-11.6 397.8,-6.5 390.5,35.8 C390.1,38.3 390.4,44.4 390.5,46.7 L390.5,52 L390.5,52 L390.5,82.8 L344.7,82.8 L344.7,52 L354.7,52 L354.7,35.8 L311.5,35.8 L311.5,52 L321.5,52 L321.5,130.8 L311.5,130.8 L311.5,147 L354.7,147 L354.7,130.8 L344.7,130.8 L344.7,100 L390.5,100 L390.5,130.8 L380.5,130.8 L380.5,147 L423.7,147 L423.7,130.8 L413.7,130.8 L413.7,52 L413.7,52 L413.7,47.8 C416.9,6.5 458.9,14.1 481.6,24.8 C486.5,27.3 491,30.3 495,33.6 C495.2,33.8 495.4,34 495.7,34.2 C504.8,42 510.6,51.5 510.6,60.3 C510.6,97.5 475.1,94.7 467.2,100.8 L467.2,43.6 C467.2,38.3 461.4,33.9 453.1,33.9 C449.6,33.9 446.5,35.4 446.5,37.6 C446.5,39.1 447.5,40.5 447.5,44.6 L447.5,145 C447.5,148.3 454.3,151.4 460.1,151.4 C463.9,151.4 467.2,150.1 467.2,146.3 L467.2,115.7 C501.5,123.8 498.2,151.7 522.9,176.1 C523.9,177 524.9,177.4 526.2,177.4 C535.3,177.4 543.4,170.1 543.4,165.9 C543.4,164.2 539.9,164.2 538.6,162.9 Z M170.3,35.8 L146.2,35.8 L109.4,130.8 L102.2,130.8 L102.3,147 L140,147 L140.4,130.8 L130.4,130.8 L137.9,109.5 L173.5,109.5 L180.2,130.8 L172,130.8 L172.1,147 L213.2,147 L213.2,130.8 L204.8,130.8 L170.3,35.8 Z M144,92.4 L152.1,69.2 C153.9,64.1 155.4,58.9 156.6,53.1 L156.9,53.1 C157.6,59 158.9,64.3 160.6,69.2 L168.1,92.4 L144,92.4 Z"></path></svg>