<svg xmlns="http://www.w3.org/2000/svg" viewBox="0 0 400 185"><path fill="currentColor" fill-rule="evenodd" d="M54.2 183.5c-21.1-4.6-40.4-23.2-45.7-44.1C7 133.4 0 57.6 0 47.3c0-3.9.6-6.6 2.1-9 6.1-9.8 20.9-8.8 26.4 1.8.8 1.4 2 9.4 2.6 17.6l1.3 15.1 6.1-3.4c13-7.1 30.1-9.2 44.9-5.4 11.2 2.8 18.9 7.3 28.1 16.2 4.4 4.3 8.1 7.4 8.3 6.8 1.1-3.3 9.1-13.6 14.1-18.2 11.4-10.6 25.4-15.9 41.9-15.9 17.8.1 30.7 5.5 43.3 18.1l7.5 7.5 3.4-5.8c1.9-3.2 6.6-8.9 10.5-12.5 24-22.9 61.7-22.5 85.6.8l5.9 5.8-.6-11.2c-.8-12.8.2-18.8 4.7-28.1C344.4 10.3 361.2 0 380.7 0c9.4 0 12.6 1.2 16.7 6 2.2 2.6 2.6 4.1 2.6 9.1 0 5.5-.3 6.3-3.8 10.1-3.8 4-4.1 4.1-12.3 4.8-9.1.7-12.9 2.2-17.3 6.9-3.1 3.2-5.6 10.8-4.8 14.8l.5 2.5 9.6-.8c5.3-.4 11.3-.7 13.4-.6 4.7.1 10.3 3.4 12.2 7.2 2.1 4.1 1.9 11.8-.5 15.7-3.2 5.4-6.1 6.5-19 7.8-6.6.6-12.3 1.4-12.6 1.8-.4.4.4 14.6 1.9 31.5l2.7 30.7-2.3 4.4c-3.8 7.4-12.5 10.2-20.3 6.5-6.6-3.2-7.6-5.8-9.5-25.8-1-10-1.8-18.2-1.8-18.3-.1 0-1.6.3-3.3.8-2.8.8-68.7 6.9-74.3 6.9-3 0 5 7.6 11 10.5 8 3.9 14.5 4.2 24.4 1 9.1-2.9 12.4-2.8 17.9.5 5.8 3.6 7.9 12.6 4.6 19.6-5.2 11-34.8 16-54.1 9.2-9-3.2-19.9-10.4-25.8-17.1-2.5-2.9-6.3-8.7-8.3-13-3.7-7.7-3.7-7.7-7.2-7.3-1.9.2-18.5 1.7-36.7 3.3-18.3 1.5-33.3 3.2-33.3 3.7s1.6 2.3 3.5 4.1c8.2 7.8 20.2 10.3 31.2 6.6 3.4-1.2 8.2-2.1 10.5-2.1 11.1 0 18 11.4 13.2 21.6-2.2 4.6-5.5 6.8-15 10-6.5 2.2-9.8 2.7-18.4 2.7-17.8.1-31.1-5.4-44.1-18.3l-7.7-7.5-2.8 5c-4.5 8.2-16.7 19.6-25.4 23.9-12.9 6.3-27.9 8.1-41.8 5.1zm27.6-32.7c18.5-8.8 23-33.6 8.6-48.3-15.5-16-40.6-11.9-50.5 8.3-3.5 7.1-3.4 18.8.4 25.9 4.8 9.3 11.3 14.4 21.2 16.9 6.7 1.7 12.7.9 20.3-2.8zm100.7-52.7l19-1.6-4.3-4.1c-11.2-11-27.2-12.3-39.9-3.2-3.9 2.8-9.3 9.3-9.3 11.2 0 .4 3.5.4 7.8.1 4.2-.4 16.3-1.5 26.7-2.4zm99-8.6c9.9-.8 20-1.8 22.4-2.1l4.3-.6-3.3-3.5c-5.2-5.4-14.1-9.3-21.4-9.3-7.6 0-11.8 1.2-17.7 4.9C261.5 81.7 255 89 255 91.2c0 .5 1.9.7 4.3.4 2.3-.4 12.3-1.3 22.2-2.1z" /></svg>