<svg xmlns="http://www.w3.org/2000/svg" viewBox="0 0 138 47">
  <path fill="currentColor" fill-rule="evenodd" d="M37 19.7c1-.6 1.3-1.3 1.3-2.8V6.6c0-1.5-.2-2.2-1.3-2.8h7.6c3.3 0 5.7 1.1 5.7 4 0 2.2-2 3.5-4.2 3.6 2.4.1 5.1 1.3 5.1 4 0 3.1-2.5 4.2-6.2 4.2h-8zm6.5-8.4c2.1 0 3.5-1.2 3.5-3.4s-1.4-3.4-3.5-3.4h-1.9v6.9h1.9zm.3 7.8c2.5 0 3.9-1.2 3.9-3.6 0-2.4-1.4-3.6-3.9-3.6h-2.2v7.2h2.2zM52.4 14.1c0-3.4 2.6-5.8 5.9-5.8 3.3 0 6 2.4 6 5.8s-2.6 5.8-6 5.8c-3.2 0-5.9-2.4-5.9-5.8zm8.5 0c0-3.3-.8-5.4-2.5-5.4s-2.4 2-2.4 5.4c0 3.3.8 5.4 2.4 5.4 1.7 0 2.5-2.1 2.5-5.4zM72.7 12.4l-3.4 7.4-4-8.9c-.6-1.4-1.1-1.8-1.9-2.4h5.4c-.5.3-.6.5-.6 1 0 .4.2.9.3 1.3l2.1 4.8 1.8-4-.3-.6c-.7-1.4-.9-1.8-1.7-2.4h5.2c-.5.3-.7.6-.7 1 0 .3.2.8.3 1.3l1.8 4.7 1.9-4.6c.1-.3.2-.7.2-1 0-.7-.3-1.2-1.1-1.5h3.6c-.8.6-1.4 1-2 2.4l-3.8 8.9-3.1-7.4zM91.2 13.6h-7.5c0 2.9 1.5 4.7 3.8 4.7 1.8 0 5.2-1.2 5.2-4.7l.3.4c-.5 4.2-3.8 5.9-6.9 5.9-3.1 0-5.7-2.1-5.7-5.8 0-3.5 2.6-5.8 5.7-5.8 3.5 0 5.1 2.3 5.1 5.3zm-3.2-.5c0-2.4-.3-4.4-1.9-4.4-1.3 0-2.2 1.7-2.3 4.4H88z"/>
  <path fill="currentColor" fill-rule="evenodd" d="M95.9 14.1v3.1c0 1.5.6 1.9 1.8 2.4h-6.2c1-.6 1.1-.9 1.1-2.4V11c0-1.4-.2-1.9-1.3-2.5h4.5v3.7M52 37.4c0-3.4 2.6-5.8 5.9-5.8 3.3 0 6 2.4 6 5.8s-2.6 5.8-6 5.8c-3.2-.1-5.9-2.4-5.9-5.8zm8.4 0c0-3.3-.8-5.4-2.5-5.4s-2.4 2-2.4 5.4c0 3.3.8 5.4 2.4 5.4 1.7-.1 2.5-2.1 2.5-5.4zM70.1 42.9h-5.7c1-.6 1.2-.9 1.2-2.4V29.4c0-1.4-.3-1.9-1.4-2.4v-.1s1.5-.3 2.5-.8c1.3-.7 2-1.4 2-1.4v18.1l1.4.1M76.1 42.9c-1-.6-1.2-.9-1.2-2.4V24.6s-.7.7-2 1.4c-1.1.6-2.5.8-2.5.8v.1c1.1.5 1.4 1 1.4 2.4V41c0 .9-.1 1-.3 1.3-.2.3-.4.2-.8.4l5.4.2zM87.2 36.9h-7.5c0 2.9 1.5 4.7 3.8 4.7 1.5 0 4.7-.9 4.8-4.3h.2c0 4.4-4 5.8-6.3 5.8-3.1 0-5.7-2.1-5.7-5.8 0-3.5 2.6-5.8 5.7-5.8 3.4.1 5 2.3 5 5.4zm-3.2-.5c0-2.4-.3-4.4-1.9-4.4-1.3 0-2.2 1.7-2.3 4.4H84z"/>
  <path fill="currentColor" fill-rule="evenodd" d="M91.7 36.8c0 3.1 1.5 4.8 3.6 4.8 1.5 0 5.4-1.7 5.4-5.6l.1.5c-.3 5.4-4.5 6.7-7 6.7-2.9 0-5.6-2-5.6-5.6 0-3.8 2.8-6 6.2-6 2.4 0 4.2 1.2 4.2 2.8 0 .2 0 1.3-1 1.3-.7 0-1.2-.3-1.2-.7 0-.4.1-.5.1-1.2-.1-1-.7-1.7-2-1.7-1.8-.1-2.8 2-2.8 4.7z"/>
  <path fill="currentColor" fill-rule="evenodd" d="M107.7 39.1c-.2 2.2-1.2 4.1-3.7 4.1-2 0-3.3-1.2-3.3-3.6v-7.1h-1.4v-.2c2.1-.5 3.8-2 4.4-4.3h.2v3.9h6.1l-.1.6h-6v7.2c0 1.3.5 2 1.4 2 1.1 0 1.8-.9 2.1-2.5l.3-.1z"/>
  <path fill="currentColor" fill-rule="evenodd" d="M112.6 40.5c0 1.5.1 1.9 1.2 2.4h-5.5c1-.6 1.1-.9 1.1-2.4v-6.2c0-1.4-.2-1.9-1.3-1.9v-.6c3.4 0 4.2-.2 4.3-.2h.1v8.9zm-1.7-14.2c1.1 0 1.9.8 1.9 1.9 0 1.1-.8 1.9-1.9 1.9-1.1 0-1.9-.8-1.9-1.9 0-1.1.8-1.9 1.9-1.9zM123.6 34.4c.2-.4.3-.8.3-1.2 0-.6-.3-1.1-1-1.4h3.2c-.8.6-1.1 1-1.8 2.5l-4.3 8.8-4.5-8.9c-.7-1.4-1-1.8-1.7-2.4h5.4c-.5.3-.7.6-.7 1s.2.9.4 1.3l2.4 5.1 2.3-4.8zM95.8 12.2c.6-2.3 1.7-4.4 3.8-4.4 1.4 0 2.4 1 2.4 2.4 0 1.7-1.1 2.5-2.1 2.5-.4 0-.7-.1-.8-.3.4-.2.9-.7.9-1.3 0-.8-.4-1.3-1.3-1.3-1.3 0-2.7 1.5-2.7 3.8M71.6 41.1c0 .9-.6 1.6-1.4 1.6s-1.4-.7-1.4-1.6v1.8h2.8v-1.8z"/>
  <path fill="currentColor" fill-rule="evenodd" d="M31 31.8c-.6 0-1.2-.1-1.8-.3 0 6.5-5.3 11.7-11.8 11.7-6.5 0-11.8-5.3-11.8-11.8s5.3-11.8 11.8-11.8c3.8 0 7.4 1.9 9.6 5 .4-.5.8-.9 1.3-1.3.6-.4 1.2-.7 1.8-.8-1.8-2.6-4.3-4.5-7.1-5.6 1.9-1.8 3-4.3 3-7.1C26 4.4 21.6 0 16.2 0S6.4 4.4 6.4 9.8c0 .8.1 1.6.3 2.4h.1c1.1-.8 2.2-1.4 3.4-1.9v-.5c0-3.3 2.7-6 6-6s6 2.7 6 6c0 3.1-2.3 5.7-5.3 6H15.8c-.6.1-1.3.2-1.9.3V9.9c-1.3 0-2.6.2-3.8.5v7.2c-5 2.6-8.4 7.8-8.4 13.8C1.9 40 8.8 47 17.4 47S33 40 33 31.5c-.6.2-1.3.3-2 .3"/>
  <path fill="currentColor" fill-rule="evenodd" d="M50.7 32.1c-1.1-2.8-2.9-4.7-5.2-4.7-3.1 0-4.9 3.1-4.9 7.1 0 4.4 2.5 6.9 5.5 6.9 2.2 0 3.8-.8 4.9-3.1h.1c-.7 3-3 4.8-6.5 4.8-4.4 0-7.8-3.2-7.8-8s3.8-8.3 8.3-8.3c2 0 3.1.7 3.8.7.7 0 1.1-.3 1.5-.7l.3 5.3zM136 36.9h-7.5c0 2.9 1.5 4.7 3.8 4.7 1.5 0 2.8-.7 3.5-2.3l.1.1c-.6 2.4-2.5 3.8-5 3.8-3.1 0-5.7-2.1-5.7-5.8 0-3.5 2.6-5.8 5.7-5.8 3.5 0 5.1 2.3 5.1 5.3zm-3.2-.5c0-2.4-.3-4.4-1.9-4.4-1.3 0-2.2 1.7-2.3 4.4h4.2z"/>
</svg>