<svg xmlns="http://www.w3.org/2000/svg" viewBox="0 0 450 276"><path fill="currentColor" fill-rule="evenodd" d="M317.815,18.027 C317.815,16.99 317.8,15.937 317.63,14.918 C316.064,5.547 307.822,-0.015 299.847,-3.02625047e-05 C252.89,0.089 205.932,0.044 158.975,0.043 L17.862,0.043 C7.769,0.043 0.006,7.807 0.006,17.897 L0.008,254.404 C0.008,255.683 -0.01,256.964 0.009,258.243 C0.141,267.732 7.997,275.5024 17.492,275.5024 C111.727,275.5024 205.963,275.5024 300.197,275.497 C301.035,275.497 301.881,275.475 302.708,275.355 C311.359,274.108 317.875,266.436 317.866009,257.293 C317.79,177.539 317.823,97.783 317.815,18.027 Z M307.68,270.61 C305.468,272.004 303.012,272.694 300.4,272.708 C295.041,272.738 289.68,272.726 284.321,272.726 L158.927,272.727 C112.09,272.727 65.252,272.724 18.415,272.73 C11.853,272.73 7.031,269.833 4.201,263.948 C3.38,262.238 3.257,260.192 2.832,258.296 C2.772,258.029 2.821,257.737 2.821,257.458 C2.821,177.662 2.818,97.866 2.828,18.071 C2.829,11.635 5.837,6.966 11.595,4.241 C13.378,3.396 15.504,3.259 17.485,2.852 C18.022,2.741 18.601,2.827 19.161,2.827 C112.436,2.827 205.711,2.836 298.986,2.805 C305.053,2.803 309.761,5.084 312.968,10.259 C314.296,12.402 314.968,14.778 314.995,17.317 C314.999,17.717 315.003,18.117 315.003,18.517 C315.003,98.033 314.995,177.549 315.019001,257.064 C315.019001,262.963 312.652,267.476 307.68,270.61 L307.68,270.61 Z M142.651,163.325 C196.345,156.403 239.708,183.93 261.158,216.405 L56.889,216.405 C66.912,201.769 79.274,189.9 94.169,180.665 C109.086,171.417 125.256,165.567 142.651,163.325 L142.651,163.325 Z M129.991,154.202 L68.762,16.239 L142.49,16.239 C142.823,20.185 143.153,24.042 143.474,27.9 C144.024,34.509 144.576,41.119 145.112,47.729 C145.626,54.061 146.107,60.396 146.626,66.728 C147.142,73.019 147.687,79.308 148.218,85.598 C148.641,90.614 149.037,95.633 149.49,100.646 C150.083,107.21 150.727,113.771 151.337,120.334 C151.765,124.949 152.194,129.563 152.579,134.182 C153.02,139.477 153.396,144.779 153.841,150.074 C153.923,151.047 153.548,151.342 152.642,151.367 C145.192,151.576 137.845,152.63 130.552,154.109 C130.397,154.139 130.241,154.16 129.991,154.202 Z M16.88,115.716 C16.9,87.036 16.891,58.356 16.902,29.676 C16.904,24.263 20.253,19.105 24.923,17.354 L116.902,157.723 L112.636,159.25 C104.920802,162.017235 97.4791976,165.494827 90.407,169.638 C89.627,170.094 89.126,170.041 88.403,169.507 C64.859759,152.116445 41.3020842,134.745439 17.73,117.394 C17.112,116.939 16.88,116.478 16.88,115.716 L16.88,115.716 Z M177.721,152.581 C173.891,152.036 170.032,151.688 165.988,151.232 L176.045,16.235 L249.133,16.235 L189.322,154.552 C185.35,153.869 181.55,153.126 177.721,152.581 L177.721,152.581 Z M300.43287,115.161 C300.453,116.162 300.094,116.752 299.319,117.338 C278.838,132.805 258.373,148.295 237.905,163.782 C235.132,165.881 232.355,167.975 229.593,170.088 C229.081,170.479 228.66,170.706 227.996,170.309 C220.017,165.532 211.614,161.661 202.837,158.594 C202.655,158.531 202.487,158.426 202.219,158.295 L292.408,17.236 C297.794,20.071 300.392,24.39 300.398,30.224 C300.42,55.337 300.408,80.451 300.408,105.564 C300.408,108.764 300.366,111.963 300.43287,115.161 Z M243.433,180.818 L300.408,151.649 L300.408,215.314 C300.408,216.87 300.406,216.871 298.82,216.871 C291.622,216.871 284.424,216.86 277.227,216.885031 C276.429,216.888 275.924,216.673 275.465,215.971 C266.839,202.783 256.394,191.241 244.081,181.395 C243.897,181.248 243.728,181.082 243.433,180.818 L243.433,180.818 Z M18.122,216.887 C17.212,216.891 16.874,216.677 16.8749978,215.688 C16.902,194.849 16.896,174.009 16.897,153.17 C16.897,152.932 16.918,152.694 16.943,152.165 L74.187,180.853 C73.712,181.101 73.442,181.192 73.233,181.359 C60.972,191.145 50.564,202.623 41.956,215.729 C41.415,216.553 40.853,216.9 39.841,216.894076 C32.601,216.849 25.361,216.857 18.122,216.887 L18.122,216.887 Z M37.745,244.109 C37.53,244.04 37.334,243.912 37.415,243.952 C38.639,242.887 40.213,241.994 41.106,240.65 C43.997,236.302 40.98,230.152 35.68,229.303 C34.6932673,229.146714 33.6960242,229.066146 32.697,229.062 C28.059,229.038 23.42,229.051 18.781,229.051 L17.512,229.051 L17.512,259.447 C23.551,259.447 29.509,259.662 35.443,259.377 C39.89,259.163 42.033,256.855 42.817,252.537 C43.554,248.474 41.699,245.395 37.745,244.109 L37.745,244.109 Z M25.917,236.097 C25.925,235.867 26.316,235.455 26.53,235.455998 C28.16,235.461 29.805,235.428 31.415,235.643 C32.86,235.835 33.538,236.876 33.458,238.278 C33.38,239.669 32.437,240.736 31.061,240.796 C29.398,240.868 27.729,240.813 25.888,240.813 C25.887,239.117 25.86,237.606 25.917,236.097 Z M31.33,252.981 C30.542,253.057 29.739,252.995 28.943,252.995 C25.881,253.025 25.881,253.025 25.881,249.983 C25.881,247.201 25.881,247.187 28.618,247.207 C29.61,247.215 30.615,247.219 31.589,247.38 C33.145,247.637 34.133,248.872 34.056,250.276 C33.978,251.666 32.844,252.834 31.33,252.981 Z M100.067,229.143 L107.604,229.143 L107.604,259.643 C105.225,259.643 102.878,259.668 100.534,259.611 C100.245,259.604 99.877,259.208 99.696,258.903 C96.076,252.79 91.932,246.981 88.95,240.497 C88.855,240.291 88.712,240.108 88.591,239.915 C89.542,246.446 88.686,252.984 89.024,259.577 L81.562,259.577 C81.538,259.183 81.493,258.797 81.493,258.41 C81.489,249.056 81.508,239.701 81.4649437,230.347 C81.46,229.263 81.787,228.99 82.824,229.029 C84.94,229.107 87.062,229.099 89.178,229.029 C90.031,229.001 90.455,229.336 90.865,230.023 C93.863,235.072 96.897,240.1 99.924,245.132 C100.124,245.466 100.353,245.782 100.769,246.408 C100.526,240.457 100.299,234.851 100.067,229.143 L100.067,229.143 Z M172.831,229.633 C172.938,229.914 172.877,230.263 172.877,230.582 C172.879,239.779 172.879,248.976 172.876,258.172 C172.876,258.606 172.84,259.039 172.815,259.599 L163.794,259.599 C163.769,259.106 163.726,258.643 163.725,258.181 C163.719,255.102 163.694,252.023 163.739,248.945 C163.753,247.997 163.522,247.578 162.477,247.616 C160.447,247.69 158.413,247.637 156.193,247.637 L156.193,259.588 L147.066,259.588 L147.066,229.057 C149.913,229.057 152.74,229.034 155.564,229.102 C155.773,229.108 156.136,229.762 156.142,230.119 C156.189,233.077 156.168,236.037 156.168,238.996 L156.168,240.445 C158.573,240.445 160.842,240.474 163.106,240.397 C163.323,240.389 163.687,239.715 163.694,239.346 C163.743,236.428 163.721,233.509 163.721,230.59 L163.722,229.059 C166.666,229.059 169.453,229.046 172.241,229.083 C172.448,229.085 172.742,229.401 172.831,229.633 L172.831,229.633 Z M194.432,228.651 C188.24,228.21 182.203,230.785 179.795,237.642 C179.052,239.759 178.798,242.047 178.403,243.874 C178.693,245.92 178.774,247.532 179.166,249.066 C180.638,254.836 184.147,258.726 190.123,259.794 C196.101,260.861 201.352,259.403 205.035,254.206 C207.347,250.944 208.007,247.19 207.815,243.264 C207.472,236.23 203.671,229.31 194.432,228.651 L194.432,228.651 Z M197.085,250.324 C196.482,252.333 195.006,253.297 193.192,253.277 C191.206,253.255 189.942,252.132 189.368,250.377 C188.038,246.316 188.077,242.212 189.514,238.181 C190.117,236.492 191.296,235.353 193.259,235.366872 C195.226,235.381 196.438,236.547 196.945,238.246 C197.552,240.287 197.833,242.426 198.242,244.46 C197.851,246.52 197.64,248.473 197.085,250.324 L197.085,250.324 Z M141.716,258.13 C141.941,258.585 142.151,259.048 142.433,259.647 C139.157,259.647 136.048,259.673 132.941,259.609 C132.614,259.603 132.168,259.13 131.998,258.769 C130.504,255.587 129.06,252.382 127.597,249.186 C127.438,248.837 127.249,248.503 126.958,247.935 C125.781,249.596 124.686,251.052 123.711,252.585 C123.469,252.966 123.601,253.598 123.598,254.114 C123.587,255.905 123.594,257.697 123.594,259.569 L115.074,259.569 L115.074,229.138 L123.577,229.138 L123.577,241.44 L123.875,241.561 C124.118,241.244 124.381,240.939 124.604,240.608 C127.016,237.027 129.436,233.452 131.814,229.85 C132.217,229.239 132.657,229.021 133.376,229.034 C135.686,229.077 137.995,229.051 140.542,229.051 C138.1,232.595 135.83,235.931 133.504,239.226 C132.999,239.941 132.969,240.483 133.364,241.269 C136.178,246.874 138.939,252.506 141.716,258.13 L141.716,258.13 Z M271.1,249.102 C271.368,252.549 270.085,255.392 267.202,257.365 C263.673,259.779 259.681,260.356 255.516,260.012 C253.183,259.819 250.955,259.22 248.923,258.006 C246.673,256.662 245.115,254.744 244.193,252.306 C244.043,251.909 243.97,251.482 243.831,250.949 L252.022,249.46 C252.127,249.526 252.23,249.553 252.254,249.611 C253.719,253.12 256.704,253.38 259.636,252.983 C260.589,252.854 261.561,252.511 261.709,251.32 C261.867,250.057 261.106,249.325 260.032,249.025 C258.152,248.499 256.22,248.161 254.334,247.652 C253.028,247.298 251.722,246.885 250.489,246.333 C247.554,245.017 245.612,242.874 245.363,239.523 C245.09,235.839 246.391,232.827 249.485,230.755 C254.01,227.726 262.012,227.896 266.48,231.019 C268.203,232.223 269.435,233.842 270.173,235.955 L262.694,238.231 C261.598,235.82 259.625,235.041 257.188,235.193 C256.641,235.227 255.989,235.29 255.595,235.603 C255.084,236.009 254.514,236.661 254.473,237.243 C254.437,237.757 254.969,238.58 255.463,238.808 C256.531,239.302 257.733,239.516 258.886,239.824 C261.043,240.398 263.257,240.81 265.354,241.555 C268.847,242.797 270.814,245.401 271.1,249.102 L271.1,249.102 Z M286.555,252.501 L300.317,252.501 L300.317,259.582 L277.571,259.582 L277.571,229.134 L300.316,229.134 L300.316,235.823 C299.891,235.844 299.471,235.883 299.05,235.883 C295.25,235.889 291.45,235.909 287.652,235.87 C286.779,235.861 286.423,236.098 286.478,237.015 C286.547,238.164 286.495,239.321 286.495,240.661 L297.662,240.661 L297.662,247.307 L286.556,247.307 L286.555,252.501 L286.555,252.501 Z M238.314,248.649 C238.551,256.966 233.503,259.751 227.269,260.023 C224.763,260.133 222.149,259.748 219.717,259.092 C215.568,257.972 213.376,255.175 213.281,250.877 C213.126,243.765 213.225,236.648 213.222,229.532 C213.222,229.421 213.278,229.309 213.338,229.086 L222.419,229.086 C222.461,229.599 222.535,230.095 222.535,230.591 C222.544,236.307 222.541,242.024 222.541,247.739 C222.541,248.058 222.526,248.38 222.545,248.698 C222.635,250.182 222.625,251.735 224.247,252.513 C226.025,253.366 227.823,253.303 229.531,252.331 C230.981,251.505 231.145,250.049 231.146,248.568 C231.151,242.612 231.148,236.656 231.148,230.7 L231.148,229.117 L238.279,229.117 L238.279,230.541 C238.281,236.579 238.143,242.619 238.314,248.649 L238.314,248.649 Z M73.971,230.489 C73.978,236.649 73.993,242.808 73.961,248.968 C73.954,250.24 73.886,251.537 73.632,252.78 C72.961,256.072 70.758,258.095 67.71,259.138 C63.145,260.7 58.56,260.472 54.12,258.624 C51.008,257.328 49.157,254.861 49.088,251.49 C48.94,244.214 49.007,236.932 48.991,229.653 C48.991,229.502 49.058,229.349 49.11,229.128 L58.296,229.128 L58.296,230.485 C58.296,236.485 58.29,242.485 58.298,248.485 C58.304,252.236 60.616,253.922 64.206,252.81 C65.995,252.255 66.813,251.168 66.821,249.131 C66.846,242.971 66.835,236.812 66.838,230.652 L66.838,229.099 L73.868,229.099 C73.905,229.572 73.971,230.03 73.971,230.489 L73.971,230.489 Z" transform="translate(66)"></path></svg>