<svg xmlns="http://www.w3.org/2000/svg" viewBox="0 0 420.002 53.023">
  <path fill="currentColor" fill-rule="evenodd" d="M146.317 22.03h-23.493V.737h-9.156V52.29h9.156V30.994h23.493v21.293h9.156V.738h-9.156V22.03zM39.146 36.7c-2.87 4.542-7.733 7.358-13.596 7.358-9.5 0-16.394-7.38-16.394-17.546 0-10.17 6.895-17.548 16.394-17.548 5.862 0 10.726 2.816 13.596 7.358l8.654-3.196C43.494 5.163 35.34 0 25.55 0 10.984 0 0 11.398 0 26.512c0 15.112 10.984 26.51 25.55 26.51 9.79 0 17.944-5.162 22.25-13.127L39.146 36.7zM72.605.737l-17.29 51.55h9.637l3.015-8.988H89.43l3.015 8.988h9.637L84.792.738H72.604zm-1.63 33.597l7.724-23.03 7.724 23.03h-15.45zM409.704.737l-12.208 23.22L385.29.736h-10.3l17.928 34.1v17.45h9.156v-17.45l17.928-34.1h-10.298zM332.055 52.288h9.156V30.995h21.13V22.03h-21.13V9.702h24.715V.737h-33.87v51.55zM306.076 52.288h9.156V.738h-9.156v51.55zM225.597.15c-5.722 0-11.188 1.75-15.75 4.984C205.287 1.898 199.82.15 194.097.15c-14.844 0-26.922 11.826-26.922 26.363 0 14.534 12.078 26.36 26.923 26.36 5.722 0 11.188-1.75 15.75-4.983 4.56 3.234 10.025 4.984 15.75 4.984 14.843 0 26.92-11.827 26.92-26.36C252.52 11.975 240.44.148 225.6.148zm0 44.057c-4.755 0-9.248-1.8-12.65-5.068l-3.098-2.98-3.1 2.98c-3.403 3.27-7.896 5.067-12.65 5.067-9.965 0-18.072-7.937-18.072-17.694 0-9.76 8.107-17.696 18.072-17.696 4.753 0 9.245 1.8 12.65 5.07l3.1 2.978 3.097-2.977c3.404-3.27 7.896-5.07 12.65-5.07 9.965 0 18.07 7.937 18.07 17.695 0 9.757-8.105 17.694-18.07 17.694zM257.116 9.702h13.736v42.586h9.155V9.702h13.736V.737h-36.627v8.965z"></path>
</svg>