<svg viewBox="0 0 402 86" xmlns="http://www.w3.org/2000/svg">
    <g fill="none">
    <path fill="currentColor" fill-rule="evenodd" id="ring" d="M371.027 15.604c0-8.304 6.73-15.034 15.035-15.036C394.37.57 401.098 7.3 401.1 15.604c-.002 8.305-6.73 15.034-15.038 15.038-8.304-.003-15.034-6.733-15.035-15.038zm6.054 0c.01 4.96 4.023 8.974 8.982 8.98 4.96-.007 8.974-4.02 8.982-8.98-.01-4.96-4.022-8.973-8.982-8.982-4.958.01-8.97 4.023-8.98 8.982z" fill="#ffffff"></path>
    <path fill="currentColor" fill-rule="evenodd" id="type" d="M82.235 41.615c-.453-1.062-1.428-2.032-2.87-2h-.125c-1.445-.03-2.42.938-2.87 2l-18.707 40.54c-.238.475-.317.946-.32 1.314.022 1.23 1.064 2.12 2.252 2.124h.054c1.05 0 1.865-.755 2.2-1.648l5.123-11.303 1.372-2.93 10.893-23.846 10.828 23.838 1.38 2.946 5.126 11.253c.372.835 1.144 1.68 2.31 1.69 1.274 0 2.31-1.003 2.312-2.25.004-.416-.094-.877-.332-1.338l-18.627-40.39zm-43.858 33.28c-.764 0-1.327.39-1.655.72-4.046 3.845-7.98 5.835-13.732 5.85C12.977 81.46 5.235 73.218 5.22 62.51v-.123c.02-10.65 7.63-18.826 17.706-18.832 5.93.01 9.884 2.257 13.445 5.496.406.392.98.626 1.634.636 1.293-.022 2.406-1.026 2.438-2.375-.004-.86-.474-1.47-.845-1.842C35.24 41.73 30.42 39.1 22.99 39.115c-6.526-.002-12.207 2.656-16.232 6.91C2.728 50.282.343 56.13.343 62.51v.127C.34 69.11 2.73 74.93 6.743 79.13c4.014 4.203 9.663 6.78 16.12 6.778h.05c7.483 0 12.542-2.822 17.04-7.02.354-.35.74-.912.74-1.675-.037-1.273-1.046-2.283-2.316-2.317zm112.99 5.758h-23.71V41.99c-.017-1.308-1.07-2.363-2.38-2.377-1.308.015-2.36 1.07-2.375 2.378v40.79c.014 1.307 1.067 2.36 2.376 2.374l26.088.002c1.24-.012 2.24-1.01 2.25-2.25-.01-1.244-1.01-2.24-2.25-2.253zm77.834-41.04c-1.308.016-2.36 1.07-2.378 2.378h.003v41.04c.014 1.308 1.067 2.36 2.376 2.375 1.31-.015 2.36-1.068 2.377-2.376l-.002-41.04c-.014-1.307-1.065-2.36-2.374-2.377zm60.93 0c-1.308.016-2.36 1.07-2.376 2.378V66.2c-.084 10.294-5.28 15.122-13.825 15.203-8.897-.07-13.997-5.462-14.078-15.516V41.99c-.015-1.31-1.07-2.362-2.377-2.376-1.31.015-2.36 1.07-2.376 2.377V66.2c-.005 6.278 1.915 11.222 5.253 14.575 3.337 3.353 8.04 5.073 13.45 5.07h.02c5.463 0 10.168-1.737 13.484-5.147 3.32-3.41 5.206-8.444 5.2-14.874V41.99c-.014-1.31-1.068-2.362-2.376-2.376zm66.743.063h-.31c-.978-.004-1.782.554-2.254 1.273l-16.454 24.23-16.458-24.235c-.514-.686-1.258-1.277-2.246-1.27h-.314c-1.308.016-2.36 1.068-2.375 2.378V83.09c.002 1.28 1.03 2.313 2.312 2.315 1.28-.002 2.312-1.034 2.314-2.314V48.786L335.8 70.19c.434.698 1.194 1.162 1.993 1.14.8.022 1.562-.443 2-1.148l14.702-21.396V83.03c.017 1.31 1.07 2.362 2.377 2.376 1.31-.015 2.363-1.07 2.38-2.377V42.053c-.016-1.31-1.068-2.363-2.38-2.378zm-153.763-.062c-1.165.01-1.937.856-2.31 1.69L184.716 78.99l-16.018-37.605c-.356-.9-1.18-1.774-2.38-1.77-1.393.03-2.357 1.128-2.378 2.313-.01.274.017.683.208 1.025L181.96 83.7h-.002c.388 1.006 1.307 1.926 2.63 1.894h.194c1.288 0 2.18-.902 2.56-1.894l17.894-40.908c.17-.302.2-.706.188-.926-.024-1.198-.998-2.227-2.314-2.252z" fill="#ffffff"></path>
    </g>
    </svg>