<svg xmlns="http://www.w3.org/2000/svg" width="721" height="107" viewBox="0 0 721 107">
  <path fill="currentColor" fill-rule="evenodd" d="M223.8,105.2 L267.9,105.2 L267.9,90.5 L240,90.5 L240,60.4 L262.2,60.4 L262.2,45.7 L240,45.7 L240,17 L267.9,17 L267.9,2.3 L223.8,2.3 L223.8,105.2 Z M182.9,26 C182.9,18.6 185.8,15.9 191,15.9 C196.1,15.9 199.1,18.7 199.1,26 L199.1,31 L214.4,31 L214.4,27 C214.4,10.5 206.3,1.1 190.6,1.1 C174.9,1.1 166.8,10.5 166.8,27 C166.8,56.4 198.4,60.4 198.4,81.5 C198.4,88.8 195.2,91.5 190,91.5 C184.9,91.5 181.6,88.9 181.6,81.5 L181.6,73.4 L166.3,73.4 L166.3,80.5 C166.3,97 174.5,106.4 190.4,106.4 C206.3,106.4 214.5,97 214.5,80.5 C214.5,51.1 182.9,47.1 182.9,26 Z M131.9,1.1 C116,1.1 107.4,10.5 107.4,27 L107.4,80.5 C107.4,97 116.1,106.4 131.9,106.4 C147.8,106.4 156.5,97 156.5,80.5 L156.5,27 C156.5,10.5 147.8,1.1 131.9,1.1 Z M140.3,81.5 C140.3,88.8 137.1,91.6 131.9,91.6 C126.8,91.6 123.5,88.8 123.5,81.5 L123.5,26 C123.5,18.6 126.7,15.9 131.9,15.9 C137,15.9 140.3,18.7 140.3,26 L140.3,81.5 Z M24.9,1.1 C9,1.1 0.8,10.5 0.8,27 L0.8,80.5 C0.8,97 9,106.4 24.9,106.4 C40.8,106.4 49,97 49,80.5 L49,66.8 L33.7,66.8 L33.7,81.5 C33.7,88.8 30.5,91.5 25.3,91.5 C20.2,91.5 16.9,88.9 16.9,81.5 L16.9,26 C16.9,18.6 20.1,15.9 25.3,15.9 C30.4,15.9 33.7,18.7 33.7,26 L33.7,37 L49,37 L49,27 C49,10.5 40.8,1.1 24.9,1.1 Z M75.5,2.3 L59.3,2.3 L59.3,105.2 L102.1,105.2 L102.1,90.5 L75.5,90.5 L75.5,2.3 Z M689.2,25.8 C689.2,18.4 692.1,15.7 697.3,15.7 C702.4,15.7 705.4,18.5 705.4,25.8 L705.4,30.8 L720.7,30.8 L720.7,26.8 C720.7,10.4 712.6,0.9 696.9,0.9 C681.2,0.9 673.1,10.3 673.1,26.8 C673.1,56.2 704.7,60.2 704.7,81.3 C704.7,88.6 701.5,91.3 696.3,91.3 C691.2,91.3 687.9,88.7 687.9,81.3 L687.9,73.2 L672.6,73.2 L672.6,80.3 C672.6,96.8 680.8,106.2 696.7,106.2 C712.6,106.2 720.8,96.8 720.8,80.3 C720.8,51 689.2,47 689.2,25.8 Z M641.7,49.1 L629.4,2.2 L612.5,2.2 L632.9,71 L632.9,105.1 L649.1,105.1 L649.1,71 L669.6,2.2 L654.1,2.2 L641.7,49.1 Z M579.1,2.2 L562.6,105.1 L577.5,105.1 L580.3,86.4 L600.1,86.4 L602.9,105.1 L619.2,105.1 L602.7,2.2 L579.1,2.2 Z M582.3,72.4 L590.1,20.4 L597.9,72.4 L582.3,72.4 Z M484.5,63.8 L462.9,2.2 L447.6,2.2 L447.6,81.6 C447.6,88.9 444.4,91.6 439.2,91.6 C434.1,91.6 430.8,88.9 430.8,81.6 L430.8,2.2 L414.6,2.2 L414.6,80.5 C414.6,97 422.8,106.4 438.7,106.4 C454.6,106.4 462.8,97 462.8,80.5 L462.8,46.5 L484.4,105 L498.8,105 L498.8,2.2 L484.4,2.2 L484.4,63.8 L484.5,63.8 Z M535,2.2 L509.4,2.2 L509.4,105.1 L535,105.1 C551.2,105.1 559.1,96.1 559.1,79.7 L559.1,27.7 C559.1,11.1 551.1,2.2 535,2.2 Z M542.9,80.4 C542.9,87.7 539.8,90.4 534.7,90.4 L525.6,90.4 L525.6,16.9 L534.7,16.9 C539.8,16.9 542.9,19.5 542.9,26.9 L542.9,80.4 Z M373.8,25.8 C373.8,18.4 376.7,15.7 381.9,15.7 C387,15.7 390,18.5 390,25.8 L390,30.8 L405.3,30.8 L405.3,26.8 C405.3,10.4 397.2,0.9 381.5,0.9 C365.8,0.9 357.7,10.3 357.7,26.8 C357.7,56.2 389.3,60.2 389.3,81.3 C389.3,88.6 386.1,91.3 380.9,91.3 C375.8,91.3 372.5,88.7 372.5,81.3 L372.5,73.2 L357.2,73.2 L357.2,80.3 C357.2,96.8 365.4,106.2 381.3,106.2 C397.2,106.2 405.4,96.8 405.4,80.3 C405.4,51 373.8,47 373.8,25.8 Z M303.4,2.3 L277.8,2.3 L277.8,105.2 L303.4,105.2 C319.6,105.2 327.5,96.2 327.5,79.8 L327.5,27.8 C327.6,11.3 319.6,2.3 303.4,2.3 Z M311.4,80.5 C311.4,87.8 308.3,90.5 303.2,90.5 L294,90.5 L294,17 L303.1,17 C308.2,17 311.3,19.7 311.3,27 L311.3,80.5 L311.4,80.5 Z"/>
</svg>
