<svg xmlns="http://www.w3.org/2000/svg" viewBox="0 0 257.868 39.657"><g fill="currentColor" fill-rule="evenodd"><path d="M55.901 0C45.364 0 36.792 8.9 36.792 19.847c0 10.923 8.572 19.81 19.109 19.81S75.01 30.77 75.01 19.847C75.01 8.903 66.438 0 55.901 0zm0 35.742c-8.378 0-15.194-7.13-15.194-15.895 0-8.785 6.816-15.932 15.194-15.932s15.194 7.147 15.194 15.932c0 8.764-6.816 15.895-15.194 15.895z"/><path d="M55.901 9.172c-5.5 0-9.974 4.789-9.974 10.675 0 5.866 4.474 10.638 9.974 10.638s9.974-4.772 9.974-10.638c-.001-5.886-4.475-10.675-9.974-10.675zm0 17.4c-3.341 0-6.058-3.016-6.058-6.722 0-3.727 2.718-6.759 6.058-6.759s6.058 3.032 6.058 6.759c0 3.703-2.718 6.719-6.058 6.719zM101.268 26.686v12.26h12.914V.746h-10.6l-7.958 11.561L87.666.746h-10.6v38.2h12.915v-12.26l5.64 8.2zM86.117 14.23v20.845h-5.172V4.615h4.69l9.993 14.517 9.993-14.517h4.69v30.46h-5.172V14.23l-9.511 13.825zM117.675.747v38.2h12.878V.747zm9.007 34.328h-5.136V4.615h5.136zM165.842 38.946V.746h-12.877v12.1l-8.321-12.1h-10.6v38.2h12.914V26.815l8.315 12.134zm-22.753-24.631v20.76h-5.173V4.615h4.691l14.228 20.7v-20.7h5.136v30.46h-4.655zM169.336.747v38.2h12.882V.747zm9.007 34.328h-5.136V4.615h5.136zM201.642 39.383a15.953 15.953 0 0015.934-15.935V.748h-12.878v22.7a3.057 3.057 0 01-6.113.012l.047-22.713h-12.925v22.7a15.953 15.953 0 0015.935 15.936zM189.578 4.615h5.176l-.04 18.839a6.928 6.928 0 0013.856-.008V4.615h5.136v18.833a12.064 12.064 0 11-24.127 0zM244.952 26.686v12.26h12.914V.746h-10.6l-7.958 11.561-7.956-11.56h-10.6v38.2h12.915V26.686l5.64 8.2zM229.803 14.23v20.845h-5.173V4.615h4.69l9.993 14.517 9.994-14.517h4.69v30.46h-5.172V14.23l-9.511 13.825zM3.092 35.061l4.38 3.886h8.717a18.587 18.587 0 0016.089-9.538l.036-.066a20.046 20.046 0 00-.01-19.011l-.036-.065A18.569 18.569 0 0016.189.747H0v29.268h16.12a10.179 10.179 0 000-20.332H9.007v16.466H3.871V4.615h12.318a14.689 14.689 0 0112.706 7.549l.015.027a16.175 16.175 0 01.007 15.3l-.017.031a14.694 14.694 0 01-12.711 7.553H5.377l-2.284-.015m9.786-21.509h3.241a6.317 6.317 0 010 12.59h-3.242z"/></g></svg>