<svg xmlns="http://www.w3.org/2000/svg" viewBox="0 0 357 200"><path fill="currentColor" fill-rule="evenodd" d="M287.16 59.66c-38.73-.11-70.29 31.09-70.44 69.63-.16 39.63 31.08 70.65 70.82 70.33C327 199.3 357.07 169 357 129.6c-.11-39.1-30.79-69.83-69.84-69.94zm-.34 109.81c-21-.17-38.36-17.73-38.9-39v-1.45-.36a39.18 39.18 0 0139.9-38.1c21.5.58 37.63 17.16 37.95 38.8v1c-.16 21.58-17.77 39.27-38.95 39.11zM175.14 198.72h-28.43V.35h28.43zM211.3 199.65h-29.56V61h29.56zM212.94 17.06c-.17 9-8.18 16.77-17 16.6-9.06-.18-16.12-8.06-15.74-17.6A15.93 15.93 0 01196.31.35a16.3 16.3 0 0116.63 16.71zM70 172.44v26.87c-30.42 3.09-60.58-18.62-67.59-50C-3.92 121.06 1.8 95 25.69 76.05s51.25-21.56 78.38-8.27c29.64 14.53 44 51 34.78 82.57-1.58 5.36-3.24 10.92-10.76 10.86-18.65-.13-38.21-.21-58.09-.21v-30.85h37.6c1.47-20.28-10.84-34.52-30.41-38a39.72 39.72 0 00-45.33 30.18c-4.16 23.5 6.71 38.77 38.14 50.11z"/></svg>