<svg xmlns="http://www.w3.org/2000/svg" viewBox="0 523.715 841.889 143.121"><path fill="currentColor" fill-rule="evenodd" d="M0 663.469h136.386v-30.31H0v30.31zm136.386-136.388H0v30.31h136.386v-30.31zm109.445 84.19l-63.983-84.189h-28.624v53.882H25.257L0 609.588h127.967l25.257-30.31v82.506h30.308v-84.188l63.984 84.188h30.309V527.081h-30.309v84.189h-1.685zm399.056-31.992l-25.257 30.31h40.411v20.205c-8.42 5.051-16.839 8.419-28.625 8.419-25.257 1.684-42.095-16.838-42.095-42.096 0-23.572 16.838-43.777 40.411-43.777 13.47 0 21.889 3.367 31.991 10.103l10.103-13.47 8.42-10.104c-13.471-10.104-26.94-15.153-50.514-15.153-42.095 0-72.402 31.992-72.402 72.401 0 40.411 30.309 70.72 72.402 70.72 25.256 0 45.462-10.104 58.933-21.89v-65.668h-43.778zm197.002 0H713.922l-25.258 30.31h127.969l25.256-30.31zm-136.386-52.198v30.31h136.386v-30.31H705.503zm-225.626 0l-58.934 136.388h30.309l11.787-30.31h58.932l11.787 30.31h31.99l-58.932-136.388h-26.939zm-5.053 82.507l20.205-47.146 18.522 47.146h-38.727zm230.679 53.881h136.386v-30.31H705.503v30.31z"/><path fill="currentColor" fill-rule="evenodd" d="M286.33 596.116c0 40.411 30.309 70.72 72.402 70.72 25.256 0 45.462-10.104 58.932-21.89v-65.668h-43.777l-25.257 30.31h40.41v20.205c-8.419 5.051-16.838 8.419-28.624 8.419-25.257 1.684-42.095-16.838-42.095-42.096 0-23.572 16.838-43.777 40.411-43.777 13.47 0 21.889 3.367 31.991 10.103l10.103-13.47 8.419-10.104c-13.47-10.104-26.939-15.153-50.513-15.153-42.093 0-72.402 31.991-72.402 72.401z"/></svg>