<svg xmlns="http://www.w3.org/2000/svg" viewBox="0 0 300 120">
  <path fill="currentColor" fill-rule="evenodd" d="M110.12 54.75l-51.83-52a2.6 2.6 0 00-3.7 0l-51.82 52A2.63 2.63 0 002 56.61v58.76A2.62 2.62 0 004.62 118h103.65a2.62 2.62 0 002.61-2.63V56.61a2.62 2.62 0 00-.76-1.86zM68.21 95.33H48.29a7.87 7.87 0 002.39 4.46 7 7 0 004.7 1.55 10.81 10.81 0 004-.78 6.12 6.12 0 003-2.16l5 5a12.36 12.36 0 01-2 2.09 14.12 14.12 0 01-2.81 1.8 17.9 17.9 0 01-7.91 1.77 18.44 18.44 0 01-7-1.25 15.05 15.05 0 01-5.2-3.4 14.61 14.61 0 01-3.23-5 16.34 16.34 0 01-1.11-6v-1.1a21.54 21.54 0 011-6.58A14.71 14.71 0 0142 80.44a13.52 13.52 0 014.85-3.52 16.5 16.5 0 016.76-1.29 16.31 16.31 0 016.14 1.11 12.49 12.49 0 014.61 3.16 13.93 13.93 0 012.89 5 20.36 20.36 0 011 6.56zm33.25 13.16h-9.82V88.21a7.62 7.62 0 00-.31-2.39 3.48 3.48 0 00-.89-1.45 4 4 0 00-1.66-.79 8.52 8.52 0 00-1.91-.19 5.21 5.21 0 00-2.66.62 6.71 6.71 0 00-2 2v22.48h-9.73V76.23h9.72V80a10.94 10.94 0 014-3.27 12 12 0 015.22-1.12 12.65 12.65 0 014.08.64 7.75 7.75 0 013.2 2.12 10 10 0 012.07 3.88 20.86 20.86 0 01.72 5.92z"/>
  <path fill="currentColor" fill-rule="evenodd" d="M53.56 83.39a5.06 5.06 0 00-2.19.44 4.33 4.33 0 00-1.54 1.23 6.24 6.24 0 00-1 1.85 14.1 14.1 0 00-.53 2.32h10.14c0-1.61-.37-3.63-1.22-4.52a4.85 4.85 0 00-3.66-1.32z"/>
  <path fill="currentColor" fill-rule="evenodd" d="M134.01 65.08l9.66 30.21 9.63-30.21h13.74v43.42h-9.46V77.6l-10.47 30.9h-6.89l-10.5-30.92v30.92h-9.42V65.08h13.71zM170.55 92.07a20.56 20.56 0 011-6.54 15.11 15.11 0 013-5.22 13.71 13.71 0 014.86-3.44 18.7 18.7 0 0113.34 0 13.66 13.66 0 014.87 3.44 15.09 15.09 0 013 5.22 20.56 20.56 0 011 6.54v.62a20.78 20.78 0 01-1 6.55 14.71 14.71 0 01-3 5.18 13.58 13.58 0 01-4.86 3.44 18.73 18.73 0 01-13.35 0 13.66 13.66 0 01-4.88-3.44 14.77 14.77 0 01-3-5.18 20.49 20.49 0 01-1-6.55zm10 .62a22.62 22.62 0 00.25 3.4 8.26 8.26 0 00.9 2.74 4.82 4.82 0 001.71 1.84 4.9 4.9 0 002.67.67 4.54 4.54 0 004.31-2.51 8.74 8.74 0 00.9-2.74 21.34 21.34 0 00.26-3.4v-.62a21 21 0 00-.25-3.34 8.7 8.7 0 00-.89-2.76 5.1 5.1 0 00-1.71-1.88 4.79 4.79 0 00-2.68-.7 4.65 4.65 0 00-2.63.7 5 5 0 00-1.66 1.91 9.23 9.23 0 00-.89 2.76 19.82 19.82 0 00-.27 3.34z"/>
  <path fill="currentColor" fill-rule="evenodd" d="M204.74 92.12a26.61 26.61 0 01.8-6.71 15.71 15.71 0 012.38-5.21 10.81 10.81 0 013.91-3.37 11.74 11.74 0 015.43-1.2 8.93 8.93 0 014.07.9 10.12 10.12 0 013.18 2.47V65h9.38v43.5h-8.84V105a10.85 10.85 0 01-3.36 3 9 9 0 01-4.49 1.09 10.92 10.92 0 01-9.28-4.65 15.68 15.68 0 01-2.38-5.17 25.37 25.37 0 01-.8-6.52zm10 .63a22.3 22.3 0 00.24 3.38 9 9 0 00.82 2.73 4.61 4.61 0 001.54 1.82 4.18 4.18 0 002.4.66 5.47 5.47 0 002.88-.73 5.08 5.08 0 001.87-2.07V86.25a4.79 4.79 0 00-4.69-2.86 4.1 4.1 0 00-2.37.65 4.81 4.81 0 00-1.56 1.84 9.91 9.91 0 00-.86 2.77 20.89 20.89 0 00-.27 3.47z"/>
  <path fill="currentColor" fill-rule="evenodd" d="M288.28 99.43a2.19 2.19 0 00-.28-1.1 2.9 2.9 0 00-1-.91 9.17 9.17 0 00-1.94-.82c-.8-.26-1.84-.53-3.09-.81a29.08 29.08 0 01-4.41-1.32 14.49 14.49 0 01-3.6-2 9.21 9.21 0 01-2.41-2.85 7.9 7.9 0 01-.87-3.76 9 9 0 01.87-3.9 9.44 9.44 0 012.58-3.25 12.69 12.69 0 014.16-2.23 18 18 0 015.62-.81 20.41 20.41 0 015.85.77 13.88 13.88 0 014.45 2.16 9.6 9.6 0 012.8 3.31 9.14 9.14 0 011 4.25H288a3.45 3.45 0 00-4.07-3.87 4.44 4.44 0 00-1.44.22 3.79 3.79 0 00-1.18.62 2.91 2.91 0 00-.8 1 2.58 2.58 0 00-.3 1.24 2.47 2.47 0 001.27 2.15 11.63 11.63 0 004.08 1.38 37.21 37.21 0 014.63 1.1 15 15 0 014 1.88 9 9 0 012.75 2.94 8.37 8.37 0 011 4.32 8.28 8.28 0 01-1 4 9.53 9.53 0 01-2.81 3.15 14.48 14.48 0 01-4.42 2.08 20.47 20.47 0 01-5.82.76 17.78 17.78 0 01-6.14-1 14.33 14.33 0 01-4.46-2.55 10.78 10.78 0 01-2.72-3.52 9 9 0 01-.92-3.89H279a3.88 3.88 0 001.49 3.26 6.06 6.06 0 003.65 1 4.84 4.84 0 003.08-.83 2.71 2.71 0 001-2.18"/>
  <path fill="currentColor" fill-rule="evenodd" d="M266.21 76.23h-9.39v22.63a4.86 4.86 0 01-1.89 1.82 6.14 6.14 0 01-3 .66 4.1 4.1 0 01-3-1 4.31 4.31 0 01-1-3.17V76.23h-9.43v20.88a17 17 0 00.78 5.47 9.86 9.86 0 002.2 3.72 8.48 8.48 0 003.39 2.12 13.43 13.43 0 004.36.67 10.72 10.72 0 004.88-1.07 10.57 10.57 0 003.35-2.64v3.12h8.75z"/>
</svg>
