<svg xmlns="http://www.w3.org/2000/svg" viewBox="0 0 560.792 100.333"><g><path fill="currentColor" fill-rule="evenodd" d="M55.66 8.12H16.857L11.97 35.452h35.21l-.797 4.987H11.17L5.188 73.854H0L12.568 3.132h43.99L55.66 8.12M93.563 73.855h-4.39l.897-9.077c-.996 1.598-2.16 3.027-3.49 4.288-1.33 1.265-2.795 2.346-4.39 3.243-1.594.897-3.274 1.593-5.037 2.092-1.762.5-3.51.748-5.24.748-4.654 0-8.227-1.343-10.72-4.037-2.493-2.694-3.74-6.137-3.74-10.327 0-.663.03-1.31.1-1.942.065-.632.166-1.278.298-1.944l5.79-32.92h5.086L62.94 56.6c-.2 1.194-.3 2.327-.3 3.39 0 2.86.78 5.287 2.345 7.28 1.562 1.996 4.172 2.995 7.83 2.995 2.926 0 5.536-.634 7.832-1.895 2.293-1.264 4.272-2.91 5.934-4.938 1.663-2.028 3.026-4.306 4.09-6.832 1.063-2.528 1.83-5.088 2.294-7.68l4.39-24.94h4.987l-8.777 49.875M143.238 28.57h-15.463l-5.485 31.22c-.134.6-.232 1.215-.3 1.847-.067.634-.1 1.247-.1 1.844 0 2.33.648 3.975 1.946 4.94 1.297.963 3.007 1.446 5.14 1.446 1.458 0 3.072-.265 4.836-.8 1.76-.53 3.205-1.06 4.338-1.597l-.898 4.79c-1.13.6-2.56 1.13-4.288 1.595-1.73.465-3.326.7-4.79.7-3.192 0-5.884-.85-8.08-2.547s-3.292-4.27-3.292-7.728c0-1.596.132-3.025.4-4.29l5.586-31.422h-9.976l.796-4.59h9.976l2.494-13.764 5.188-1.396-2.694 15.16h15.46l-.794 4.59M186.828 73.855h-4.39l.897-9.077c-.996 1.598-2.16 3.027-3.49 4.288-1.332 1.265-2.792 2.346-4.39 3.243-1.595.897-3.275 1.593-5.037 2.092-1.762.5-3.508.748-5.236.748-4.655 0-8.23-1.343-10.724-4.037-2.492-2.694-3.74-6.137-3.74-10.327 0-.663.03-1.31.1-1.942.065-.632.166-1.278.3-1.944l5.786-32.92h5.086l-5.786 32.62c-.2 1.195-.298 2.328-.298 3.39 0 2.862.78 5.288 2.346 7.282 1.56 1.995 4.172 2.994 7.83 2.994 2.924 0 5.534-.634 7.83-1.895 2.293-1.263 4.272-2.91 5.934-4.937 1.662-2.028 3.025-4.306 4.09-6.832 1.062-2.527 1.828-5.087 2.293-7.68l4.39-24.94h4.986l-8.778 49.875M234.305 29.066c-.795-.196-1.593-.378-2.39-.547-.8-.165-1.597-.25-2.395-.25-2.86 0-5.405.613-7.63 1.844-2.23 1.23-4.158 2.845-5.786 4.84-1.63 1.992-2.943 4.238-3.942 6.732-.996 2.492-1.73 4.97-2.193 7.43l-4.59 24.738h-4.888l8.978-49.875h4.39l-1.198 9.674c1.662-3.39 4.122-5.934 7.38-7.63 3.26-1.696 6.717-2.544 10.376-2.544.795 0 1.596.068 2.394.2.798.135 1.594.267 2.394.4l-.9 4.986M281.585 43.53c0 .732-.018 1.348-.05 1.847-.034.5-.084.98-.15 1.446-.068.467-.15.948-.25 1.445-.1.5-.215 1.117-.348 1.847h-38.105c-.066.533-.1 1.032-.1 1.495v1.397c0 2.66.365 5.122 1.1 7.382.728 2.26 1.86 4.188 3.39 5.785 2.593 2.726 6.184 4.09 10.773 4.09 1.596 0 3.157-.25 4.687-.748 1.53-.5 2.96-1.2 4.29-2.095 1.33-.898 2.51-1.963 3.542-3.194 1.03-1.23 1.812-2.576 2.343-4.037h5.287c-.333 1.53-1.046 3.143-2.143 4.838-1.096 1.694-2.213 3.075-3.34 4.138-2.064 1.93-4.405 3.408-7.034 4.44-2.626 1.03-5.337 1.544-8.13 1.544-2.992 0-5.634-.513-7.93-1.543-2.293-1.033-4.272-2.41-5.934-4.14-1.93-1.998-3.376-4.305-4.34-6.934-.962-2.626-1.443-5.7-1.443-9.228 0-4.387.663-8.677 1.994-12.867 1.33-4.19 3.554-7.88 6.682-11.072 1.93-1.927 4.188-3.525 6.782-4.788 2.594-1.263 5.686-1.895 9.276-1.895 2.86 0 5.403.497 7.632 1.496 2.228.995 4.138 2.292 5.736 3.888 3.853 3.86 5.783 9.014 5.783 15.463m-4.987-.1c0-2.26-.333-4.354-.996-6.283-.666-1.926-1.614-3.606-2.843-5.038-1.232-1.428-2.762-2.56-4.59-3.393-1.83-.83-3.94-1.247-6.335-1.247-2.927 0-5.453.636-7.583 1.897-2.127 1.265-3.955 2.76-5.485 4.488-1.33 1.53-2.444 3.308-3.342 5.337-.896 2.03-1.58 4.14-2.045 6.333h33.117c.066-.33.1-.682.1-1.046v-1.05zM294.56 3.132h30.815v1.92h-5.556V36.98l.805-.204 28.49-31.724h-7.982v-1.92h17.68v1.92h-6.06L335.377 24.45l24.245 47.486h5.456v1.92h-32.43v-1.92h4.75l-16.672-32.228-.907.2v32.028h5.555v1.92H294.56v-1.92h5.555V5.052h-5.556v-1.92M369.38 23.845h24.752v48.12h5.658v1.89h-30.006v-1.89h5.556v-46.23h-5.96v-1.89m15.254-5.052c-3.57 0-6.11-.91-7.625-2.73-1.518-1.816-2.274-4.073-2.274-6.768 0-2.692.823-4.917 2.474-6.668S381.368 0 384.735 0c3.37 0 5.928.795 7.678 2.375 1.754 1.582 2.63 3.84 2.63 6.768 0 2.93-.842 5.273-2.527 7.024-1.685 1.75-4.31 2.626-7.882 2.626zM404.267 23.845h24.348v9.666c1.076-3.22 2.73-5.812 4.95-7.775 2.224-1.96 5.59-2.938 10.104-2.938 10.436 0 15.658 5.847 15.658 17.542v31.625h5.658v1.89h-28.592v-1.89h4.143V37.82c0-4.204-.27-6.918-.81-8.145-.54-1.222-1.516-1.837-2.93-1.837-2.156 0-4.06 1.47-5.708 4.414-1.654 2.943-2.477 6.513-2.477 10.714v29h4.343v1.89h-28.69v-1.89h5.556v-46.23h-5.556v-1.89M507.52 18.595s2.525-.03 2.83-1.785c.304-1.758-.405-3.258-2.428-3.258-2.895 0-4.343 2.312-4.343 6.933 0 1.824.234 3.923.706 6.306 5.118 3.573 7.68 8.142 7.68 13.71 0 5.568-1.853 9.895-5.558 12.975-3.704 3.084-8.722 4.625-15.055 4.625-2.626 0-5.355-.278-8.182-.84-2.965 1.962-4.447 3.432-4.447 4.41 0 .982 2.157 1.47 6.468 1.47h10.306c15.29 0 22.936 5.71 22.936 17.128 0 6.162-2.307 11.047-6.92 14.656-4.615 3.606-11.806 5.41-21.57 5.41-16.64 0-24.955-3.748-24.955-11.242 0-4.064 2.59-6.866 7.778-8.405l6.062 2.836c-.54 2.034-.807 3.958-.807 5.78 0 6.022 4.31 9.033 12.93 9.033 5.256 0 9.295-1.014 12.127-3.045 2.826-2.03 4.24-4.552 4.24-7.563 0-3.014-.857-5.026-2.574-6.044-1.72-1.014-5.14-1.52-10.257-1.52h-9.8c-5.453 0-9.36-.95-11.718-2.84-2.36-1.89-3.538-4.217-3.538-6.986 0-2.765.844-5.077 2.528-6.933 1.683-1.855 4.678-4.15 8.99-6.882-7.814-2.312-11.72-7.633-11.72-15.97 0-5.252 1.817-9.49 5.456-12.71 3.636-3.222 9.094-4.834 16.368-4.834 4.377 0 8.115.875 11.214 2.626-.403-1.893-.606-3.606-.606-5.15 0-3.92 1.01-6.757 3.032-8.508 2.02-1.75 4.274-2.626 6.766-2.626s4.498.682 6.012 2.05c1.516 1.363 2.275 3.237 2.275 5.62 0 2.38-.606 4.148-1.82 5.304-1.212 1.156-2.676 1.735-4.395 1.735-1.717 0-3.132-.475-4.242-1.418-1.112-.95-1.703-2.293-1.77-4.047m-21.416 19.647v5.674c0 4.692.387 7.878 1.162 9.56.772 1.68 1.954 2.52 3.536 2.52 1.58 0 2.73-.82 3.433-2.466.71-1.646 1.062-5.024 1.062-10.138v-5.15c0-5.464-.337-9.05-1.01-10.767-.675-1.716-1.804-2.576-3.386-2.576-1.585 0-2.78.893-3.587 2.68-.806 1.785-1.21 5.34-1.21 10.662zM522.3 74.906V56.098h1.21c1.754 6.097 4.11 10.368 7.075 12.82 2.963 2.452 6.668 3.676 11.11 3.676 6.87 0 10.307-2.274 10.307-6.83 0-1.958-.84-3.43-2.525-4.41-2.626-1.542-5.996-2.734-10.102-3.573-4.582-1.26-8.424-2.94-11.52-5.044-3.704-2.52-5.555-6.513-5.555-11.977 0-5.463 1.613-9.822 4.85-13.08 3.23-3.258 7.54-4.883 12.93-4.883 3.3 0 7.112 1.078 10.206 2.414 2.015.872 2.254.84 2.93.84.672 0 1.244-.244 1.716-.734.47-.49 1.044-1.4 1.717-2.73h1.11v16.073h-1.21C553.114 29.553 547.793 25 540.587 25c-3.167 0-5.523.58-7.072 1.736-1.55 1.156-2.325 2.608-2.325 4.36 0 1.047.27 1.848.708 2.468.445.63.832 1.044 1.11 1.313.317.305.71.58 1.313.894.607.315 1.113.562 1.52.737.403.176 1.025.404 1.866.682.844.28 1.466.455 1.87.523 4.58 1.192 7.88 2.225 9.9 3.1 2.02.878 3.94 1.945 5.76 3.204 3.703 2.665 5.555 6.953 5.555 12.87s-1.685 10.403-5.05 13.45c-3.368 3.045-7.98 4.57-13.842 4.57-4.176 0-8.218-1.018-12.123-3.047-.807-.56-1.447-.843-1.92-.843-1.48 0-2.93 1.297-4.345 3.89h-1.21" /></g></svg>