<svg xmlns="http://www.w3.org/2000/svg" viewBox="0 0 641 114"><title>Future Kings</title><g fill="#currentColor" fill-rule="evenodd"><path d="M627.8 47.1l-7.4-3.2c-6.8-3-10.7-5.5-10.7-10.5 0-5.5 4.3-8.1 9.4-8.1h1.6c1.6 0 2 .6 2.7 1.7l9 16.1h.2l6.5-16.8c-6.6-2-13.5-3.1-20.4-3.1-14.7 0-23.7 7.3-23.7 18.3 0 8.2 4.9 13.5 11.2 16.5l7.9 3.7c7.5 3.5 11.1 5.4 11.1 10.2 0 5-4.2 8.5-10.9 8.5h-2.7c-1 .1-2-.5-2.4-1.5l-9.3-18h-.2l-6.4 18c6.9 2.3 14.1 3.5 21.3 3.6 15.4 0 26-6.7 26-19.2.1-9.1-5.6-13.1-12.8-16.2zM441.4 17.6c5.2 0 9.4-3.4 9.4-8.6 0-5.6-4.2-9-9.4-9-5 0-9.3 3.5-9.3 9.1 0 5.2 4.3 8.5 9.3 8.5zM127.2 72.5V23.9h-19v43.7c-2.1 3-4.9 5.1-8.6 5.1-7.2 0-8.9-7-8.9-17.5V23.9h-19v34c0 16 6.5 24.5 18.1 24.5 9.4 0 15.5-4.4 18.4-12.5v11.6h25.7v-.7l-5.7-5.3c-.8-.8-1.2-1.9-1-3zM379.9 41.6l34-41.6H408l-36.1 44.2V0H351v71.2c.2 1-.2 2.1-1 2.8l-7.8 6.8v.7H372V51.3l7.8-9.5 24 39.7H428l-24.6-39.9h-23.5zM567.9 73.9H555c-7 0-11.6-4.1-12.5-9.5l.7.2 2.3.7c3.6.8 7.2 1.1 10.9 1.1 25.3 0 29.1-12.9 29.1-20.6.2-5.5-2.3-10.8-6.7-14.2l-2.1-1.6h14.7V14.6l-13 11.2c-1.5 1.6-2.3 1.8-4 .9C570 24.3 563.3 23 556 23c-18.2 0-28.7 8-28.7 22 0 9 4.2 15.2 12.6 18.6.2.1.3.3.2.5 0 .1-.1.1-.1.2l-12.8 11c.1 8.4 6.1 15.5 14.4 17.1 1.7.4 3.5.6 5.3.7l18.6.6c9.9.4 14.1 3.4 14.1 9.9 0 3.4-1.4 6.6-3.9 8.8l1 1.3c9.5-4.9 14.9-12.9 14.9-22.2 0-11.8-8-17.6-23.7-17.6zm-11.5-47c4.9 0 9.8 2.9 9.8 17.8 0 14.7-4.1 17.9-9.8 17.9-4.8 0-9.8-3.3-9.8-18.1.1-10.4 3.7-17.6 9.8-17.6zM233 72.5V23.9h-19v43.7c-2.1 3-4.9 5.1-8.6 5.1-7.2 0-8.9-7-8.9-17.5V23.9H161V0h-.6l-18.3 16.1v7.8H134v4.6h8.1v52.9H161V28.6h16.4V58c0 16 6.5 24.5 18.1 24.5 9.4 0 15.5-4.4 18.4-12.5v11.6h25.7v-.7l-5.7-5.3c-.7-.9-1.1-2-.9-3.1zM502.6 23c-9.4 0-15.5 4.4-18.4 12.5V24h-25.7v.7l5.7 5.3c.8.7 1.2 1.8 1 2.9v48.6h19V37.7c2.1-3 4.9-5.1 8.6-5.1 7.2 0 8.9 7 8.9 17.5v31.3h19v-34c0-15.9-6.5-24.4-18.1-24.4zM265.9 35V23.9h-25.7v.7l5.7 5.3c.8.7 1.2 1.8 1.1 2.9v48.6h19V39c2-3 3.1-3.6 4.3-3.6 1 0 1.5-.1 14.7 6.6l4.2-17.1c-2.1-1.1-4.4-1.7-6.7-1.8-7.9 0-12.7 5.5-16.6 11.9zM425.5 24.7l5.7 5.3c.8.7 1.2 1.8 1 2.9v48.5h19V23.9h-25.7v.8zM29.8 4.5h41.8V0H0v.6l7.8 7c.8.7 1.2 1.7 1 2.8v71.1h21V42.9H65v-4.5H29.8V4.5zM338.2 67.8c-.4.2-.8.5-1.2.7l-.2.1-1.2.6-.5.2c-.4.2-.8.3-1.2.5h-.1c-2.7 1-5.5 1.6-8.4 1.6-8.9 0-16.6-6.2-16.6-21.2V50h34.8c.1-1.5.1-3.1.1-4.6-.9-17-13.5-22.4-25.3-22.4-15.4 0-29.1 8.6-29.1 30 0 20.4 13.8 29.2 28.4 29.2 7.2 0 13.1-1.9 17.5-5.9l.5-.5.4-.4.3-.3c.6-.7 1.2-1.3 1.7-2.1 1.5-1.9 2.7-4.1 3.6-6.4l-1.2-.9c-.7.9-1.4 1.5-2.3 2.1zm-20.1-42.5c4.8 0 7.9 4.1 7.9 19.2v1h-17.1c.5-14.9 3.7-20.2 9.2-20.2z"/></g></svg>