<svg xmlns="http://www.w3.org/2000/svg" viewBox="0 0 1794.09 247.57">
  <circle cx="123.77" cy="123.77" r="123.77" fill="currentColor" fill-rule="evenodd"></circle>
  <path fill="currentColor" fill-rule="evenodd" d="M1585.42 57.25c-37.41 0-67.3 29.36-67.3 67.56s29.37 67.56 66.79 67.56c20 0 36.61-8.57 47.78-22.32V181c0 29.65-18.71 48.37-47.64 48.37-22.85 0-35.48-7.53-45.94-22.36l-16.52 13.12c13.37 17.26 32.08 27.47 62.71 27.47 39.37 0 67.16-26.25 67.16-67.33v-55.46c0-38.49-29.62-67.56-67.04-67.56zm0 116.93c-26.5 0-47-22.09-47-49.37s20.52-49.37 47-49.37 47.29 22.08 47.29 49.37-20.78 49.37-47.29 49.37zM1772.73 59.81l-41.28 100.31L1688 59.81h-21.36l54.23 123.35-2.87 6.24c-9.6 21.35-16.08 27.12-29.76 27.12-8.4 0-13.68-3.37-18.72-8.89L1661 227a48.47 48.47 0 0 0 27.55 8.26c22.56 0 34.31-11 46.79-40.08l58.8-135.34zM1441 122.93c0-39.22 23.89-63.12 61.82-63.12h9.61v19.74h-9.87c-25.2 0-41.56 16.88-41.3 43.38v66.76H1441zM1152.38 116.16c0-34.55 23.9-59 57.93-59s59 23.9 59 59v73.51H1249v-73.25c0-23.64-15.85-39.75-38.71-39.75-23.12 0-37.92 16.11-37.66 39v74h-20.27zM437.63 170v10.95c0 29.65-18.72 48.37-47.64 48.37-22.85 0-35.49-7.53-45.94-22.36l-16.53 13.13c13.37 17.25 32.08 27.46 62.71 27.46 39.38 0 67.17-26.25 67.17-67.33v-55.44c0-38.49-29.62-67.56-67-67.56s-67.3 29.36-67.3 67.56 29.36 67.56 66.78 67.56c20 0 36.64-8.58 47.81-22.35m252.75 4.16c-26.5 0-47-22.09-47-49.37s20.53-49.37 47-49.37 47.29 22.08 47.29 49.37-20.78 49.37-47.29 49.37m0 18.19c37.42 0 67.56-29.37 67.56-67.56s-30.18-67.56-67.6-67.56-67.3 29.36-67.3 67.56 29.88 67.56 67.3 67.56M541 174.15c-26.51 0-47-22.09-47-49.37s20.53-49.37 47-49.37 47.29 22.08 47.29 49.37-20.81 49.37-47.29 49.37m0 18.19c37.41 0 67.55-29.37 67.55-67.56S578.39 57.22 541 57.22s-67.3 29.36-67.3 67.56 29.88 67.56 67.3 67.56m-150.64-18.19c-26.5 0-47-22.09-47-49.37s20.53-49.37 47-49.37 47.29 22.08 47.29 49.37-20.78 49.37-47.29 49.37M772 124.69c0-38.19 29.09-67.54 66.5-67.54 19.74 0 36.1 8.31 47.27 21.82V0H906v124.69c0 38.18-29.36 67.54-66.76 67.54S772 162.87 772 124.69zm114.55 0c0-27.28-20.78-49.36-47.27-49.36s-47 22.08-47 49.36 20.52 49.35 47 49.35 47.24-22.04 47.24-49.35zM999.42 125.79c0-39 28.32-68.6 67.29-68.6 37.42 0 66.52 25.72 66.52 65.48v8.58H1018.9c2.6 25.72 22.87 43.13 48.85 43.13 21 0 35.86-10.91 43.92-26.77l17.41 8.58c-12 22.61-32.23 36.12-61.33 36.12-41.31 0-68.33-28.31-68.33-66.52zm20.52-13h92.76c-3.63-23.38-20.78-37.67-46-37.67-23.37 0-41.56 15.88-46.76 37.67zM1288.43 125.79c0-39 28.32-68.6 67.3-68.6 37.42 0 66.52 25.72 66.52 65.48v8.58h-114.33c2.6 25.72 22.87 43.13 48.85 43.13 21 0 35.86-10.91 43.91-26.77l17.41 8.58c-11.95 22.61-32.22 36.12-61.32 36.12-41.31 0-68.34-28.31-68.34-66.52zm20.53-13h92.76c-3.64-23.38-20.79-37.67-46-37.67-23.38 0-41.56 15.88-46.72 37.67z"></path>
</svg>