<svg xmlns="http://www.w3.org/2000/svg" viewBox="0 0 306 164.6"><path fill="currentColor" fill-rule="evenodd" d="M282.4 84.2c-.2.5-8.4 21.8-15.4 27.5-7.1 5.6-8.6 1.6-9-4.8 16.1-10.7 18.8-29.5 10.3-35.4-3.2-2.2-5.1-2.1-8.7 2.3-7.2 8.7-9.6 18.3-10.1 31-1.4 1.5-3.5 2.9-4.6 2.6-1.6-.4-4.5-8.1-4.4-12.8 1.1-22.4 2.3-38.1 2.3-38.6 17.1-1.1 38-2.6 42.7-3.2.4-.1.6-.6.3-.9-.7-.8-2.3-2-4.9-2.1-6.6-.3-21.1-.9-37.7-.2.2-4 .4-12.5.1-14-.5-2.6-3-5.1-5.5-6.6-.4-.3-.7-.2-.9.3-.5 1.4-1.2 7-2.4 20.1v.7c-7.8.5-14.4 1.3-22.3 2.7-.7.1-1 1-.5 1.5 2.3 2.3 4.9 3.1 7.8 3.1 2 0 6.7-.4 14.5-.8-.1 8.4-.8 20.9 0 40.8 0 0-1.4 8-4.4 11.1-1.8 1.8-3.7 2.4-3.8-.3-.4-11.9.9-22.1 1.8-30.4.3-2.7.8-5.5-1.4-7.3-.6-.5-1.3-1-2-1.4-.3-.2-.8-.1-1 .2-.6.9-1.8 2.9-2 3-.4-.3-1.9-1.4-2.4-1.8-2.3-2-4.8-2.3-7.3 1.6-2.2 3.3-4 6.9-5.5 10.6-2.7 6.4-6.5 17-7.3 19-1.1 2.8-2.1 4.1-5.6-.5 0 0 3.7-22.8 2.3-27.3-.6-1.8-1.6-3.6-2.8-5-1.2-1.4-1.6-.1-1.7.3-1.4 4.6-1.9 18.9-3.5 31.3 0 0-.7 3.5-1.5 5.1-2 4.4-6.9-4.5-6.9-4.5 1.2-9.6 2.1-26.7 2.1-29.5 0-3.7-.7-5.8-3.3-7.7-.3-.2-.8-.1-.9.3-1.9 7.4-4.6 20.9-4.2 38.5 0 0-1.1 4.2-2.3 6-1.1 1.7-3.1 1.3-3.8.8-1-.7-.4-15.5.3-31.7.2-4.5.9-21.1 2-36.5 1-13.5-4.2-15.5-5.8-16-.3-.1-.4.1-.4.2-.7 1.7-1.2 14.8-1.4 16.8-.4 5.6-.8 28.1-.8 29.4-6.7-5.4-7.6-2.7-9.4-.4-2.6 3.3-4.5 8.2-5.9 12.6-1.8 5.7-5.7 20.1-7.4 23.6-.6 1.2-1.5 3-2.6.2-1.9-4.7-.3-24.7.4-30.5.6-5 .2-5.2-3-8.1-.6-.6-1.3-.1-1.5.3-.3.6-1.1 1.9-1.7 3.1 0 0-1.7-1.2-3.2-1.9-2.3-1.2-4.4-1.8-6.7 1.7-2.4 3.6-4.5 7.5-6 11.6-.5 1.3-3.3 10.9-4.4 14.4-.7 2.3-5.2 13.4-8 13.2-.9-.1-.9-1.8-1-2.7-.4-6.8 3.7-19.3 4.9-26 .5-3 1.1-6 1-9 0-2.2-1.2-4-3.1-5.3-.4-.3-1-.1-1.2.2-1.6 2.3-2.9 4.6-4.7 6.5-1.8 1.8-3.6 4.1-7.2 3.5.1-.9-.1-14.3-3.6-13.4-2 .5-3.6 2.5-3 13.7.1 1.1.1 5.3 2.9 6.2.1 0-1.7 10.3-3.1 15.4-1 3.9-3.6 10.4-5.2 14.1-.3.7-.8 2.1-1.1 2.8-.2.6.1.8.4.6 2.8-1.4 4-2.3 5.5-4.1 2.3-2.7 7.6-19.3 7-29.2 0 0 1.5-.5 4.7-2.8 1.2-.8 3.2-2.3 3.8-2.8.1.6.1.9.1 1.2-.1 6.2-3.4 18-3.9 24.2-.5 5.3.9 10 6.2 12.8 2.3 1.3 4.1 1.5 6-1.4 1.3-2 2.3-4.6 3.9-8.5.2 1.5.7 2.8 1.3 4 1.2 2.6 2.6 4.2 5 5.8 2.1 1.4 3.7.6 4.5.1 3.2-3 6.4-8.6 7.3-10.8 3 6.7 7.4 13.4 10.8 7.6 1.8-3 2.5-4.8 3.1-6.1.5 1 1.3 4.5 5.9 8.6 3.3 3 4.9 2.9 6.7.1 1.6-2.5 3.4-6.3 4.4-8.6 2.7 3.5 4.8 5.9 8 7.7 1.7.9 3.2 1 5.6-2.6 1-1.5 2.7-4.1 3.1-5.4 1.8 2.7 4.1 5.3 6.6 7.4 1.8 1.5 3.8 1.9 5.8-1.9.7-1.2 2.3-5.6 2.6-7.2.7.9.7 1 1.1 1.5 1 1.1 1.9 2.3 3.1 3.2 1.8 1.4 3 1.2 4.4-.6.7-.9 1.3-1.9 1.9-2.9.4.8 3.3 6.6 7.5 9.7 1.5 1.1 2.9 1.1 4.1-.3 1.6-1.9 3.3-4.6 5.4-9.2 1.6 2.3 5.2 6.8 8 8.2 0 0 1.7 1.1 3.6-.7 2.6-2.5 6.1-8.3 6.5-9 1.1 3 2.9 6.5 6 8.1 3.1 1.6 8.1-3.5 8.4-3.7.9 1.7 2.3 3.8 4.8 5.7 7.7 5.8 14.4 2.9 19.4-4.4 3.9-5.5 5.1-8.1 7.5-15.7 1.4-4.5.8-9.6.1-12.2.1-.4-.3-.2-.5.3zm-16-6.5c.7 6.4-3.4 16.2-9 20.4.9-8.6 1.6-15.9 7.7-23.6 1.2 1.5 1.1 2 1.3 3.2zm-147.1 33.9c-2.7-.1-2.3-12.6-1.1-18.1 2.6-12.2 6.9-18.7 6.9-18.7 2.3 1.3 2.6 3.3 2.8 6.1 1.8 21.3-7.4 30.8-8.6 30.7zm40.3-15.8c-1.5 10.2-6 17.7-7.9 16-1.6-1.5-3.3-10.5-1.6-18.7 3.2-15.6 6.5-18 6.5-18 4.1 3.5 5.1 6.4 3 20.7zm57.2 7.9c-4.1 9.2-5.9 7.9-6.7 6-1.8-5.6-1.1-11.3.1-16.8 3.9-15.3 6-17.2 7-18.7 2.3 1.3 2.4 4.5 2.8 6.3.9 8-.3 15.8-3.2 23.2zM75.7 163.6c.1 1.1-.6 1.3-1.7.4-1.5-1-3-2.4-4.5-4.1-2.3-2.7-3.1-5.6-3.4-9.6-.8-12.3-.6-23.2.2-38.7l.3-5c-6.2 13.5-13.4 18.6-23 17.7C29.2 123 16.2 104 21.1 74.1c4.4-26.7 17.3-46.9 29.2-54.9 0-.1 0 .1 0 0 6.6-4.7 13.5-4.5 18.1-2.2 7.5 3.8 16 19.4 6.5 44.5-.7 1.8-1.4 1.8-2.2 1.4-2.2-1.2-5.2-5.8-5.1-8 0-.1.1-.5.3-1 .7-1.9 2.2-6.2 2.7-9.3 2.2-13.9-.5-33.2-17.1-19.2h-.1c-8.8 8-18.7 24.4-22.8 47.4-4.5 24.7.7 43.5 14 45.4 10.4 1.5 20.3-15.5 22-28.2.5-3.8 1.3-8.3 1.7-10.6.1-.6.8-.8 1.3-.4 4.7 3.6 5.8 8.5 5.8 10.5.2 24-3.3 47.5.3 74.1z"></path></svg>