<svg xmlns="http://www.w3.org/2000/svg" viewbox="0 0 157 86">
  <title>Graduate Hotels</title>
  <path fill="currentColor" fill-rule="evenodd" d="M50 71h2.08v3.957h3.84V71H58v10h-2.08v-4.014h-3.84V81H50zM69.836 76.028V76c0-1.658-1.183-3.039-2.85-3.039-1.666 0-2.822 1.354-2.822 3.011V76c0 1.658 1.183 3.039 2.85 3.039 1.666 0 2.822-1.354 2.822-3.011m-7.836 0V76c0-2.748 2.11-5 5.014-5C69.917 71 72 73.224 72 75.972V76c0 2.749-2.11 5-5.013 5S62 78.777 62 76.028M78.938 73.028H76V71h8v2.028h-2.938V81h-2.124zM89 71h6.934v1.957H91.01v2.029h4.333v1.957H91.01v2.1H96V81h-7zM101 71h2.143v8H108v2h-7zM111 79.444l1.314-1.513c.91.721 1.863 1.18 3.018 1.18.91 0 1.459-.347 1.459-.917v-.028c0-.542-.347-.819-2.037-1.236-2.035-.5-3.35-1.04-3.35-2.972v-.028c0-1.764 1.474-2.93 3.538-2.93 1.474 0 2.73.444 3.755 1.236l-1.155 1.611c-.896-.597-1.777-.959-2.629-.959-.851 0-1.299.376-1.299.848v.027c0 .64.432.848 2.18 1.278 2.051.514 3.206 1.222 3.206 2.917v.028c0 1.93-1.53 3.014-3.711 3.014-1.53 0-3.077-.514-4.289-1.556M32.004 85.451c.035.62-.318.748-.97.212-.86-.584-1.726-1.402-2.615-2.373-1.317-1.537-1.792-3.21-1.95-5.527-.482-7.074-.352-13.354.137-22.306l.193-2.858c-3.565 7.763-7.733 10.72-13.242 10.198C5.297 62.016-2.217 51.048.605 33.86c2.558-15.406 9.966-27.077 16.79-31.68-.015-.03.015.031 0 0C21.163-.515 25.177-.425 27.826.91c4.29 2.164 9.211 11.179 3.765 25.681-.392 1.044-.8 1.041-1.265.797-1.274-.67-3.017-3.32-2.945-4.633.004-.061.068-.263.17-.564.379-1.113 1.28-3.587 1.569-5.383 1.284-8.006-.271-19.138-9.817-11.083a.07.07 0 01-.044.015c-5.058 4.6-10.75 14.087-13.14 27.352-2.562 14.235.383 25.068 8.076 26.18 5.929.858 11.62-8.964 12.594-16.25.292-2.195.727-4.763.96-6.091.063-.37.478-.455.773-.226 2.708 2.098 3.315 4.899 3.326 6.067.13 13.766-1.905 27.339.156 42.68m81.183-34.534c-2.377 5.334-3.367 4.533-3.828 3.452-1.022-3.227-.618-6.5.076-9.68 2.248-8.85 3.438-9.948 4.042-10.758 1.332.76 1.403 2.57 1.62 3.615.483 4.601-.248 9.076-1.91 13.37m-32.91-4.597c-.887 5.889-3.476 10.23-4.521 9.248-.897-.843-1.871-6.082-.918-10.807 1.815-8.991 3.736-10.36 3.736-10.36 2.342 2 2.939 3.712 1.703 11.919M57.135 55.48c-1.553-.045-1.308-7.238-.613-10.419C58.007 38 60.496 34.3 60.496 34.3c1.3.775 1.48 1.883 1.639 3.511.952 12.224-4.339 17.69-5 17.67m84.63-19.59c.39 3.708-1.93 9.331-5.191 11.791.545-4.964.91-9.149 4.42-13.602.71.833.614 1.11.771 1.811m9.159 3.764c-.119.288-4.806 12.588-8.886 15.832-4.097 3.256-4.958.903-5.181-2.757 9.252-6.15 10.839-17.031 5.94-20.397-1.828-1.258-2.918-1.21-5.022 1.349-4.115 5.003-5.545 10.543-5.793 17.856-.791.85-2.002 1.647-2.643 1.486-.943-.236-2.565-4.663-2.506-7.38.624-12.897 1.306-21.972 1.326-22.263 9.865-.633 21.872-1.494 24.574-1.846a.304.304 0 00.188-.506c-.43-.466-1.33-1.158-2.845-1.22-3.823-.153-12.111-.516-21.682-.108.12-2.284.234-7.185.078-8.098-.258-1.511-1.728-2.95-3.153-3.832-.239-.148-.39-.125-.501.186-.298.836-.686 4.017-1.397 11.588l-.026.38c-4.478.294-8.283.774-12.808 1.533a.519.519 0 00-.28.876c1.308 1.306 2.81 1.813 4.488 1.791 1.144-.014 3.854-.206 8.365-.482-.044 4.823-.487 12.032.025 23.551 0 0-.78 4.643-2.54 6.43-1.039 1.057-2.103 1.365-2.212-.177-.222-6.843.508-12.759 1.05-17.505.175-1.537.441-3.155-.79-4.197-.352-.299-.743-.553-1.129-.81a.419.419 0 00-.586.119c-.352.545-1.024 1.648-1.153 1.749-.242-.167-1.07-.832-1.356-1.036-1.343-1.139-2.74-1.324-4.218.928-1.256 1.914-2.31 3.997-3.185 6.115-1.527 3.696-3.74 9.791-4.187 10.95-.613 1.596-1.188 2.361-3.208-.312 0 0 2.133-13.151 1.346-15.772-.32-1.067-.94-2.09-1.594-2.856-.698-.817-.913-.062-.985.179-.791 2.66-1.074 10.925-1.992 18.063 0 0-.406 1.99-.837 2.939-1.168 2.561-3.973-2.603-3.973-2.603.689-5.528 1.231-15.417 1.226-17-.007-2.15-.424-3.335-1.914-4.43a.336.336 0 00-.523.185c-1.1 4.245-2.644 12.055-2.404 22.178 0 0-.625 2.396-1.299 3.454-.622.975-1.81.737-2.169.475-.558-.409-.257-8.92.186-18.28.123-2.615.514-12.141 1.14-21.036.55-7.797-2.401-8.924-3.332-9.22-.151-.048-.224.05-.256.127-.413.983-.708 8.51-.784 9.709-.207 3.245-.436 16.227-.455 16.943-3.838-3.117-4.389-1.579-5.432-.253-1.478 1.877-2.587 4.72-3.372 7.268-1.017 3.303-3.303 11.604-4.26 13.616-.342.72-.846 1.72-1.476.122-1.065-2.7-.163-14.224.224-17.571.33-2.864.115-3.015-1.702-4.67-.37-.339-.773-.03-.887.2-.169.344-.63 1.085-.983 1.798-.02-.018-.996-.69-1.821-1.116-1.344-.692-2.51-1.063-3.836.963-1.359 2.102-2.606 4.342-3.462 6.682-.281.769-1.89 6.29-2.54 8.316-.425 1.326-2.998 7.718-4.598 7.586-.499-.042-.541-1.023-.574-1.534-.248-3.95 2.151-11.126 2.799-14.967.289-1.716.607-3.459.575-5.184-.024-1.255-.703-2.33-1.807-3.063a.519.519 0 00-.702.14c-.92 1.338-1.688 2.647-2.723 3.728-1.015 1.06-2.084 2.385-4.138 2.039.05-.538-.082-8.258-2.078-7.73-1.175.31-2.063 1.446-1.741 7.908.031.64.077 3.06 1.684 3.603.046.015-1 5.964-1.757 8.89-.578 2.239-2.083 5.993-2.995 8.14-.166.393-.467 1.21-.65 1.634-.139.323.042.448.242.345 1.607-.83 2.288-1.307 3.18-2.345 1.34-1.562 4.359-11.135 4.004-16.818 0-.008.869-.313 2.724-1.603.669-.465 1.832-1.308 2.21-1.64.048.372.032.535.03.686-.05 3.574-1.935 10.373-2.266 13.931-.283 3.03.53 5.739 3.545 7.406 1.327.734 2.37.843 3.472-.833.77-1.17 1.3-2.627 2.266-4.885a7.4 7.4 0 00.723 2.284c.716 1.505 1.519 2.402 2.894 3.324 1.22.819 2.12.35 2.58.045 1.868-1.754 3.68-4.942 4.225-6.251 1.728 3.837 4.255 7.72 6.23 4.361 1.02-1.736 1.43-2.783 1.776-3.51.286.571.732 2.586 3.37 4.959 1.894 1.705 2.798 1.687 3.866.053.929-1.418 1.966-3.636 2.525-4.98 1.543 2.007 2.74 3.408 4.598 4.457.96.542 1.843.554 3.215-1.518.557-.842 1.539-2.353 1.792-3.1 1.03 1.535 2.344 3.038 3.775 4.248 1.016.86 2.175 1.095 3.332-1.077.38-.714 1.299-3.248 1.485-4.157.406.532.417.585.66.853.575.635 1.105 1.337 1.774 1.857 1.046.814 1.727.68 2.528-.363.405-.528.738-1.112 1.11-1.68.254.463 1.874 3.819 4.332 5.616.882.65 1.681.644 2.351-.172.911-1.11 1.871-2.647 3.111-5.29.917 1.31 2.988 3.918 4.6 4.7 0 0 .968.627 2.052-.403 1.489-1.417 3.522-4.765 3.746-5.206.636 1.717 1.64 3.755 3.434 4.669 1.758.894 4.634-2.032 4.815-2.155.506.974 1.304 2.206 2.76 3.307 4.403 3.325 8.26 1.657 11.186-2.519 2.219-3.166 2.962-4.68 4.308-9.026.797-2.575.48-5.513.036-7.05-.092-.319-.36-.187-.472.087M152 57.489a2.478 2.478 0 01.735-1.76c.226-.223.491-.4.795-.532.303-.131.626-.197.97-.197s.667.066.97.197c.304.132.569.31.795.532a2.478 2.478 0 01.735 1.76c0 .344-.066.665-.197.965a2.495 2.495 0 01-2.303 1.502 2.514 2.514 0 01-1.765-.718 2.495 2.495 0 01-.538-.784 2.374 2.374 0 01-.197-.965zm.395 0c0 .285.055.556.164.811.11.256.26.481.45.675a2.068 2.068 0 001.491.62 2.065 2.065 0 001.491-.62c.19-.194.34-.419.45-.675.11-.255.164-.526.164-.811 0-.292-.055-.566-.164-.822a2.112 2.112 0 00-.45-.67 2.112 2.112 0 00-3.432.67c-.11.256-.164.53-.164.822zm1.13-1.414h.986c.132 0 .26.014.384.043.124.03.235.077.334.143.099.066.177.15.236.252.058.102.088.23.088.384a.71.71 0 01-.176.499.876.876 0 01-.471.258l.756 1.228h-.614l-.658-1.174h-.361v1.174h-.505v-2.807zm.91 1.228c.145 0 .284-.028.416-.083.131-.054.197-.166.197-.334 0-.154-.06-.256-.18-.307a.959.959 0 00-.379-.077h-.46v.8h.405z"/>
</svg>