<svg xmlns="http://www.w3.org/2000/svg" viewBox="0 0 474.31 121.06">
<title>Green Chameleon</title>
<path fill="currentColor" fill-rule="evenodd" d="M102 53.53a6.71 6.71 0 00-6.51 5.32h13.07a6.63 6.63 0 00-6.56-5.32zM323.93 53.53a6.74 6.74 0 00-6.51 5.32h13.07a6.63 6.63 0 00-6.56-5.32zM128.67 53.53a6.74 6.74 0 00-6.51 5.32h13.07a6.63 6.63 0 00-6.56-5.32zM362.05 53.53a6.74 6.74 0 00-6.51 5.32h13.07a6.63 6.63 0 00-6.56-5.32zM248.79 53.72c-3.57 0-6.9 2.43-6.9 7.37s3.34 7.41 6.9 7.41 7.08-2.47 7.08-7.41v-.6a6.93 6.93 0 00-7.08-6.77zM53.57 53.72c-3.56 0-6.89 2.43-6.89 7.37S50 68.5 53.57 68.5s7.09-2.47 7.09-7.41a5.76 5.76 0 000-.59 7 7 0 00-7.09-6.78z"/>
<path fill="currentColor" fill-rule="evenodd" d="M0 0v121.06h474.31V0zm66.46 73.41c0 7.46-7.18 9.79-12.41 9.79a14.26 14.26 0 01-6.85-1.47v-5a13.88 13.88 0 006.85 1.42c4.37 0 6.32-2.33 6.32-4.7v-4.19c-.28 2.1-3.61 4.66-7.79 4.66-5.28 0-11.84-4.13-11.84-12.83 0-8.51 6.56-12.79 11.84-12.79 4.18 0 7.51 2.71 7.79 4.23v-3.8h6.09zm21.29-19.14a9.62 9.62 0 00-1.52-.09 8.77 8.77 0 00-8.84 8.27v11h-6.13V48.73h6.13V55A8.71 8.71 0 0186 48.35a10.87 10.87 0 011.71.07zm26.16 9H95.42c.76 3.61 3.61 5.46 7.18 5.46a10.18 10.18 0 006.42-1.9l3.37 3.28c-2.2 2.33-5.25 3.8-10 3.8-6.18 0-13.07-4.28-13.07-12.78V61A12.66 12.66 0 01102 48.3c5.57 0 13.27 4.28 11.91 14.98zm26.73 0h-18.5c.77 3.61 3.62 5.46 7.18 5.46a10.18 10.18 0 006.42-1.9l3.36 3.28c-2.2 2.33-5.24 3.8-10 3.8-6.18 0-13.07-4.28-13.07-12.78V61a12.66 12.66 0 0112.64-12.7c5.61 0 13.33 4.28 11.97 14.98zM168 73.45h-6.08V59.57c0-4.28-2.39-5.9-5-5.9-4.09 0-5.94 3.62-6.37 4.95v14.83h-6.13V48.73h6.13v4.85a9 9 0 018.27-5.23c4.56 0 9.22 3.09 9.18 10.84zm26.52.48c-5.61 0-12.89-4.23-12.89-12.79s7.27-12.84 12.88-12.84a11.63 11.63 0 0110.55 6l-4.66 2.19a7.86 7.86 0 00-1-1 7.39 7.39 0 101 10.4l4.75 2.11a11.72 11.72 0 01-10.64 5.93zm37.93-.48h-6.08V59.57c0-4.28-2.38-5.9-5-5.9-4.09 0-5.94 3.62-6.37 4.95v14.83h-6.13V39.84H215v13.74a9 9 0 018.27-5.23c4.57 0 9.22 3.09 9.18 10.84zm29.23 0h-6.09v-4.19c-.28 2.1-3.61 4.66-7.79 4.66-5.28 0-11.84-4.13-11.84-12.83 0-8.51 6.56-12.79 11.84-12.79 4.18 0 7.51 2.71 7.79 4.23v-3.8h6.09zm46.15 0h-6.08V59.81c0-3.76-1.94-6.14-5.37-6.14s-5.57 2.9-6.14 5.66v14.12h-6.14V59.81c0-3.76-2.37-6.14-5.37-6.14-3.61 0-5.61 2.71-6.13 5.66v14.16h-6.13V48.77h6.13v5c.14-1.42 2.6-5.42 7.6-5.42a9.8 9.8 0 018.89 5.7 9.87 9.87 0 019.08-5.7c5 0 9.65 3.18 9.65 11.36zm28.06-10.17h-18.5c.76 3.61 3.62 5.46 7.18 5.46a10.18 10.18 0 006.42-1.9l3.37 3.28c-2.2 2.33-5.25 3.8-10 3.8-6.18 0-13.07-4.28-13.07-12.78V61a12.66 12.66 0 0112.64-12.7c5.61 0 13.31 4.28 11.95 14.98zm9.92 10.17h-6.13V39.84h6.13zM374 63.28h-18.49c.76 3.61 3.62 5.46 7.18 5.46a10.18 10.18 0 006.42-1.9l3.37 3.28c-2.2 2.33-5.25 3.8-10 3.8-6.18 0-13.07-4.28-13.07-12.78V61a12.66 12.66 0 0112.64-12.7c5.61 0 13.31 4.28 11.95 14.98zm15.24 10.65c-5.61 0-12.88-4.23-12.88-12.79s7.27-12.84 12.88-12.84 12.88 4.2 12.88 12.85-7.27 12.78-12.88 12.78zm40.09-.48h-6.09V59.57c0-4.28-2.38-5.9-5-5.9-4.08 0-5.94 3.62-6.37 4.95v14.83h-6.13V48.73h6.17v4.85a9 9 0 018.27-5.23c4.56 0 9.23 3.09 9.15 10.84z"/>
<path fill="currentColor" fill-rule="evenodd" d="M389.24 53.72h-.37a7 7 0 00-6.57 7.4v.43a7.4 7.4 0 106.93-7.85z"/></svg>