<svg xmlns="http://www.w3.org/2000/svg" viewBox="0 0 474.31 121.06"><defs><style>.cls-1{fill:#fff;}</style></defs><title>Asset 1</title><g><g><path class="cls-1" d="M102,53.53a6.71,6.71,0,0,0-6.51,5.32h13.07A6.63,6.63,0,0,0,102,53.53Z"></path><path class="cls-1" d="M323.93,53.53a6.74,6.74,0,0,0-6.51,5.32h13.07A6.63,6.63,0,0,0,323.93,53.53Z"></path><path class="cls-1" d="M128.67,53.53a6.74,6.74,0,0,0-6.51,5.32h13.07A6.63,6.63,0,0,0,128.67,53.53Z"></path><path class="cls-1" d="M362.05,53.53a6.74,6.74,0,0,0-6.51,5.32h13.07A6.63,6.63,0,0,0,362.05,53.53Z"></path><path class="cls-1" d="M248.79,53.72c-3.57,0-6.9,2.43-6.9,7.37s3.34,7.41,6.9,7.41,7.08-2.47,7.08-7.41c0-.2,0-.4,0-.6A6.93,6.93,0,0,0,248.79,53.72Z"></path><path class="cls-1" d="M53.57,53.72c-3.56,0-6.89,2.43-6.89,7.37S50,68.5,53.57,68.5s7.09-2.47,7.09-7.41a5.76,5.76,0,0,0,0-.59A7,7,0,0,0,53.57,53.72Z"></path><path class="cls-1" d="M0,0V121.06H474.31V0ZM66.46,73.41c0,7.46-7.18,9.79-12.41,9.79a14.26,14.26,0,0,1-6.85-1.47v-5a13.88,13.88,0,0,0,6.85,1.42c4.37,0,6.32-2.33,6.32-4.7V69.26c-.28,2.1-3.61,4.66-7.79,4.66-5.28,0-11.84-4.13-11.84-12.83,0-8.51,6.56-12.79,11.84-12.79,4.18,0,7.51,2.71,7.79,4.23v-3.8h6.09ZM87.75,54.27a9.62,9.62,0,0,0-1.52-.09,8.77,8.77,0,0,0-8.84,8.27v11H71.26V48.73h6.13V55A8.71,8.71,0,0,1,86,48.35a10.87,10.87,0,0,1,1.71.07Zm26.16,9H95.42c.76,3.61,3.61,5.46,7.18,5.46a10.18,10.18,0,0,0,6.42-1.9l3.37,3.28c-2.2,2.33-5.25,3.8-10,3.8-6.18,0-13.07-4.28-13.07-12.78V61A12.66,12.66,0,0,1,102,48.3C107.57,48.3,115.27,52.58,113.91,63.28Zm26.73,0h-18.5c.77,3.61,3.62,5.46,7.18,5.46a10.18,10.18,0,0,0,6.42-1.9l3.36,3.28c-2.2,2.33-5.24,3.8-10,3.8-6.18,0-13.07-4.28-13.07-12.78V61A12.66,12.66,0,0,1,128.67,48.3C134.28,48.3,142,52.58,140.64,63.28ZM168,73.45h-6.08V59.57c0-4.28-2.39-5.9-5-5.9-4.09,0-5.94,3.62-6.37,4.95V73.45h-6.13V48.73h6.13v4.85a9,9,0,0,1,8.27-5.23c4.56,0,9.22,3.09,9.18,10.84Zm26.52.48c-5.61,0-12.89-4.23-12.89-12.79S188.9,48.3,194.51,48.3a11.63,11.63,0,0,1,10.55,6l-4.66,2.19a7.86,7.86,0,0,0-1-1,7.39,7.39,0,1,0,1,10.4L205.15,68A11.72,11.72,0,0,1,194.51,73.93Zm37.93-.48h-6.08V59.57c0-4.28-2.38-5.9-5-5.9-4.09,0-5.94,3.62-6.37,4.95V73.45h-6.13V39.84H215V53.58a9,9,0,0,1,8.27-5.23c4.57,0,9.22,3.09,9.18,10.84Zm29.23,0h-6.09V69.26c-.28,2.1-3.61,4.66-7.79,4.66-5.28,0-11.84-4.13-11.84-12.83,0-8.51,6.56-12.79,11.84-12.79,4.18,0,7.51,2.71,7.79,4.23v-3.8h6.09Zm46.15,0h-6.08V59.81c0-3.76-1.94-6.14-5.37-6.14s-5.57,2.9-6.14,5.66V73.45H284.1V59.81c0-3.76-2.37-6.14-5.37-6.14-3.61,0-5.61,2.71-6.13,5.66V73.49h-6.13V48.77h6.13v5c.14-1.42,2.6-5.42,7.6-5.42a9.8,9.8,0,0,1,8.89,5.7,9.87,9.87,0,0,1,9.08-5.7c5,0,9.65,3.18,9.65,11.36Zm28.06-10.17H317.39c.76,3.61,3.62,5.46,7.18,5.46a10.18,10.18,0,0,0,6.42-1.9l3.37,3.28c-2.2,2.33-5.25,3.8-10,3.8-6.18,0-13.07-4.28-13.07-12.78V61A12.66,12.66,0,0,1,323.93,48.3C329.54,48.3,337.24,52.58,335.88,63.28Zm9.92,10.17h-6.13V39.84h6.13ZM374,63.28H355.51c.76,3.61,3.62,5.46,7.18,5.46a10.18,10.18,0,0,0,6.42-1.9l3.37,3.28c-2.2,2.33-5.25,3.8-10,3.8-6.18,0-13.07-4.28-13.07-12.78V61A12.66,12.66,0,0,1,362.05,48.3C367.66,48.3,375.36,52.58,374,63.28Zm15.24,10.65c-5.61,0-12.88-4.23-12.88-12.79s7.27-12.84,12.88-12.84,12.88,4.2,12.88,12.85S394.85,73.93,389.24,73.93Zm40.09-.48h-6.09V59.57c0-4.28-2.38-5.9-5-5.9-4.08,0-5.94,3.62-6.37,4.95V73.45h-6.13V48.73h6.17v4.85a9,9,0,0,1,8.27-5.23c4.56,0,9.23,3.09,9.15,10.84Z"></path><path class="cls-1" d="M389.24,53.72l-.37,0a7,7,0,0,0-6.57,7.4c0,.15,0,.29,0,.43a7.4,7.4,0,1,0,6.93-7.85Z"></path></g></g></svg>