<svg xmlns="http://www.w3.org/2000/svg" viewBox="0 0 188 96">
  <g>
    <path fill="currentColor" fill-rule="evenodd" d="M61.94,47.339 L75.331,27.74 C75.844,26.97 75.228,26.098 74.151,26.098 L63.813,26.021 C63.043,26.021 61.504,26.996 60.837,27.842 L56.169,33.922 L49.679,42.413 L49.73,27.739 C49.73,26.739 48.678,26.097 48.037,26.097 L36.184,26.097 C35.363,26.097 34.619,26.405 34.594,27.918 C34.569,29.406 36.415,29.714 36.415,30.124 L36.415,69.348 C36.415,70.092 37.441,71.22 38.16,71.22 L48.318,71.169 C49.037,71.143 49.652,70.117 49.652,69.424 L49.677,53.083 L56.167,61.112 L63.042,69.578 C63.606,70.245 64.709,71.169 65.864,71.169 L76.895,71.092 C77.947,71.092 77.844,69.809 77.588,69.476 C72.3435886,62.1171242 67.1275499,54.7380695 61.94,47.339 Z M100.008,26.099 L88.285,26.099 C86.9,26.099 86.592,26.92 86.361,27.792 C86.617,29.382 88.285,29.818 88.285,29.844 L88.285,69.426 C88.285,70.478 88.927,71.171 89.825,71.171 L94.032,71.145 L100.291,71.094 C101.445,71.094 101.752,70.402 101.752,69.426 L101.752,27.74 C101.752,26.74 100.906,26.099 100.008,26.099 Z"/>
    <path fill="currentColor" fill-rule="evenodd" d="M135.691,5.884 C123.224,2.729 109.193,0.959 94.365,0.959 C94.262,0.959 94.159,0.984 94.032,0.984 C80.59,0.984 67.763,2.472 56.168,5.114 C23.614,12.554 0.834,29.177 0.834,48.391 C0.834,67.606 23.614,84.228 56.167,91.667 C67.762,94.31 80.588,95.797 94.031,95.797 L94.364,95.797 C109.192,95.797 123.223,94.053 135.69,90.898 C166.602,83.151 187.92,66.99 187.92,48.391 C187.922,29.793 166.604,13.631 135.691,5.884 Z M135.691,80.56 C123.404,83.408 109.32,85.024 94.365,85.024 C94.262,85.024 94.159,84.999 94.032,84.999 C80.487,84.999 67.635,83.639 56.168,81.253 C27.462,75.276 7.658,62.783 7.658,48.392 C7.658,34.001 27.462,21.508 56.168,15.531 C67.635,13.145 80.487,11.785 94.032,11.76 L94.365,11.76 C109.32,11.76 123.404,13.376 135.691,16.223 C162.703,22.431 181.097,34.539 181.097,48.391 C181.097,62.243 162.703,74.352 135.691,80.56 Z"/>
    <path fill="currentColor" fill-rule="evenodd" d="M143.771,27.792 C143.388,26.919 142.72,26.099 141.847,26.099 L125.994,26.099 C125.43,26.099 124.66,26.561 124.66,27.33 C124.635,29.587 126.996,29.511 126.867,29.844 L113.502,69.272 C113.272,69.939 113.861,71.17 114.682,71.17 L123.994,71.093 C124.814,71.093 125.969,70.401 126.303,69.4 L130.715,56.164 C132.203,51.751 133.692,47.339 135.153,42.927 C135.231,42.748 135.462,42.645 135.692,42.645 C136.051,42.645 136.436,42.773 136.512,43.03 L145.158,69.555 C145.338,70.145 146.543,71.094 147.183,71.094 L156.88,71.171 C157.444,71.171 158.112,70.042 157.933,69.529 L143.771,27.792 Z"/>
  </g>
</svg>
