<svg xmlns="http://www.w3.org/2000/svg" viewBox="0 0 584 84">
  <title>Kimbo Design</title>
  <g fill="none" fill-rule="evenodd">
    <polygon fill="currentColor" fill-rule="nonzero" points="142.752 21 127.377 39.258 127.377 21 115 21 115 66 127.377 66 127.377 54.365 131.906 49.285 143.135 66 158 66 140.519 40.349 157.426 21"/>
    <rect width="13" height="45" x="162" y="21" fill="currentColor" fill-rule="nonzero"/>
    <polygon fill="currentColor" fill-rule="nonzero" points="218.774 21 207.999 38.422 197.225 21 184 21 184 66 196.258 66 196.258 40.285 207.742 57.771 207.999 57.771 219.549 40.158 219.549 66 232 66 232 21"/>
    <path fill="currentColor" fill-rule="nonzero" d="M240.492694 20.8962045L263.5125 20.8962045C269.1555 20.8962045 273.13125 22.3072727 275.760375 24.935 277.555875 26.7284773 278.644931 29.0998409 278.644931 32.1762045L278.644931 32.3043864C278.644931 37.4946818 275.69625 40.5710455 271.7205 42.3015 277.170056 44.0960455 280.633875 47.1724091 280.633875 53.2610455L280.633875 53.3892273C280.633875 61.0790682 274.349625 65.7577045 263.64075 65.7577045L240.492694 65.7577045 240.492694 20.8962045 240.492694 20.8962045zM260.4345 38.7786364C264.217875 38.7786364 266.334 37.49575 266.334 34.8680227L266.334 34.7398409C266.334 32.3054545 264.41025 30.8954545 260.692069 30.8954545L252.612319 30.8954545 252.612319 38.7786364 260.4345 38.7786364zM262.23 55.7616591C266.013375 55.7616591 268.193625 54.2875682 268.193625 51.6598409L268.193625 51.5316591C268.193625 49.0962045 266.269875 47.4939318 262.102819 47.4939318L252.612319 47.4939318 252.612319 55.7616591 262.23 55.7616591zM284.726119 43.4562045L284.726119 43.3280227C284.726119 30.44575 295.1133 20 308.963231 20 322.813163 20 333.073163 30.3175682 333.073163 43.1998409L333.073163 43.3280227C333.073163 56.2092273 322.685981 66.6560455 308.834981 66.6560455 294.98505 66.6560455 284.726119 56.3384773 284.726119 43.4562045M320.377481 43.4562045L320.377481 43.3280227C320.377481 36.8548409 315.696356 31.2148409 308.834981 31.2148409 302.0388 31.2148409 297.485925 36.7266591 297.485925 43.1998409L297.485925 43.3280227C297.485925 49.8001364 302.16705 55.4412045 308.963231 55.4412045 315.824606 55.4412045 320.377481 49.9293864 320.377481 43.4562045M356.525813 65.7587727L340.942369 65.7587727 340.942369 20.8972727 356.525813 20.8972727C370.631175 20.8972727 380.377106 30.575 380.377106 43.2639318 380.377106 55.9528636 370.631175 65.7587727 356.525813 65.7587727M356.525813 25.5759091L346.009313 25.5759091 346.009313 61.0801364 356.525813 61.0801364C367.8738 61.0801364 375.118856 53.3902955 375.118856 43.3921136 375.118856 33.3939318 367.8738 25.5759091 356.525813 25.5759091"/>
    <polygon fill="currentColor" fill-rule="nonzero" points="423.297 25.511 395.918 25.511 395.918 40.828 420.412 40.828 420.412 45.442 395.918 45.442 395.918 61.145 423.619 61.145 423.619 65.759 390.852 65.759 390.852 20.897 423.297 20.897"/>
    <path fill="currentColor" fill-rule="nonzero" d="M449.703713,40.8925682 C459.706144,43.0716591 464.325281,46.7248409 464.325281,53.6455909 C464.325281,61.4005909 457.912781,66.3986136 448.999406,66.3986136 C441.8826,66.3986136 436.047225,64.02725 430.660725,59.2204318 L433.801781,55.5042273 C438.482906,59.7342273 442.970588,61.8481591 449.191781,61.8481591 C455.218463,61.8481591 459.194213,58.7087727 459.194213,54.1583182 C459.194213,49.9283182 456.948769,47.5569545 447.522394,45.5701364 C437.200406,43.3269545 432.453019,39.9942273 432.453019,32.56075 C432.453019,25.3825682 438.674213,20.2563636 447.201769,20.2563636 C453.742519,20.2563636 458.423644,22.1139318 462.977588,25.7671136 L460.026769,29.6766591 C455.859713,26.2798409 451.690519,24.80575 447.073519,24.80575 C441.238144,24.80575 437.521031,28.0102955 437.521031,32.1121136 C437.5221,36.4072727 439.8306,38.7786364 449.703713,40.8925682"/>
    <rect width="5.066" height="44.861" x="474.753" y="20.897" fill="currentColor" fill-rule="nonzero"/>
    <path fill="currentColor" fill-rule="nonzero" d="M513.423656,66.5278636 C499.318294,66.5278636 490.598363,56.2733182 490.598363,43.3921136 C490.598363,31.0236364 499.638919,20.1281818 513.1041,20.1281818 C520.67085,20.1281818 525.351975,22.3083409 529.839656,26.0886364 L526.57035,29.9340909 C523.108669,26.9218182 519.259031,24.8068182 512.912794,24.8068182 C502.973419,24.8068182 495.856613,33.2027273 495.856613,43.2639318 C495.856613,54.0312045 502.71585,61.9774091 513.618169,61.9774091 C518.7471,61.9774091 523.49235,59.9916591 526.57035,57.4921136 L526.57035,46.3402955 L512.912794,46.3402955 L512.912794,41.7898409 L531.442781,41.7898409 L531.442781,59.6701364 C527.274656,63.3874091 520.991475,66.5278636 513.423656,66.5278636"/>
    <polygon fill="currentColor" fill-rule="nonzero" points="576.17 20.897 581.108 20.897 581.108 65.759 577.069 65.759 548.085 28.973 548.085 65.759 543.148 65.759 543.148 20.897 547.892 20.897 576.17 56.85"/>
    <path fill="currentColor" fill-rule="nonzero" d="M59.912471 11.6134019C57.5669602 9.32914801 55.147412 7.49678288 52.6813422 6L23 36.0123826 59.5804373 73C59.9001314 72.6933868 60.2263499 72.408859 60.5416471 72.0853233 67.4668398 65.083414 72 55.4097537 72 42.0411034 72 28.8003759 67.3398982 18.8701529 59.912471 11.6134019M20.0965959 38L0 58.1064391 0 84 27.6025169 84C33.9261413 84 46.1334658 83.2869434 57 74.9208063L20.0965959 38zM49 3.94754955C41.7100696.71105017 34.1241566 0 26.8076049 0L0 0 0 52 49 3.94754955z"/>
  </g>
</svg>
