<svg xmlns="http://www.w3.org/2000/svg" viewBox="0 0 229.1 49.37">
<g>
<path fill-rule="evenodd" fill="currentColor" d="M26.06,31.07v6.65H0V0H7.59V31.07Z"></path>
<path fill-rule="evenodd" fill="currentColor" d="M52.28,25.9h-19c.55,4.12,3,6.21,6.49,6.21s5-1.87,5.39-3.3h7C51.29,33.49,47.55,38,39.41,38S26,32.33,26,24.3s5.66-13.8,13.47-13.8c8.19,0,12.76,5.72,12.76,14ZM33.42,21.55H45.24c-.49-3.85-2.58-5.44-5.66-5.44S34.13,17.82,33.42,21.55Z"></path>
<path fill-rule="evenodd" fill="currentColor" d="M81,10.78V37.72c0,6.54-5,11.65-13.8,11.65-7.31,0-12.15-2.86-12.76-8.91h7.09c.44,2.25,2.36,3.19,5.66,3.19,4.18,0,6.27-2.53,6.27-5.66V33.82c-1.48,2.47-4.07,4.12-8.08,4.12-7.2,0-11.88-5.72-11.88-13.64,0-8.74,5.5-13.8,12.15-13.8,4,0,6.49,1.54,7.86,3.74l.22-3.47ZM73.48,25V23.43a6.43,6.43,0,0,0-6.26-6.6h-.06c-3.52,0-6,3-6,7.48s2.47,7.32,6,7.32a6.41,6.41,0,0,0,6.32-6.5S73.48,25,73.48,25Z"></path>
<path fill-rule="evenodd" fill="currentColor" d="M116.66,37.44a13.68,13.68,0,0,1-3.9.55c-5.44,0-7.59-2.42-9.51-6.1l-4.18-8H93V37.72H85.38V0h15C108.8,0,114,4.29,114,12a10.88,10.88,0,0,1-6.93,10.67l3.47,6.82a3.66,3.66,0,0,0,3.52,2.36,7.2,7.2,0,0,0,2.14-.28ZM93,18h7.37c4-.06,6-2.36,6-5.88s-2-5.83-6-5.83H93Z"></path>
<path fill-rule="evenodd" fill="currentColor" d="M143.94,24.14c0,8.09-5.5,13.86-13.86,13.86s-13.8-5.5-13.8-13.58,5.55-13.91,13.8-13.91S143.94,16.06,143.94,24.14Zm-20.07.17c0,4.45,2.48,7.48,6.21,7.48s6.21-3,6.21-7.48-2.36-7.59-6.21-7.59-6.21,3-6.21,7.58Z"></path>
<path fill-rule="evenodd" fill="currentColor" d="M172.71,24.14c0,8.09-5.5,13.86-13.86,13.86s-13.8-5.5-13.8-13.58,5.55-13.91,13.8-13.91S172.71,16.06,172.71,24.14Zm-20.07.17c0,4.45,2.48,7.48,6.21,7.48s6.21-3,6.21-7.48-2.36-7.59-6.21-7.59-6.21,3-6.21,7.58Z"></path>
<path fill-rule="evenodd" fill="currentColor" d="M216.54,20.73v17h-7.59V22.38c0-3.41-1.7-5.33-4.45-5.33-3,0-5.12,2.26-5.12,5.61V37.72h-7.53V22.38c0-3.35-1.65-5.33-4.45-5.33-3,0-5.12,2.26-5.12,5.61V37.72h-7.53V10.78H182l.22,3.9a8.88,8.88,0,0,1,7.92-4.18,8.47,8.47,0,0,1,8.47,5.61,9,9,0,0,1,8.74-5.61C213.35,10.5,216.54,14.73,216.54,20.73Z"></path>
<path fill-rule="evenodd" fill="currentColor" d="M229.1,33.49a4.73,4.73,0,1,1-4.73-4.73A4.73,4.73,0,0,1,229.1,33.49Z"></path>
</g>
</svg>