<svg xmlns="http://www.w3.org/2000/svg" viewBox="0 0 230 20">
  <path fill="currentColor" fill-rule="evenodd" d="M22.71,17.913 L15.957,17.913 L15.957,12.213 L22.711,12.213 L22.711,10.8 L15.958,10.8 L15.958,6.255 L22.77,6.255 L22.77,4.835 L14.52,4.835 L14.52,19.335 L22.712,19.335 L22.712,17.913 L22.71,17.913 Z M9.4,17.897 L1.526,17.897 L1.526,0 L0.098,0 L0.098,19.333 L9.402,19.333 L9.402,17.896 L9.4,17.897 Z M77.373,12.97 L85.957,12.97 L88.977,19.33 L90.509,19.33 L81.782,0.497 L81.627,0.497 L72.785,19.33 L74.389,19.33 L77.372,12.97 L77.373,12.97 Z M81.698,3.773 L85.362,11.597 L78.022,11.597 L81.698,3.773 Z M200.568,14.413 C201.112,14.413 201.636,14.318 202.126,14.123 C202.596,13.937 203.196,13.553 203.916,12.977 L205.078,14.18 L206.744,14.18 L206.349,13.745 C206.157,13.529 205.942,13.301 205.696,13.059 C205.366,12.722 205.088,12.447 204.854,12.225 C205.138,12.017 205.441,11.765 205.76,11.485 L205.965,11.305 L205.147,10.437 L204.96,10.605 C204.71,10.822 204.393,11.081 204.003,11.369 L201.911,9.183 C202.496,8.673 202.885,8.256 203.095,7.917 C203.325,7.545 203.441,7.189 203.441,6.857 C203.441,6.537 203.351,6.233 203.171,5.947 C202.988,5.662 202.728,5.437 202.391,5.277 C202.051,5.11 201.684,5.027 201.287,5.027 C200.654,5.027 200.109,5.217 199.677,5.587 C199.297,5.917 199.101,6.337 199.101,6.834 C199.101,7.124 199.181,7.421 199.331,7.728 C199.471,8.01 199.761,8.426 200.221,8.988 C199.389,9.658 198.824,10.23 198.543,10.681 C198.243,11.161 198.089,11.651 198.089,12.131 C198.089,12.791 198.314,13.324 198.774,13.761 C199.229,14.194 199.829,14.411 200.57,14.411 L200.568,14.413 Z M200.546,6.413 C200.723,6.271 200.958,6.203 201.246,6.203 C201.556,6.203 201.8,6.271 201.974,6.405 C202.144,6.535 202.229,6.675 202.229,6.837 C202.229,6.997 202.157,7.18 202.017,7.387 C201.817,7.685 201.531,7.985 201.151,8.29 C200.834,7.914 200.581,7.568 200.401,7.253 C200.331,7.133 200.296,6.997 200.296,6.859 C200.296,6.686 200.373,6.539 200.546,6.411 L200.546,6.413 Z M199.619,11.193 C199.841,10.87 200.295,10.45 201.003,9.903 C201.277,10.217 201.526,10.497 201.753,10.733 L203.08,12.11 C202.513,12.555 202,12.878 201.557,13.074 C200.897,13.356 200.149,13.328 199.677,12.898 C199.41,12.655 199.284,12.384 199.284,12.072 C199.284,11.81 199.398,11.516 199.619,11.192 L199.619,11.193 Z M31.109,19.333 L35.464,8.36 L39.738,19.333 L40.004,19.333 L44.142,4.833 L42.676,4.833 L39.686,15.281 L35.603,4.835 L35.305,4.835 L31.175,15.282 L28.235,4.836 L26.755,4.836 L30.838,19.336 L31.11,19.336 L31.109,19.333 Z M166.307,19.695 C168.417,19.695 170.205,18.955 171.667,17.481 C173.137,16.006 173.873,14.201 173.873,12.077 C173.873,9.937 173.136,8.137 171.665,6.667 C170.197,5.204 168.372,4.47 166.189,4.47 C164.843,4.47 163.595,4.807 162.435,5.477 C161.281,6.155 160.369,7.085 159.701,8.272 C159.028,9.464 158.696,10.754 158.696,12.146 C158.696,14.238 159.432,16.016 160.898,17.49 C162.368,18.965 164.171,19.695 166.306,19.695 L166.307,19.695 Z M160.99,8.977 C161.53,8.03 162.272,7.275 163.224,6.719 C164.178,6.155 165.19,5.879 166.254,5.879 C167.337,5.879 168.366,6.155 169.334,6.719 C170.301,7.274 171.049,8.022 171.584,8.955 C172.112,9.879 172.381,10.925 172.381,12.072 C172.381,13.232 172.113,14.282 171.585,15.232 C171.05,16.176 170.312,16.924 169.357,17.467 C168.407,18.017 167.371,18.29 166.253,18.29 C164.583,18.29 163.153,17.695 161.963,16.506 C160.78,15.321 160.187,13.866 160.187,12.138 C160.189,10.976 160.453,9.923 160.991,8.978 L160.99,8.977 Z M179.26,8.355 L188.76,19.333 L189.08,19.333 L189.08,4.833 L187.664,4.833 L187.664,15.947 L178.084,4.834 L177.768,4.834 L177.768,19.334 L179.258,19.334 L179.258,8.353 L179.26,8.355 Z M214.87,14.415 C215.726,14.415 216.516,14.25 217.214,13.923 C217.877,13.613 218.442,13.173 218.89,12.623 L219.064,12.413 L218.12,11.69 L217.96,11.874 C217.144,12.792 216.125,13.254 214.93,13.254 C213.81,13.254 212.872,12.889 212.145,12.17 C211.41,11.456 211.041,10.544 211.041,9.47 C211.041,8.76 211.208,8.11 211.534,7.54 C211.86,6.973 212.324,6.514 212.924,6.176 C214.062,5.528 215.53,5.516 216.647,6.056 C217.147,6.296 217.589,6.652 217.959,7.11 L218.119,7.31 L219.062,6.58 L218.904,6.372 C218.468,5.787 217.902,5.324 217.236,4.995 C216.533,4.645 215.736,4.47 214.862,4.47 C213.416,4.47 212.197,4.947 211.24,5.89 C210.28,6.83 209.793,8.01 209.793,9.39 C209.793,10.698 210.196,11.83 210.993,12.76 C211.933,13.858 213.241,14.414 214.873,14.414 L214.87,14.415 Z M229.165,14.43 C229.395,14.43 229.598,14.347 229.757,14.18 C229.917,14.02 230,13.815 230,13.59 C230,13.357 229.915,13.15 229.757,12.99 C229.439,12.664 228.889,12.672 228.577,12.99 C228.417,13.15 228.335,13.357 228.335,13.59 C228.335,13.815 228.415,14.02 228.575,14.18 C228.733,14.346 228.939,14.43 229.165,14.43 Z M223.915,14.473 C224.982,14.473 225.899,14.093 226.645,13.343 C227.395,12.593 227.773,11.666 227.773,10.588 C227.773,9.502 227.393,8.574 226.643,7.831 C225.895,7.083 224.96,6.708 223.86,6.708 C223.176,6.708 222.53,6.881 221.938,7.224 C221.356,7.564 220.888,8.046 220.543,8.649 C220.208,9.253 220.031,9.919 220.031,10.622 C220.031,11.684 220.413,12.6 221.159,13.349 C221.902,14.095 222.829,14.475 223.915,14.475 L223.915,14.473 Z M221.611,9.245 C221.846,8.83 222.164,8.512 222.585,8.265 C222.988,8.027 223.425,7.905 223.888,7.905 C224.364,7.905 224.803,8.023 225.223,8.27 C225.638,8.512 225.969,8.838 226.196,9.236 C226.428,9.632 226.541,10.086 226.541,10.586 C226.541,11.096 226.431,11.543 226.196,11.959 C225.963,12.372 225.644,12.687 225.233,12.922 C224.82,13.159 224.379,13.276 223.888,13.276 C223.158,13.276 222.552,13.024 222.034,12.506 C221.514,11.99 221.264,11.37 221.264,10.616 C221.264,10.112 221.378,9.651 221.612,9.244 L221.611,9.245 Z M152.431,17.951 C152.006,18.176 151.555,18.286 151.073,18.286 C149.943,18.286 148.949,17.491 148.083,15.896 L146.863,16.631 C147.465,17.736 148.115,18.525 148.83,18.995 C149.54,19.463 150.33,19.695 151.207,19.695 C152.341,19.695 153.307,19.308 154.099,18.533 C154.891,17.759 155.287,16.845 155.287,15.793 C155.287,15.067 155.052,14.341 154.595,13.616 C154.131,12.892 153.275,12.069 152.03,11.146 C150.982,10.363 150.36,9.881 150.168,9.694 C149.824,9.351 149.588,9.024 149.456,8.728 C149.322,8.433 149.261,8.13 149.261,7.811 C149.261,7.294 149.446,6.859 149.821,6.501 C150.183,6.147 150.661,5.971 151.237,5.971 C151.689,5.971 152.107,6.088 152.487,6.316 C152.867,6.546 153.33,7.02 153.874,7.743 L155.05,6.847 C154.386,5.939 153.765,5.319 153.172,4.979 C152.582,4.641 151.945,4.469 151.264,4.469 C150.626,4.469 150.034,4.619 149.491,4.919 C148.951,5.215 148.526,5.627 148.225,6.147 C147.925,6.663 147.771,7.243 147.771,7.871 C147.771,8.665 148.029,9.407 148.541,10.091 C148.833,10.494 149.581,11.157 150.778,12.069 C151.973,12.979 152.796,13.753 153.244,14.397 C153.574,14.865 153.734,15.337 153.734,15.825 C153.734,16.248 153.622,16.655 153.404,17.039 C153.178,17.419 152.854,17.719 152.432,17.952 L152.431,17.951 Z M60.059,17.951 C59.635,18.176 59.179,18.286 58.699,18.286 C57.566,18.286 56.574,17.491 55.713,15.896 L54.487,16.631 C55.089,17.736 55.741,18.525 56.457,18.995 C57.167,19.463 57.959,19.695 58.83,19.695 C59.972,19.695 60.933,19.308 61.728,18.533 C62.518,17.759 62.918,16.845 62.918,15.793 C62.918,15.067 62.685,14.341 62.222,13.616 C61.757,12.892 60.906,12.069 59.655,11.146 C58.605,10.363 57.985,9.881 57.795,9.694 C57.45,9.351 57.212,9.024 57.083,8.728 C56.956,8.433 56.885,8.13 56.885,7.811 C56.885,7.294 57.071,6.859 57.438,6.501 C57.806,6.147 58.285,5.971 58.861,5.971 C59.318,5.971 59.734,6.088 60.111,6.316 C60.496,6.546 60.956,7.02 61.499,7.743 L62.671,6.847 C62.011,5.939 61.391,5.319 60.801,4.979 C60.209,4.641 59.575,4.469 58.898,4.469 C58.256,4.469 57.665,4.619 57.12,4.919 C56.572,5.215 56.148,5.627 55.85,6.147 C55.55,6.663 55.4,7.243 55.4,7.871 C55.4,8.665 55.657,9.407 56.165,10.091 C56.457,10.494 57.205,11.157 58.403,12.069 C59.601,12.979 60.418,13.753 60.87,14.397 C61.2,14.865 61.362,15.337 61.362,15.825 C61.362,16.248 61.25,16.655 61.028,17.039 C60.803,17.419 60.478,17.719 60.058,17.952 L60.059,17.951 Z M50.362,4.835 L48.922,4.835 L48.922,19.335 L50.362,19.335 L50.362,4.835 Z M101.598,17.936 L96.058,17.936 L96.058,4.834 L94.62,4.834 L94.62,19.334 L101.598,19.334 L101.598,17.936 Z M130.318,17.913 L123.568,17.913 L123.568,12.213 L130.318,12.213 L130.318,10.8 L123.568,10.8 L123.568,6.255 L130.378,6.255 L130.378,4.835 L122.128,4.835 L122.128,19.335 L130.318,19.335 L130.318,17.913 Z M114.963,18.543 C115.953,18.018 116.769,17.203 117.39,16.1 C118.01,14.994 118.322,13.718 118.322,12.265 C118.322,10.585 117.932,9.135 117.142,7.92 C116.356,6.705 115.266,5.85 113.872,5.358 C112.898,5.008 111.332,4.835 109.182,4.835 L106.195,4.835 L106.195,19.335 L110.775,19.335 C112.573,19.333 113.968,19.072 114.963,18.543 Z M107.576,17.963 L107.576,6.254 L108.592,6.254 C110.664,6.254 112.148,6.388 113.05,6.666 C114.25,7.03 115.186,7.712 115.86,8.703 C116.53,9.693 116.868,10.889 116.868,12.29 C116.868,13.625 116.556,14.75 115.935,15.674 C115.317,16.597 114.465,17.234 113.383,17.588 C112.609,17.838 111.231,17.962 109.241,17.962 L107.577,17.962 L107.576,17.963 Z M136.696,12.597 L137.508,12.597 L142.688,19.334 L144.465,19.334 L139.288,12.597 C140.495,12.597 141.443,12.44 142.126,12.134 C142.81,11.826 143.336,11.374 143.709,10.777 C144.072,10.177 144.259,9.482 144.259,8.695 C144.259,7.747 143.991,6.947 143.459,6.302 C142.922,5.654 142.229,5.234 141.373,5.03 C140.806,4.9 139.723,4.834 138.125,4.834 L135.25,4.834 L135.25,19.334 L136.694,19.334 L136.694,12.597 L136.696,12.597 Z M136.696,6.255 L139.236,6.255 C140.223,6.255 140.932,6.34 141.348,6.511 C141.776,6.683 142.12,6.971 142.378,7.366 C142.643,7.762 142.772,8.203 142.772,8.689 C142.772,9.189 142.642,9.642 142.384,10.043 C142.126,10.45 141.768,10.741 141.309,10.923 C140.843,11.113 140.137,11.203 139.176,11.203 L136.694,11.183 L136.694,6.254 L136.696,6.255 Z"/>
</svg>
