<svg viewBox="0 0 100 69" xmlns="http://www.w3.org/2000/svg" ><path fill="currentColor" fill-rule="evenodd" d="M6.9 3.7H0v30.7h20.1v-6.1H6.9V3.7zm22.6 7.1h-6.8v23.6h6.8V10.8zm20.8 0L44.8 28l-5.6-17.2h-7l9 23.6h6.9L57 10.8h-6.7zm18.3 23.9c4.3 0 7.7-1.5 10.1-4.2l-3.6-3.6c-1.6 1.6-3.7 2.5-6 2.5-3 0-5.3-1.8-6.1-4.7h16.9c.6-8.6-3.3-14.1-11.6-14.1-7.2 0-12.2 4.8-12.2 12.1.2 7.1 5 12 12.5 12zm-.1-19.2c3.1 0 5.1 2 5.2 5.1H63c.5-3 2.5-5.1 5.5-5.1zM6.9 38.3H0V69h20.1v-6.1H6.9V38.3zm26.7 6.8c-7.2 0-12.2 4.8-12.2 12.1 0 7.2 4.8 12 12.3 12 4.3 0 7.7-1.5 10.1-4.2l-3.6-3.6c-1.6 1.6-3.7 2.5-6 2.5-3 0-5.3-1.8-6.1-4.7H45c.7-8.6-3.1-14.1-11.4-14.1zm-5.5 10.1c.5-3.1 2.5-5.1 5.5-5.1 3.1 0 5.1 2 5.2 5.1H28.1zm35-10.1c-3.7 0-6.5 1.4-8.2 4.4v-4.1h-6.8V69h6.8V57.3c0-3.5 2-6 5.4-6.1 2.9 0 4.7 1.8 4.7 4.8v13h6.8V54.1c-.1-5.5-3.4-9-8.7-9zm30.2-8.7v12.4c-1.7-2.4-4.3-3.7-7.6-3.7-6.6 0-11 4.8-11 12 0 7.3 4.4 12.2 11.1 12.2 3.2 0 5.8-1.3 7.5-3.7V69h6.7V36.4h-6.7zm-5.9 27.4c-3.6 0-5.9-2.7-6-6.5 0-3.8 2.5-6.5 6-6.5s5.9 2.7 5.9 6.5-2.4 6.5-5.9 6.5z"></path><circle fill="currentColor" fill-rule="evenodd" cx="26.2" cy="3.8" r="3.8"></circle></svg>