<svg xmlns="http://www.w3.org/2000/svg" viewBox="0 0 352 168">
  <path fill="currentColor" fill-rule="evenodd" d="M344.044 20.613c.635.103 1.14.093 1.511-.029.37-.12.667-.374.888-.758.221-.384.397-.91.526-1.574.128-.667.268-1.49.419-2.475l-61.023-9.909c-.15.984-.263 1.812-.339 2.487-.075.673-.066 1.228.032 1.664.096.437.303.77.62 1.003.317.234.794.404 1.43.506l55.936 9.085zm-56.736-3.836c-1.59-.259-2.77-.758-3.537-1.5a5.345 5.345 0 01-1.525-2.683c-.247-1.049-.308-2.208-.183-3.476.125-1.268.288-2.558.489-3.87l.8-5.248L352 11.149l-.799 5.247a75.708 75.708 0 01-.688 3.838c-.258 1.247-.661 2.33-1.208 3.25a5.205 5.205 0 01-2.25 2.072c-.952.46-2.223.564-3.812.306l-55.935-9.085zM345.498 47L281 25.958 282.502 21 347 42.043zm-56.242 1.803c2.547 1.217 4.796 2.13 6.748 2.737 1.952.61 3.71 1.018 5.271 1.234 1.563.214 2.973.256 4.23.129l3.65-.37c1.178-.122 2.343-.24 3.493-.358s2.394-.123 3.729-.019c1.334.104 2.804.376 4.406.817 1.603.439 3.439 1.154 5.504 2.142l8.688 4.152c.576.276 1.188.68 1.836 1.212a5.95 5.95 0 011.567 2.02c.397.81.605 1.778.621 2.9.018 1.12-.314 2.407-1 3.86-.683 1.454-1.46 2.527-2.333 3.225-.873.695-1.746 1.144-2.623 1.349a5.87 5.87 0 01-2.54.052c-.82-.169-1.517-.39-2.094-.666l-16.147-7.72 2.188-4.652 16.147 7.72c.578.278 1.083.437 1.519.482.435.044.806.007 1.112-.112.308-.12.568-.3.783-.54a3.24 3.24 0 00.805-1.707 2.08 2.08 0 00-.082-.95c-.1-.315-.306-.628-.615-.94-.308-.31-.75-.604-1.326-.878l-7.015-3.355c-2.71-1.294-5.086-2.142-7.13-2.543-2.044-.401-3.91-.571-5.597-.514a61.08 61.08 0 00-4.771.344c-1.494.168-3.04.344-4.638.527-1.598.18-3.347.08-5.247-.301-1.9-.383-4.113-1.178-6.64-2.385l-14.084-6.734c-.29-.139-.796-.424-1.52-.86-.723-.436-1.381-1.062-1.97-1.877-.59-.817-.969-1.843-1.138-3.081-.169-1.237.156-2.73.978-4.474.82-1.743 1.76-2.94 2.816-3.593 1.057-.652 2.085-1.005 3.083-1.062.998-.057 1.893.06 2.684.348.791.289 1.332.504 1.62.641l20.762 9.927-2.19 4.65-20.761-9.926a17.51 17.51 0 00-1.045-.455 4.05 4.05 0 00-1.254-.29 2.435 2.435 0 00-1.244.253c-.4.192-.738.58-1.01 1.161-.276.582-.36 1.09-.255 1.527.103.435.302.81.595 1.13.29.316.629.583 1.014.797.386.212.723.39 1.01.528l9.41 4.498zm5.81 35.627l2.893-4.077 17.363 12.273c.511.361.972.6 1.384.715.414.116.777.144 1.094.08.317-.064.6-.192.846-.382a3.123 3.123 0 001.063-1.496 2 2 0 00.081-.923c-.047-.32-.192-.656-.44-1.004-.246-.351-.624-.706-1.135-1.067l-44.937-31.765a18.222 18.222 0 00-.933-.611 3.91 3.91 0 00-1.165-.488 2.415 2.415 0 00-1.242.03c-.42.118-.81.432-1.171.941-.363.51-.53.982-.502 1.416.028.433.156.828.384 1.18.23.353.512.666.848.935.336.269.63.494.886.674l21.448 15.16-2.894 4.077-21.447-15.16c-.256-.181-.696-.54-1.321-1.077-.625-.538-1.154-1.245-1.583-2.123-.432-.88-.624-1.926-.58-3.137.047-1.21.61-2.582 1.697-4.111 1.084-1.528 2.192-2.514 3.323-2.96 1.13-.444 2.181-.61 3.154-.495.975.115 1.82.376 2.534.785.716.412 1.2.706 1.457.886l44.938 31.766c.977.692 1.696 1.47 2.152 2.334.458.866.702 1.748.734 2.65a7.338 7.338 0 01-.4 2.657 9.469 9.469 0 01-1.242 2.422 9.158 9.158 0 01-1.966 2.03 7.293 7.293 0 01-2.443 1.214 6.253 6.253 0 01-2.729.128c-.942-.156-1.873-.558-2.787-1.204l-17.362-12.272zm-35.208-12.31a18.217 18.217 0 00-.823-.774 4.003 4.003 0 00-1.08-.695 2.507 2.507 0 00-1.253-.196c-.444.04-.895.28-1.354.715-.458.438-.713.873-.766 1.308-.054.433.002.844.166 1.235.164.39.39.75.677 1.077.288.326.543.603.765.828l39.244 39.564c.222.225.475.457.753.704.28.243.584.418.912.526.327.104.691.115 1.088.026.397-.085.824-.349 1.283-.787.458-.436.736-.85.836-1.236.101-.387.101-.741.001-1.066a2.497 2.497 0 00-.51-.908c-.24-.28-.472-.533-.696-.758l-39.243-39.564zm-7.334 6.996c-.224-.223-.599-.66-1.127-1.303-.528-.645-.926-1.44-1.196-2.386-.269-.946-.268-2.014.002-3.203.272-1.189 1.096-2.438 2.47-3.751 1.375-1.311 2.671-2.084 3.891-2.318 1.218-.233 2.306-.203 3.264.086.957.29 1.757.704 2.398 1.239.644.535 1.075.915 1.299 1.14l39.244 39.564c.148.15.361.384.64.702.278.317.55.705.818 1.162.266.456.475.984.626 1.588.153.602.186 1.255.101 1.956-.086.701-.345 1.45-.781 2.248-.436.799-1.11 1.635-2.028 2.51-.917.874-1.787 1.515-2.614 1.918-.824.405-1.596.64-2.312.705a5.656 5.656 0 01-1.991-.152 6.346 6.346 0 01-1.602-.66 7.697 7.697 0 01-1.162-.834 17.516 17.516 0 01-.697-.646l-39.243-39.565zM277.884 138L241.27 84.118l-4.117 2.949L235 83.896 243.231 78 282 135.051zm-20.597 13L224 89.389 228.712 87 262 148.613zm-32.257-23.748l11.51 28.095-9.108-28.945-4.593-14.46-3.564 1.262 5.755 14.048zM207 96.104l4.8-1.7 6.186 15.236 3.563-1.264-4.945-15.674 4.8-1.702L241 156.45l-7.202 2.55L207 96.104zm-6.411 71.174l-4.545.722L185 99.079l4.845-.769 6.737 47.355-2.547-44.094 2.413-.384 9.808 42.823-6.721-47.24 4.845-.77 8.62 69.307-5.107.811-10.421-47.009zm-50.529-7.165c-.09.637-.08 1.14.037 1.51.119.37.359.666.72.884.365.218.859.388 1.485.513.626.124 1.403.257 2.33.4l8.873-61.087a56.492 56.492 0 00-2.341-.32c-.634-.071-1.156-.056-1.565.043a1.536 1.536 0 00-.94.627c-.217.32-.371.796-.466 1.433l-8.133 55.997zm3.193-56.759c.23-1.59.694-2.774 1.384-3.548a4.989 4.989 0 012.513-1.544c.986-.254 2.074-.324 3.267-.207 1.193.116 2.408.269 3.643.46l4.94.763L159.018 168l-4.94-.763a65.99 65.99 0 01-3.614-.658c-1.174-.25-2.197-.643-3.066-1.184a5.132 5.132 0 01-1.965-2.233c-.44-.952-.545-2.22-.314-3.812l8.134-55.996zM121 158.536L141.933 94 147 95.462 126.068 160zm.118-53.275c-1.21 2.55-2.112 4.8-2.712 6.752-.6 1.95-1 3.705-1.203 5.267-.206 1.559-.238 2.965-.099 4.217l.403 3.64.387 3.48c.128 1.147.143 2.386.049 3.718-.095 1.331-.36 2.8-.79 4.402-.433 1.601-1.141 3.436-2.123 5.506l-4.126 8.695c-.273.577-.677 1.19-1.21 1.84-.531.65-1.208 1.176-2.025 1.578-.818.402-1.793.617-2.925.643-1.131.025-2.433-.3-3.906-.97-1.472-.671-2.563-1.438-3.273-2.302-.71-.865-1.173-1.733-1.383-2.607a5.747 5.747 0 01-.075-2.534c.163-.817.382-1.514.657-2.091l7.672-16.165 4.713 2.148-7.672 16.164c-.273.578-.43 1.084-.474 1.517-.04.435 0 .804.123 1.11.125.304.308.563.55.776.242.214.51.387.806.52.295.135.603.223.926.27.321.044.641.014.957-.089.32-.103.634-.31.946-.62.31-.31.603-.754.877-1.33l3.333-7.02c1.287-2.713 2.124-5.09 2.514-7.132.388-2.041.548-3.903.474-5.586a60.028 60.028 0 00-.381-4.755c-.184-1.489-.374-3.029-.568-4.622-.196-1.593-.11-3.337.262-5.234.371-1.899 1.156-4.111 2.357-6.642l6.69-14.097c.138-.29.424-.796.858-1.522.434-.725 1.062-1.385 1.88-1.978.82-.594 1.854-.98 3.102-1.16 1.25-.177 2.758.136 4.525.942 1.768.806 2.985 1.732 3.651 2.783.666 1.049 1.032 2.071 1.097 3.067.065.994-.046 1.888-.331 2.678-.287.792-.498 1.333-.635 1.62l-9.864 20.782-4.713-2.148 9.864-20.782c.137-.287.288-.636.45-1.045.165-.407.258-.825.282-1.253a2.416 2.416 0 00-.262-1.239c-.198-.398-.593-.73-1.184-1-.588-.268-1.102-.348-1.54-.241-.44.107-.82.307-1.137.6-.32.294-.585.633-.798 1.019a19.58 19.58 0 00-.524 1.012l-4.472 9.418zm-35.61 4.875l4.127 2.853-12.23 17.387c-.36.512-.596.972-.71 1.384-.115.413-.14.776-.074 1.091a2 2 0 00.392.84c.195.247.42.458.68.635.257.178.537.317.836.412.3.096.61.121.93.075.32-.048.657-.197 1.008-.444.35-.25.707-.63 1.065-1.142l31.656-45.002c.18-.255.382-.565.608-.932.226-.366.386-.754.483-1.164.095-.407.082-.82-.04-1.237-.123-.417-.44-.804-.957-1.16-.515-.357-.992-.52-1.43-.49a2.47 2.47 0 00-1.185.39 3.978 3.978 0 00-.934.853c-.268.337-.494.632-.672.889L93.95 106.85 89.824 104l15.11-21.48c.178-.255.538-.696 1.073-1.324.537-.625 1.246-1.157 2.127-1.592.882-.436 1.934-.637 3.154-.6 1.22.036 2.604.588 4.153 1.659 1.548 1.07 2.55 2.166 3.005 3.289.456 1.122.632 2.168.522 3.14-.107.97-.365 1.813-.771 2.528-.408.716-.702 1.203-.883 1.458L85.659 136.08c-.688.98-1.466 1.701-2.334 2.163-.867.46-1.755.711-2.661.75a7.41 7.41 0 01-2.68-.38 9.608 9.608 0 01-2.451-1.217 9.222 9.222 0 01-2.057-1.946 7.266 7.266 0 01-1.242-2.425 6.19 6.19 0 01-.15-2.716c.151-.941.548-1.87 1.194-2.786l12.23-17.387zm10.354-36.343c.225-.224.482-.498.771-.824.29-.327.52-.685.69-1.079.17-.392.233-.809.19-1.25-.045-.44-.288-.887-.73-1.34-.445-.452-.883-.703-1.32-.752-.435-.05-.85.008-1.242.175a3.973 3.973 0 00-1.077.681c-.326.289-.601.544-.826.767l-39.48 39.332c-.223.224-.457.475-.701.754-.243.28-.416.584-.52.91-.106.328-.113.689-.021 1.084.089.393.356.817.799 1.269.444.453.86.728 1.25.823.388.097.746.094 1.071-.006.326-.1.63-.272.91-.515s.532-.475.756-.699l39.48-39.33zm-7.088-7.243c.225-.224.659-.6 1.302-1.13.646-.531 1.443-.933 2.391-1.208.95-.276 2.022-.282 3.218-.02 1.198.259 2.46 1.069 3.789 2.427 1.329 1.357 2.115 2.641 2.358 3.853.243 1.21.223 2.292-.062 3.246-.284.953-.694 1.752-1.228 2.395-.533.645-.911 1.078-1.136 1.3l-39.48 39.332c-.15.15-.384.364-.701.642a7.33 7.33 0 01-1.162.821c-.455.27-.987.482-1.591.638a5.432 5.432 0 01-1.965.114c-.705-.079-1.461-.332-2.267-.758-.804-.43-1.65-1.094-2.535-2-.888-.905-1.538-1.766-1.95-2.585-.412-.818-.654-1.582-.724-2.296a5.594 5.594 0 01.138-1.981c.162-.608.378-1.14.651-1.597.272-.458.55-.844.829-1.162.281-.316.496-.55.646-.699L88.774 66.55zM32 93.937l53.84-36.715-2.994-4.062L86.014 51 92 59.125 34.994 98zM21 73.36L80.647 40 83 44.642 23.355 78zm19.726-32.337l-28.05 11.569 28.92-9.206 14.445-4.64-1.292-3.507-14.023 5.784zM71.781 23l1.74 4.725-15.21 6.217 1.29 3.506 15.661-5L77 37.172 11.609 57 9 49.914 71.78 23zM.756 15.801L0 11.331 68.778 0l.804 4.762L22.32 11.71l44.037-2.803.401 2.371-42.71 9.941 47.146-6.932.806 4.762L2.821 28l-.851-5.021 46.888-10.572z"/>
</svg>