<svg xmlns="http://www.w3.org/2000/svg" viewBox="0 0 122.12 17.63"><path fill="currentColor" fill-rule="evenodd" d="M2.36 1.07v13.4h4.59v2.22H0V1.07zM12.65 8.8a7.65 7.65 0 0 1 2.42-5.67A8 8 0 0 1 20.86.76a8.17 8.17 0 0 1 8.12 8.12 7.68 7.68 0 0 1-2.41 5.73 8.25 8.25 0 0 1-11.27.26 7.67 7.67 0 0 1-2.65-6.07zm2.38 0a5.65 5.65 0 0 0 1.74 4.26 5.76 5.76 0 0 0 8.14 0 6.06 6.06 0 0 0 0-8.38 5.82 5.82 0 0 0-8.22 0 5.63 5.63 0 0 0-1.67 4.15zm22.53-7.73v9.41a5.18 5.18 0 0 0 .66 2.94 3.52 3.52 0 0 0 5.53 0 5.09 5.09 0 0 0 .66-2.94V1.07h2.36v10.05a5.63 5.63 0 0 1-1.54 4.07 5.95 5.95 0 0 1-8.49 0 5.63 5.63 0 0 1-1.54-4.07V1.07zm16.85 15.61V0L65.8 11.92V1.07h2.36v16.54L56.77 5.75v10.93zm28.77-8.13h6.45v.52a10.66 10.66 0 0 1-.41 3.12 6.62 6.62 0 0 1-1.37 2.35 7.08 7.08 0 0 1-5.56 2.44 7.61 7.61 0 0 1-5.58-2.37 8.15 8.15 0 0 1 9.25-13.1 9.86 9.86 0 0 1 3 2.43l-1.67 1.61a5.7 5.7 0 0 0-4.68-2.56 5.6 5.6 0 0 0-4.16 1.71 5.71 5.71 0 0 0-1.68 4.21 5.87 5.87 0 0 0 5.67 5.87 4.71 4.71 0 0 0 3.09-1.17 4.18 4.18 0 0 0 1.55-2.83h-3.89zm21.87-5.27h-6.26v3.75h6.08v2.22h-6.08v5.22h6.26v2.22h-8.62V1.07h8.62zm16.67.11l-1.91 1.13a3.29 3.29 0 0 0-1-1.21 2.38 2.38 0 0 0-1.31-.32 2.41 2.41 0 0 0-1.63.56 1.72 1.72 0 0 0-.65 1.38q0 1.14 1.7 1.84l1.56.64a6.65 6.65 0 0 1 2.81 1.86 4.23 4.23 0 0 1 .88 2.72 4.77 4.77 0 0 1-1.44 3.56 4.93 4.93 0 0 1-3.59 1.42 4.8 4.8 0 0 1-3.36-1.2 5.54 5.54 0 0 1-1.63-3.39l2.39-.53a4.06 4.06 0 0 0 .57 1.9 2.69 2.69 0 0 0 4 .27 2.55 2.55 0 0 0 .73-1.87 2.63 2.63 0 0 0-.13-.83 2.12 2.12 0 0 0-.39-.7 3.15 3.15 0 0 0-.69-.6 6.68 6.68 0 0 0-1-.53l-1.51-.63q-3.21-1.36-3.21-4a3.76 3.76 0 0 1 1.35-2.94 4.86 4.86 0 0 1 3.35-1.19 4.68 4.68 0 0 1 4.11 2.66z"></path></svg>