<svg viewBox="0 0 74 25" xmlns="http://www.w3.org/2000/svg">
  <path fill="currentColor" fillrule="evenodd" d="M24.2 16.3C24.2 14.1 25.5 12.9 29.5 12L31.5 11.5V9.7C31.5 7.7 31.1 7.2 29.6 7.2C28.8 7.2 28.7 7.4 28.6 8.1C28.5 9.7 27.9 10.3 26.5 10.3C25.3 10.3 24.8 9.7 24.8 8.7C24.8 7 27 5.9 30.4 5.9C33.6 5.9 35.4 6.9 35.4 9.3V16C35.4 16.9 35.5 17.3 36 17.5C36.3 17.7 36.8 17.7 37.2 17.8V18.7C36.7 19.1 35.7 19.6 34.2 19.6C32.7 19.6 31.8 19 31.6 18.1H31.5C30.9 18.9 29.7 19.6 28 19.6C25.7 19.7 24.2 18.4 24.2 16.3V16.3ZM31.5 17V13L30.2 13.1C28.7 13.2 28 13.9 28 15.7C28 17.3 28.8 17.7 29.8 17.7C30.7 17.7 31.2 17.4 31.5 17ZM37.6 23.9L38.3 23.7C39.1 23.5 39.2 23.4 39.2 22.3V9.6C39.2 8.5 39.1 8.5 38.3 8L37.4 7.4V6.6L42.8 6L43.2 6.2L43 7.7H43.1C44.2 6.8 45.7 6 47.5 6C50 6 52.6 7.6 52.6 12.1C52.6 17.3 49.5 19.6 45.1 19.6C44.5 19.6 43.6 19.5 43 19.3C43 19.3 43.1 20 43.1 20.8V22.1C43.1 23.2 43.2 23.4 44 23.5L45 23.7V24.7H37.6V23.9ZM48.5 13C48.5 9.6 47.3 8.3 45.3 8.3C44.2 8.3 43.5 8.7 43.1 8.9V17.5C43.6 18 44.3 18.4 45.2 18.4C47.4 18.4 48.5 17.4 48.5 13V13ZM61.5 12.8C61.5 8.5 64.8 6 68.2 6C71.8 6 73.9 7.8 74 12.5H65.4C65.6 16.2 67.2 17.4 69.7 17.4C71.4 17.4 72.5 16.9 73.5 16.4V17.5C72.6 18.4 70.7 19.6 68.1 19.6C63.7 19.7 61.5 17.1 61.5 12.8V12.8ZM65.4 11.3L70 11.1C70 8.1 69.6 7.3 68 7.3C66.6 7.2 65.6 8.3 65.4 11.3ZM59.5 17.7C59 17.4 58.9 17.1 58.9 16.2V3.4C58.9 1.7 59.1 0.499997 59.1 0.499997L58.7 0.199997L53.1 0.699997V1.6L54.1 2.1C54.9 2.5 55 2.6 55 3.8V16.9C55 18.1 55.6 19.9 57.8 19.9C59.2 19.9 60.2 19.4 60.7 19V18.1C60.3 17.9 59.8 17.8 59.5 17.7V17.7ZM21.7 16.3V9.4C21.7 7.1 20.5 6 18.5 6C16.6 6 15 6.9 13.6 7.8H13.5C12.9 6.6 12 6 10.4 6C8.6 6 6.9 6.8 5.6 7.8H5.5L5.7 6.3L5.3 6L0 6.6V7.4L0.9 8C1.6 8.5 1.8 8.6 1.8 9.6V19.1C1.8 19.3 2.7 19.7 3.8 19.7C4.9 19.7 5.8 19.3 5.8 19.1V8.8C6.4 8.6 7.2 8.3 8.2 8.3C9.4 8.3 9.9 8.9 9.9 10.4V19C9.9 19.2 10.8 19.6 11.9 19.6C13 19.6 13.9 19.2 13.9 19V8.8C14.5 8.6 15.3 8.3 16.2 8.3C17.4 8.3 17.9 8.9 17.9 10.4V16.7C17.9 17.5 18.2 19.6 20.7 19.6C22.1 19.6 22.8 19.1 23.3 18.7V17.8C22.7 17.9 21.7 18.2 21.7 16.3V16.3Z" />
</svg>
