<svg xmlns="http://www.w3.org/2000/svg" viewBox="0 0 277 44">
  <title>Mirror Lake Inn Resort and Spa - Wordmark Logo</title>
  <path fill-rule="evenodd" fill="currentColor" d="M42.703 1.25c-1.007 2.396-1.664 5.134-3.083 7.126.648-2.676 1.87-4.787 2.642-7.342-1.412-1.799-4.78-.987-5.943.433-.945 2.456-1.772 5.028-3.08 7.124.465-2.434 2.458-4.478 2.2-6.908-2.006-.078-3.778 2.803-6.164 2.374-1.826 4.832-3.656 9.656-5.943 14.034h-1.981c-.59.213-.228 1.36-.66 1.728-6.868-.534-13.47-1.327-20.691-1.512v1.727c.967-.012 1.82.087 2.422.432.995 3.514 1.87 6.366 1.32 11.012-.085.801.893.564.66 1.511-.012 3.011.098 6.14-.22 8.852.927.458 2.682.106 3.963.216.025-3.357.095-6.671.44-9.715 4.624 2.084 8.682 4.724 13.427 6.692-.295-3.653 1.542-8.19-1.322-8.852-2.3-.532-5.632 3.313-7.263.432-2.174 2.378-4.227-.984-7.043-.648-.944.156-.973 2.113-1.762 1.727-.712-1.878.107-3.837 0-5.612-.133-2.223-1.558-3.784-1.54-5.4.762.549 2.086.545 2.641 1.297.463 2.11-.706 2.619-.66 4.318 6.26-.097 11.935.383 18.27.217-.28 5.77-.208 11.887-.661 17.487h3.52c.09-.92-.212-2.224.222-2.806h2.64c.322-2.19-2.477-2.46-2.42-3.67 2.209.439 1.076-2.4 2.64-2.592.18 1.183-.733 1.295-.66 2.376 2.086.544 4.831.443 6.163 1.727.82.23.35-.81 1.1-.648 3.151 1.948 6.364 3.834 9.686 5.613 1.024-6.478-5.934-6.986-8.585-10.579 1.746-3.83 2.935-8.205 4.842-11.875 1.26-.155 1.967.23 3.082.216.521-2.022-1.52-1.53-2.64-1.943 1.9-4.901 3.92-9.684 5.722-14.68-2.276-.792-3.212-2.895-5.281-3.89zM5.114 32.592c.819 2.114.794 7.113-.234 8.963.462-2.638.138-5.992.234-8.963zm-4.3-13.816c.49.148 1.434-.3 1.626.238-.02.944-1.638.388-1.627-.238zm36.422-16.73c1.283-.624 2.757-2.019 4.243-.65-2.513 5.998-4.904 12.114-7.366 18.16-1.147-.333-2.876-.1-4.02-.433 2.42-5.655 4.822-11.327 7.143-17.078zm-1.45 16.694c.113-2.004 1.854-4.235 2.386-6.519.408 1.704-1.6 4.593-2.386 6.52zm-6.507 0c.108-1.996 1.664-4.452 2.44-6.519-.148 1.96-1.768 4.35-2.44 6.52zm.542-14.098c2.08-.088 3.211-1.141 4.338-2.198-1.188 5.39-4.189 10.849-6.072 16.27-1.476.103-2.653-.098-3.687-.44 1.913-4.437 3.77-8.93 5.42-13.632zM24.4 19.488c-.885.004-1.83.078-2.44-.238.57-.385 2.127-1.03 2.44.238zm-15.2.882c4.369.448 9.119.52 13.573.884a49.876 49.876 0 0 0-1.335 3.984c-4.357.128-8.066-.388-12.461-.221-.113-1.735.118-3.127.222-4.647zm12.404 5.364c-2.562.143-7.055.108-9.412 0-.466-.024-6.117.165-6.499-.238.035.036 4.818-.238 5.154-.238 4.013 0 6.966.219 10.98.238 2.057.108.176.213-.223.238zm1.748-1.29h-1.393c.34-1.478 1.177-2.475 1.393-4.074.615 1.187-.199 2.648 0 4.074zm1.484.815c-2.458-.262-.43-3.026-1.001-4.889 1.058.236 1.873.677 3.004.85-.72 1.302-2.068 2.07-2.003 4.039zm2.003 1.776c.36-2.71 1.702-4.446 2.556-6.665 1.142.326 2.81.134 3.95.46-1.006 2.91-2.206 5.63-3.252 8.503-1.399-.455-2.17-1.531-3.254-2.298zm7.417-5.85h.717c-1.427 2.924-2.727 5.957-4.06 8.963-.17-2.467 2.64-5.875 3.343-8.963zm.81 11.407c-1.19-.507-2.411-.982-3.347-1.755 1.072-3.336 2.425-6.377 3.556-9.652 1.072.338 2.692.1 3.764.44-1.116 3.872-2.64 7.32-3.972 10.967zm5.351-13.037c-1.368-.047-2.45-.39-3.818-.438 2.143-5.88 4.358-11.686 6.578-17.488.903 1.183 1.718 2.456 3.182 3.062-1.987 4.948-3.872 10.002-5.942 14.864zm33.748 6.04c-.391 0-.632-.15-.632-.421v-.091c0-.663.994-.814 1.204-2.05l2.708-16.284c.181-1.175-1.053-1.326-1.053-2.02v-.09c0-.272.21-.453.572-.453h2.649c.662 0 1.113.302 1.325.875l5.387 15.62 5.418-15.62c.211-.573.602-.875 1.234-.875h2.8c.3 0 .54.151.54.422v.09c0 .694-1.324.876-1.082 2.232l3.01 16.103c.24 1.236 1.234 1.387 1.234 2.05v.091c0 .271-.271.422-.662.422H94.27c-.39 0-.661-.15-.661-.422v-.09c0-.664 1.264-.815 1.023-2.05l-2.378-13.54-5.568 15.348c-.18.483-.392.724-.873.724-.482 0-.753-.211-.964-.693L79.011 9.072l-2.257 13.962c-.21 1.236 1.114 1.386 1.114 2.05v.09c0 .272-.241.423-.632.423h-3.071v-.001zm26.998-19.238c0-1.297.994-2.262 2.5-2.262 1.474 0 2.437.965 2.437 2.262 0 1.327-.964 2.262-2.438 2.262-1.505 0-2.499-.935-2.499-2.262zm5.51 18.666v.12c0 .271-.272.453-.663.453h-4.575c-.391 0-.632-.182-.632-.453v-.12c0-.664 1.114-.785 1.114-1.96v-7.9c0-1.237-1.114-1.539-1.114-2.082v-.09c0-.242.21-.362.542-.543l3.01-1.508c.691-.332 1.083.03 1.083.513v11.61c0 1.175 1.234 1.296 1.234 1.96zm6.35-8.383v6.452c0 1.177 1.384 1.297 1.384 1.96v.122c0 .271-.24.422-.631.422h-4.667c-.39 0-.631-.151-.631-.422v-.122c0-.663 1.143-.783 1.143-1.96v-8.11c0-1.237-1.294-1.297-1.294-1.96v-.091c0-.241.21-.452.542-.633l2.949-1.358c.632-.3.873 0 .873.513v2.352c.663-1.93 2.077-2.985 4.003-2.985 1.776 0 2.77 1.145 2.77 2.533 0 1.025-.422 1.9-1.565 1.9-1.957 0-1.054-2.353-2.8-2.353-1.414 0-2.076 1.78-2.076 3.74zm11.889 0v6.452c0 1.177 1.384 1.297 1.384 1.96v.122c0 .271-.24.422-.631.422h-4.666c-.391 0-.632-.151-.632-.422v-.122c0-.663 1.144-.783 1.144-1.96v-8.11c0-1.237-1.294-1.297-1.294-1.96v-.091c0-.241.21-.452.541-.633l2.95-1.358c.632-.3.872 0 .872.513v2.352c.663-1.93 2.078-2.985 4.004-2.985 1.776 0 2.77 1.145 2.77 2.533 0 1.025-.422 1.9-1.566 1.9-1.957 0-1.053-2.353-2.8-2.353-1.414 0-2.076 1.78-2.076 3.74zm14.297-5.82c-4.124 0-7.465 3.106-7.465 7.388 0 4.01 3.04 7.69 8.157 7.69 4.364 0 7.254-3.317 7.254-7.449 0-4.161-3.191-7.63-7.946-7.63zm1.144 13.931c-3.04 0-5.057-3.98-5.057-7.719 0-3.317 1.385-5.066 3.522-5.066 2.768 0 4.785 3.498 4.785 7.72 0 3.256-1.384 5.065-3.25 5.065zm14.507.301v.121c0 .272-.242.422-.633.422h-4.665c-.39 0-.632-.15-.632-.422v-.12c0-.664 1.144-.784 1.144-1.96V14.98c0-1.236-1.294-1.296-1.294-1.96v-.09c0-.241.21-.452.541-.633l2.95-1.358c.632-.3.873 0 .873.513v2.352c.662-1.93 2.077-2.985 4.004-2.985 1.775 0 2.768 1.145 2.768 2.533 0 1.025-.42 1.9-1.565 1.9-1.956 0-1.052-2.353-2.798-2.353-1.415 0-2.078 1.779-2.078 3.74v6.452c0 1.177 1.385 1.297 1.385 1.96zm27.6-4.01l-.752 3.77c-.12.512-.331.784-.873.784h-13.454c-.391 0-.632-.182-.632-.422v-.091c0-.663 1.114-.814 1.114-1.99V6.688c0-1.207-1.114-1.297-1.114-1.99v-.091c0-.271.24-.422.632-.422h4.725c.392 0 .663.15.663.422v.09c0 .694-1.235.784-1.235 1.99V22.64c0 .784.362 1.417 1.115 1.417h5.508c2.016 0 2.407-3.618 3.581-3.618h.301c.33 0 .512.21.422.603zm13.997 1.84l-.603-5.79c-.42-3.89-2.86-6.272-6.651-6.272-3.22 0-5.568 1.477-5.568 3.377 0 .844.572 1.387 1.475 1.387 1.895 0 1.294-3.649 4.093-3.649 2.107 0 2.829 1.81 3.16 5.307l.06.604c-.812-.633-2.016-1.026-3.491-1.026-3.04 0-5.508 1.568-5.479 4.524 0 2.955 2.348 4.553 5.63 4.553 2.136 0 3.49-.815 4.183-1.93.12 1.478.872 1.81 2.408 1.81 1.294 0 2.438-.181 2.438-.754 0-.785-1.444-.181-1.655-2.141zm-6.38 1.87c-1.867 0-3.071-1.78-3.071-3.83 0-1.81 1.174-2.955 2.83-2.955 1.594 0 2.738 1.085 2.86 2.804l.09.935c.089 1.628-1.025 3.045-2.71 3.045zm24.56.33v.091c0 .272-.212.422-.543.422h-4.846c-.3 0-.511-.181-.511-.452v-.061c0-.663 1.113-.784.571-1.477l-3.852-5.156-2.047 1.9v2.743c0 1.176 1.234 1.267 1.234 1.96v.091c0 .271-.271.453-.662.453h-4.575c-.391 0-.632-.182-.632-.453v-.09c0-.694 1.114-.784 1.114-1.96V7.2c0-1.266-1.264-1.507-1.264-2.05v-.09c0-.272.18-.393.511-.543l3.19-1.508c.663-.301 1.084.03 1.084.482V18.36l5.418-4.734c.842-.724-.692-1.327-.692-1.96v-.091c0-.301.21-.453.541-.453h3.853c.3 0 .512.151.512.422v.091c0 .663-1.325 1.025-2.348 1.96l-2.95 2.714 5.358 7.298c.512.693 1.536.844 1.536 1.476zm11.617-3.919c-.602 1.206-1.956 2.2-3.853 2.2-2.137 0-3.671-1.266-4.424-3.316l7.284-2.684c.932-.33 1.535-.965 1.535-2.11 0-2.111-1.746-4.433-5.628-4.433-3.974 0-7.194 3.106-7.194 7.418 0 4.674 3.1 7.66 7.133 7.66 3.823 0 5.84-2.654 6.11-4.433.06-.604-.631-.724-.963-.302zm-8.79-4.282c0-2.895 1.205-4.915 3.102-4.915 1.745 0 2.86 2.17 2.86 3.407 0 .603-.242 1.025-.784 1.267l-4.996 2.17a9.78 9.78 0 0 1-.181-1.929zm23.9-12.273v.09c0 .664-1.204.815-1.204 1.991v16.434c0 1.176 1.204 1.327 1.204 1.96v.09c0 .272-.241.423-.632.423h-4.696c-.391 0-.632-.151-.632-.422v-.091c0-.633 1.114-.784 1.114-1.96V6.69c0-1.176-1.114-1.327-1.114-1.99v-.09c0-.272.24-.423.632-.423h4.696c.391 0 .632.15.632.422zm18.24 20.444v.121c0 .272-.271.452-.662.452h-4.395c-.42 0-.661-.18-.661-.452v-.12c0-.664 1.143-.784 1.083-1.99l-.301-5.82c-.15-3.438-1.325-4.976-3.16-4.976-1.927 0-3.161 1.568-3.161 3.74v7.085c0 1.177 1.234 1.297 1.234 1.96v.122c0 .271-.241.452-.662.452h-4.666c-.39 0-.632-.181-.632-.452v-.122c0-.663 1.204-.783 1.204-1.96v-8.08c0-1.328-1.354-1.358-1.354-2.02V12.9c0-.241.21-.392.542-.542l2.919-1.418c.632-.331.934.03.934.543v1.96c.842-1.628 2.497-2.623 4.574-2.623 2.83 0 5.418 1.81 5.72 6.543l.36 5.7c.06 1.206 1.083 1.326 1.083 1.99zm17.396 0v.121c0 .272-.27.452-.662.452h-4.394c-.421 0-.662-.18-.662-.452v-.12c0-.664 1.144-.784 1.083-1.99l-.3-5.82c-.151-3.438-1.326-4.976-3.161-4.976-1.926 0-3.16 1.568-3.16 3.74v7.085c0 1.177 1.234 1.297 1.234 1.96v.122c0 .271-.241.452-.663.452h-4.665c-.39 0-.632-.181-.632-.452v-.122c0-.663 1.204-.783 1.204-1.96v-8.08c0-1.328-1.354-1.358-1.354-2.02V12.9c0-.241.21-.392.542-.542l2.919-1.418c.632-.331.934.03.934.543v1.96c.842-1.628 2.497-2.623 4.574-2.623 2.83 0 5.418 1.81 5.72 6.543l.36 5.7c.06 1.206 1.083 1.326 1.083 1.99zM79.634 36.122c0-1.193-.87-2.088-2.503-2.088h-3.232v7.646h1.412v-3.16h1.246c1.28 0 1.522.42 1.522 1.337v.133c0 .773.011 1.36.144 1.69h1.367c-.11-.342-.11-.96-.11-1.48v-.354c0-1.36-.562-1.78-1.025-1.923.616-.221 1.18-.795 1.18-1.8zM76.79 37.36h-1.48v-2.166h1.532c.894 0 1.335.387 1.335 1.072 0 .718-.396 1.094-1.39 1.094zm6.896 3.138h4.07l-.177 1.182h-5.294v-7.646h5.261v1.193h-3.86v1.879h3.695v1.182h-3.695v2.21zm12.012-1.017c0 1.337-1.003 2.299-2.966 2.299-1.931 0-2.879-.984-3.055-2.299h1.444c.188.818.761 1.205 1.72 1.205.983 0 1.39-.42 1.39-1.04 0-.662-.363-.994-1.753-1.314-1.974-.475-2.526-1.182-2.526-2.233 0-1.26.938-2.177 2.714-2.177 1.952 0 2.735 1.084 2.845 2.155h-1.444c-.1-.541-.42-1.06-1.445-1.06-.761 0-1.202.32-1.202.928 0 .597.364.84 1.633 1.139 2.194.519 2.645 1.359 2.645 2.397zm5.827-5.558c-2.35 0-3.695 1.724-3.695 3.934 0 2.188 1.246 3.934 3.595 3.934 2.45 0 3.695-1.845 3.695-3.967 0-2.31-1.39-3.901-3.595-3.901zm-.044 6.686c-1.456 0-2.173-1.238-2.173-2.785 0-1.537.65-2.719 2.15-2.719 1.512 0 2.173 1.227 2.173 2.741 0 1.459-.584 2.763-2.15 2.763zm11.958-4.487c0-1.193-.872-2.088-2.504-2.088h-3.23v7.646h1.41v-3.16h1.247c1.28 0 1.522.42 1.522 1.337v.133c0 .773.012 1.36.144 1.69h1.367c-.11-.342-.11-.96-.11-1.48v-.354c0-1.36-.562-1.78-1.026-1.923.618-.221 1.18-.795 1.18-1.8zm-2.845 1.238h-1.478v-2.166h1.533c.893 0 1.334.387 1.334 1.072 0 .718-.397 1.094-1.39 1.094zm4.745-3.326h6.155v1.193h-2.361v6.453h-1.434v-6.453h-2.36v-1.193zm19.173 2.862H133.1l-1.4 1.978-1.259-1.226c1.037-.608 1.445-1.138 1.445-1.89 0-.972-.739-1.835-2.019-1.835-1.29 0-2.084.873-2.084 1.979 0 .674.342 1.127.816 1.635-1.202.73-1.566 1.326-1.566 2.166 0 1.016.76 2.088 2.371 2.088 1.114 0 1.754-.42 2.35-1.116l1.025 1.005h1.788l-2.052-2 1.997-2.784zm-4.644-2c.54 0 .794.43.794.884 0 .398-.165.74-.882 1.204-.486-.464-.728-.773-.728-1.182 0-.553.32-.906.816-.906zm-.32 5.724c-.705 0-1.103-.52-1.103-1.084 0-.53.254-.883.827-1.281l1.677 1.635c-.474.542-.828.73-1.4.73zm16.802-1.139c0 1.337-1.005 2.299-2.967 2.299-1.93 0-2.879-.984-3.056-2.299h1.445c.188.818.76 1.205 1.72 1.205.982 0 1.39-.42 1.39-1.04 0-.662-.364-.994-1.754-1.314-1.974-.475-2.525-1.182-2.525-2.233 0-1.26.937-2.177 2.713-2.177 1.952 0 2.735 1.084 2.846 2.155h-1.445c-.1-.541-.42-1.06-1.446-1.06-.76 0-1.201.32-1.201.928 0 .597.363.84 1.632 1.139 2.195.519 2.648 1.359 2.648 2.397zm5.483-5.447h-3.066v7.646h1.434v-2.95h1.588c1.5 0 2.692-.774 2.692-2.376 0-1.436-1.07-2.32-2.648-2.32zm-.198 3.536H150.2v-2.376h1.478c.761 0 1.357.353 1.357 1.193 0 .818-.54 1.183-1.4 1.183zm6.432-3.536l-2.636 7.646h1.412l.673-1.944h2.88l.693 1.944h1.512l-2.746-7.646h-1.788zm-.231 4.508c.485-1.491.882-2.718 1.07-3.436h.01c.189.652.552 1.69 1.148 3.436h-2.228z"></path>
</svg>