<svg xmlns="http://www.w3.org/2000/svg" viewBox="0 0 300 97">
  <title>Pretty Nice Websites</title>
  <path fill="currentColor" fill-rule="evenodd" d="M0 .291h31.056c29.608 0 44.413 12.014 44.413 36.043S60.664 72.647 31.056 73.188V97H0V.291zm31.602 25.964V48c8.229 0 12.343-3.624 12.343-10.873 0-7.248-4.114-10.872-12.343-10.872zM83.61 97V.291h25.333l26.554 36.836V.291h30.361V97h-25.909l-26.255-36.608V97zM168.32.291L200.435 97h24.026l9.816-29.122L244.203 97h24.175L299.593.291h-31.215l-12.009 32.465L244.203.291h-19.742l-11.807 32.465L200.435.291z"/>
</svg>