<svg viewBox="0 0 158 45" xmlns="http://www.w3.org/2000/svg">
  <g>
    <path fill="currentColor" fill-rule="evenodd" d="M76 34.03c-1.554 0-2.58-1.232-2.58-2.735 0-1.49 1-2.72 2.58-2.72 1.566 0 2.592 1.23 2.592 2.72 0 1.503-1.026 2.734-2.593 2.734zm0-6.138c-2.025 0-3.315 1.53-3.315 3.403 0 1.872 1.345 3.403 3.314 3.403 1.968 0 3.313-1.53 3.313-3.403S77.968 27.892 76 27.892zM59.805 29.34h4.77v3.54c-1.027 1.19-2.496 1.832-4.188 1.832-2.98 0-5.213-2.35-5.213-5.167 0-2.856 2.204-5.166 5.17-5.166 1.513 0 2.9.614 3.856 1.57l-.54.493c-.804-.82-2.024-1.353-3.314-1.353-2.565 0-4.395 2.023-4.395 4.455 0 2.42 1.845 4.443 4.438 4.443 1.36 0 2.634-.493 3.44-1.367v-2.583h-4.022v-.697zm33.427 4.702c-1.484 0-2.566-1.216-2.566-2.692v-.192c.028-1.503 1.15-2.597 2.58-2.597 1.47 0 2.48 1.177 2.48 2.72 0 1.546-1.052 2.762-2.494 2.762zm.013-6.15c-1.22 0-2.204.71-2.662 1.694l-.263-1.57h-.373v9.88h.72v-4.824c.416.93 1.387 1.626 2.566 1.626 1.87 0 3.23-1.503 3.23-3.417 0-1.94-1.414-3.388-3.217-3.388zm-6.71.068h.72v6.602h-.484l-.14-1.395c-.415.957-1.343 1.53-2.356 1.53-1.802 0-2.814-1.174-2.814-3.06V27.96h.72v3.677c0 1.53.763 2.405 2.15 2.405 1.26 0 2.218-.943 2.204-2.515V27.96zm-16.596-.068c.72 0 1.36.26 1.928.724l-.388.533c-.472-.384-.97-.59-1.567-.59-1.15 0-1.955.903-2.052 1.97v4.032h-.72v-6.616h.374l.236 1.353c.36-.834 1.192-1.408 2.19-1.408zm86.91-10.073H158V7.5h-1.15v10.32zm-3.564 0h1.15V7.5h-1.15v10.32zm-3.55-3.35c0 1.368-.942 2.42-2.26 2.42-1.33 0-2.26-1.052-2.26-2.392 0-1.34.944-2.392 2.26-2.392 1.29 0 2.247 1.053 2.26 2.242v.123zm.195-2.227c-.58-.766-1.58-1.203-2.467-1.203-1.94 0-3.41 1.517-3.41 3.458 0 1.94 1.47 3.458 3.34 3.458.944 0 1.928-.506 2.428-1.257l.056 1.12h.998v-6.684h-.513l-.43 1.107zm-7.735 1.722v3.854h-1.137v-3.76c0-1.134-.568-1.954-1.775-1.954-.845 0-1.663.547-2.01 1.285v4.43h-1.15V7.5h1.15v4.47c.513-.588 1.29-.93 2.08-.93 1.608 0 2.842 1.12 2.842 2.925zm-8.11 2.91l.04.944c-.318.054-.65.08-1.053.08-1.442 0-2.135-.983-2.135-2.227v-3.54h-1.22v-.956h1.26l.237-2.023.86.014v2.01h2.01v.955h-2.01v3.54c0 .793.416 1.203.998 1.203h1.012zm-7.155-5.712h1.137v6.656h-.72l-.25-.985c-.444.684-1.262 1.12-2.136 1.12-1.912 0-2.883-1.215-2.883-3.088v-3.704h1.15v3.704c0 1.312.542 2.023 1.83 2.023 1.11 0 1.887-.724 1.873-1.996v-3.73zm-10.107 5.713c-1.345 0-2.205-1.066-2.205-2.378s.86-2.378 2.205-2.378c1.345 0 2.218 1.066 2.218 2.378s-.872 2.378-2.217 2.378zm0-5.836c-2.052 0-3.383 1.558-3.383 3.458 0 1.9 1.386 3.458 3.383 3.458 2.01 0 3.383-1.558 3.383-3.458 0-1.9-1.373-3.458-3.383-3.458zm-4.977 4.018c0 1.518-1.276 2.898-3.62 2.898-1.288 0-2.703-.656-3.465-1.585l.874-.738c.735.793 1.623 1.23 2.593 1.23 1.622 0 2.37-.86 2.37-1.804 0-.806-.443-1.42-1.732-1.804-.472-.15-.915-.26-1.414-.41-1.636-.45-2.523-1.257-2.523-2.597 0-1.353 1.22-2.61 3.217-2.61 1.04 0 2.19.437 2.953 1.203l-.762.792c-.57-.533-1.304-.916-2.19-.916-1.443 0-1.984.793-1.984 1.545 0 .74.584 1.286 1.637 1.56l1.345.368c1.76.48 2.704 1.476 2.704 2.87zm-14.17-4.018c.68 0 1.33.232 1.872.656l-.596.86c-.43-.3-.832-.45-1.317-.45-.902 0-1.664.697-1.803 1.586v4.127h-1.15V11.12h.526l.416 1.066c.39-.683 1.18-1.148 2.052-1.148zm-8.332.998c1.123 0 1.97.847 2.024 1.9v.013h-4.104c.097-1.078.9-1.912 2.08-1.912zm3.064 4.497l-.957-.493c-.498.67-1.19.916-1.926.916-1.36 0-2.204-.875-2.288-2.077h5.283c.013-.08.027-.3.027-.546 0-1.75-1.22-3.294-3.217-3.294-2.052 0-3.286 1.558-3.286 3.458 0 1.996 1.373 3.458 3.48 3.458 1.18 0 2.205-.478 2.884-1.42zm-10.856-4.402h-1.22v-.956h1.26l.237-2.023.86.014v2.01h2.01v.955h-2.01v3.54c0 .793.415 1.203.997 1.203H84.7l.04.943c-.318.054-.65.08-1.053.08-1.442 0-2.135-.983-2.135-2.227v-3.54zM73.9 17.82h-1.152V11.12h.527l.457 1.025c.472-.656 1.317-1.107 2.19-1.107 1.623 0 2.9 1.093 2.9 2.94v3.84h-1.138v-3.746c0-1.148-.61-1.968-1.817-1.968-.86 0-1.622.547-1.968 1.285v4.43zm-6.67.136c-1.913 0-2.884-1.216-2.884-3.09v-3.703h1.15v3.704c0 1.312.542 2.023 1.83 2.023 1.11 0 1.887-.724 1.873-1.996v-3.73h1.136v6.655h-.72l-.25-.985c-.444.684-1.262 1.12-2.136 1.12zm-10.51-9.09h2.122c1.595 0 2.413.876 2.413 2.05 0 1.217-.86 2.05-2.413 2.05h-2.12v-4.1zm0 5.195h2.108c2.316 0 3.647-1.31 3.647-3.143 0-1.832-1.33-3.144-3.633-3.144h-3.328V17.82h1.207v-3.76z" />
    <path fill="currentColor" fill-rule="evenodd" d="M26.496 18.477c1.02 1.015 1.65 2.418 1.65 3.967 0 3.1-2.522 5.61-5.63 5.61-1.555 0-2.962-.627-3.98-1.642L0 44.89h45.03V0L26.497 18.477z" />
    <path fill="currentColor" fill-rule="evenodd" d="M33.773 33.647l-7.277-7.254c-1.02 1.015-2.426 1.643-3.98 1.643-1.555 0-2.962-.628-3.98-1.643L0 44.87h45.03L33.774 33.647z" />
    <path fill="currentColor" fill-rule="evenodd" d="M14.072 11.354c0 1.55-1.26 2.806-2.814 2.806-1.555 0-2.815-1.256-2.815-2.806s1.26-2.805 2.815-2.805c1.554 0 2.814 1.255 2.814 2.804" />
  </g>
</svg>