<svg xmlns="http://www.w3.org/2000/svg" viewBox="0, 0, 409, 96"><g><path fill="currentColor" fill-rule="evenodd" d="M376 30.954c17.698 0 32.046 14.347 32.046 32.046 0 17.699-14.348 32.046-32.046 32.046-17.699 0-32.046-14.347-32.046-32.046 0-17.699 14.347-32.046 32.046-32.046zm0 9c-12.728 0-23.046 10.318-23.046 23.046S363.272 86.046 376 86.046 399.046 75.728 399.046 63 388.728 39.954 376 39.954zM306.768 30.921c14.13 0 23.148 10.175 23.148 23.915v34.34a4.5 4.5 0 0 1-9 0v-34.34c0-8.995-5.247-14.915-14.148-14.915-5.287 0-9.425 1.721-12.333 4.654-2.329 2.348-3.645 5.34-3.645 7.528-.093.925.026.627-.113.958l.069 1.775v34.34a4.5 4.5 0 0 1-9 0v-34.34c0-9.94-5.049-14.915-14.943-14.915-9.266 0-15.793 6.375-15.793 14.326l-.01.099V89.53a4.5 4.5 0 0 1-9 0V36a4.5 4.5 0 0 1 9 0v.109c4.639-3.586 10.053-4.926 15.803-5.188 7.441.091 15.495 2.448 19.69 9.081.543-.789.09-.151 1.551-1.764 4.599-4.639 11.039-7.317 18.724-7.317zM196 30.954c17.699 0 32.046 14.347 32.046 32.046 0 17.699-14.347 32.046-32.046 32.046-17.699 0-32.046-14.347-32.046-32.046 0-17.699 14.347-32.046 32.046-32.046zm0 9c-12.728 0-23.046 10.318-23.046 23.046S183.272 86.046 196 86.046 219.046 75.728 219.046 63 208.728 39.954 196 39.954zM123.465.985c7.615-.366 14.228 2.239 19.278 7.013 4.148 3.919 6.985 9.15 7.772 13.86a4.499 4.499 0 0 1-3.696 5.18 4.499 4.499 0 0 1-5.18-3.696c-.46-2.753-2.339-6.215-5.078-8.804-3.317-3.135-7.565-4.808-12.639-4.564-9.171.491-15.715 7.922-15.423 15.144.305 7.524 4.648 12.574 16.136 15.006 16.854 3.567 27.657 14.552 27.598 28.054-.027 5.942-2.436 12.388-6.781 17.282-5.162 5.816-12.605 9.083-21.703 8.948-14.914-.222-26.117-12.933-26.704-27.114a4.5 4.5 0 0 1 8.992-.372c.401 9.683 8.032 18.341 17.846 18.487 6.483.096 11.418-2.07 14.839-5.924 2.875-3.239 4.494-7.57 4.511-11.347.039-8.822-7.473-16.46-20.462-19.21-15.483-3.277-22.792-11.776-23.264-23.446-.49-12.079 9.777-23.736 23.958-24.497zM6.524 39.617L73.464.97 84.86 20.706 17.92 59.354zM.826 74.753l66.94-38.648L79.16 55.843 12.223 94.49z" /></g></svg>