<svg xmlns="http://www.w3.org/2000/svg" viewbox="0 0 400 133.808">
  <path fill="currentColor" fill-rule="evenodd" d="M14.833.267c-1.107 1.898-1.14 12.985-.051 17.171 3.766 14.474 15.363 23.676 42.335 33.591 13.062 4.802 19.024 12.293 15.528 19.514-6.613 13.66-41.228 5.133-41.133-10.134.009-1.517.009-2.758-.001-2.758-.01 0-6.664-1.666-14.786-3.702-8.122-2.037-14.886-3.63-15.03-3.541-1.835 1.134-2.168 14.516-.498 20.055 2.15 7.131 5.17 12.1 10.709 17.615 6.197 6.17 3.938 5.299 31.756 12.243l24.268 6.057 3.785-.718c18.275-3.464 29.943-15.908 33.086-35.283 3.336-20.568-8.668-36.7-34.872-46.861-17.983-6.973-22.355-9.425-23.867-13.386-1.171-3.065-.202-7.007 2.292-9.329l.86-.801H32.101c-9.412 0-17.182.12-17.268.267M71.886.171c0 .094.601.48 1.335.858 5.005 2.581 8.11 7.993 7.284 12.697-.505 2.877-3.168 1.913 23.023 8.339 7.225 1.773 6.686 1.953 7.704-2.578 1.189-5.292.793-12.956-.948-18.33L109.909 0H90.898C80.441 0 71.886.077 71.886.171m62.269 1.341-.9 3.47c-.28 1.077-6.034 24.217-12.788 51.424-6.753 27.206-12.435 50.026-12.626 50.711-1.602 5.748-2.05 8.179-1.58 8.569.949.788 28.403 7.434 28.821 6.977.211-.232 2.759-10.03 5.66-21.773 2.902-11.744 5.31-21.397 5.35-21.451.04-.055 6.14 1.414 13.556 3.264 17.511 4.367 16.942 4.261 22.736 4.258 32.399-.018 52.984-36.775 36.412-65.016-6.497-11.073-14.931-16.927-29.594-20.541L183.505 0h-48.958l-.392 1.512m110.518 14.591c-.141.435-9.937 39.747-11.262 45.196-.369 1.517-.991 4.039-1.383 5.605l-1.445 5.783a507.794 507.794 0 0 0-1.198 4.893c-.973 4.103-13.828 55.36-13.99 55.787-.137.357 3.031.429 15.607.356l15.779-.093.987-3.915a536.44 536.44 0 0 0 1.66-6.761c.846-3.585 8.463-34.086 8.932-35.765.191-.685 3.8-15.178 8.02-32.207 4.22-17.028 7.751-31.226 7.848-31.55.235-.786-.592-1.037-15.579-4.731-12.85-3.167-13.738-3.332-13.976-2.598m-71.008 11.029c12.89 3.191 14.039 3.612 16.48 6.045 8.29 8.263 3.52 22.734-8.087 24.538l-2.521.392-13.267-3.293c-11.273-2.798-13.241-3.38-13.088-3.875.098-.321.985-3.866 1.971-7.879.986-4.012 2.013-8.096 2.282-9.074.269-.979.942-3.666 1.496-5.973l1.008-4.193 1.08.225c.594.123 6.285 1.513 12.646 3.087m118.031.181c-.259.431-1.079 3.689-13.053 51.868-13.153 52.919-13.013 52.355-13.308 53.648l-.224.979H296.414l.338-1.335c.186-.734 2.944-11.798 6.13-24.588 6.572-26.387 5.611-24.28 7.65-16.782 1.001 3.683 1.631 5.946 3.319 11.922.608 2.153 1.838 6.557 2.733 9.786.894 3.23 1.835 6.593 2.091 7.474 1.357 4.679 1.638 5.678 2.103 7.473.28 1.077.595 2.198.702 2.491.106.294.367 1.215.58 2.046l.387 1.513 29.079-.008 29.079-.008 2.206-8.978c1.214-4.938 5.588-22.554 9.721-39.146 4.134-16.593 7.465-30.525 7.403-30.961-.104-.732-1.151-1.053-13.814-4.236-16.068-4.038-15.165-3.913-15.628-2.161-.194.734-1.804 7.179-3.578 14.323-1.774 7.145-3.382 13.55-3.572 14.235-.458 1.643-2.782 10.989-3.408 13.701-4.453 19.294-8.98 35.858-9.387 34.342-.396-1.476-1.733-6.233-8.053-28.648a6190.879 6190.879 0 0 1-2.853-10.142c-.3-1.077-.761-2.678-1.024-3.559-.264-.881-1.305-4.564-2.314-8.185a881.918 881.918 0 0 0-2.311-8.185c-.262-.881-1.39-4.884-2.505-8.897a2560.24 2560.24 0 0 0-2.888-10.32c-.473-1.664-1.083-3.826-1.356-4.804-1.271-4.554-2.01-6.94-2.151-6.94-.085 0-7.526-1.841-16.537-4.092-18.121-4.527-16.64-4.191-16.86-3.826"/>
</svg>