<svg xmlns="http://www.w3.org/2000/svg" viewBox="0 0 105 85"><title>Surf Grove</title><path fill="currentColor" fill-rule="evenodd" d="M89 51a118.92 118.92 0 0015.144.977l.856 4.908c-.13 0-.258-.012-.385-.035a21.97 21.97 0 00-5.035-.77c-1.532-.067-3.063-.167-4.594-.252-.107-.006-.215 0-.352 0v9.003c2.816.417 5.68.318 8.462-.293l-.98 5.695a24.676 24.676 0 00-5.478-.98l-1.994-.122v10.704c3.419.658 6.83 1.081 10.33.134-.065.263-.108.485-.182.694a6.74 6.74 0 01-2.29 3.3 5.38 5.38 0 01-4.167.944c-1.793-.259-3.575-.595-5.36-.907a11.087 11.087 0 00-3.63-.101c-.09.013-.184.01-.335.017.048-.167.099-.301.124-.44.165-.912.365-1.821.472-2.741.08-.792.114-1.588.102-2.383.007-7.22.007-14.44 0-21.658.03-1.554-.11-3.105-.42-4.625-.075-.332-.176-.658-.288-1.069zM23 39c.395.052.748.088 1.096.146 2.04.345 4.095.612 6.113 1.062 3.163.589 5.994 2.386 7.929 5.033a10.062 10.062 0 011.684 7.876c-.505 2.813-2.66 5.003-5.395 5.482-.104.024-.206.06-.335.098.029.06.065.117.108.168a9.465 9.465 0 012.304 2.844 368.857 368.857 0 012.415 4.346 34.789 34.789 0 004.536 6.658c2.852 3.158 6.68 5.338 12.91 5.338 3.12 0 6.488-1.832 7.635-3.807 0 3.993-3.96 8.75-9.09 8.75-2.838 0-14.185.93-23.446-20.983-.473-1.12-1.62-3.466-2.801-3.466-.015.255-.038 6.3-.028 9.154a17.467 17.467 0 00.667 5.275l-6.271-1.02c.168-.61.301-1.231.4-1.858.132-1.137.206-2.281.222-3.427.02-7.32.021-14.639.006-21.958 0-.931-.04-1.87-.123-2.798A13.021 13.021 0 0023 39zm41 8l6.852 1.295c-.04.461-.092.874-.11 1.288-.01 1.503.162 3.003.514 4.468 1.048 5.125 2.097 10.25 3.148 15.374.362 1.769.73 3.537 1.117 5.41.068-.116.125-.237.17-.363 1.4-6.355 2.81-12.707 4.177-19.069.233-1.214.396-2.44.488-3.671.02-.589 0-1.177-.06-1.763.32-.066 6.256.706 6.704.875-.276.604-.573 1.2-.824 1.814a41.007 41.007 0 00-1.648 5.586l-2.413 9.517c-.4 1.587-.8 3.174-1.195 4.762-.46 1.845-.874 3.702-1.258 5.563-.243 1.1-.313 2.23-.21 3.35.018.165 0 .33 0 .564-2.643-.374-5.236-.824-7.827-1.298-.023-.066-.064-.124-.055-.172a12.35 12.35 0 00-.306-4.757c-.564-2.702-1.21-5.383-1.836-8.07a6788.967 6788.967 0 00-3.624-15.452A22.891 22.891 0 0064 47zm-11.809-1.986a8.96 8.96 0 015.936 2.738 14.679 14.679 0 013.319 5.33 24.123 24.123 0 011.422 6.453c.182 1.933.176 3.88-.018 5.81a12.74 12.74 0 01-.97 3.974c-.884 2.222-2.998 3.674-5.345 3.672a12.69 12.69 0 01-6.987-1.79 10.435 10.435 0 01-4.647-6.09 20.274 20.274 0 01-.893-5.832c-.008-.31-.002-.622-.002-.933a22.935 22.935 0 01.995-7.248 10.881 10.881 0 012.123-3.905 6.054 6.054 0 015.067-2.179zm-37.645-7.358a22.61 22.61 0 001.787.57c.325.065.655.108.986.127v6.545c-.436-.549-.79-1.057-1.21-1.513a6.054 6.054 0 00-3.534-2.037 4.503 4.503 0 00-3.678.981 7.3 7.3 0 00-1.949 2.51 14.235 14.235 0 00-1.36 4.464 27.069 27.069 0 00.319 9.61c.252 1.213.67 2.387 1.243 3.486.39.766.91 1.459 1.535 2.048a4.738 4.738 0 004.572 1.048c.33-.078.645-.202.972-.305v-9.243a12.332 12.332 0 00-3.832.341l-.923-4.955c3.228.199 6.373.514 9.526.933v17.11a.76.76 0 01-.208.054 27.03 27.03 0 00-4.193.388 13.006 13.006 0 01-6.406-.528 10.67 10.67 0 01-4.933-4.008 17.1 17.1 0 01-2.683-6.566A27.5 27.5 0 01.669 47.08a15.252 15.252 0 013.452-6.994 8.897 8.897 0 015.604-3.013c1.63-.196 3.284.004 4.82.583zm38.074 12.09c-.77.13-1.449.594-1.862 1.271a7.196 7.196 0 00-.913 2.097 25.57 25.57 0 00-.718 6.662c.04.612.081 1.747.197 2.877a8.85 8.85 0 00.807 3 4.175 4.175 0 001.951 1.965 7.032 7.032 0 002.162.595c1.228.285 2.47-.42 2.882-1.635.275-.714.46-1.462.548-2.224a29.666 29.666 0 00-.304-8.692 11.255 11.255 0 00-1.498-4.082 4.049 4.049 0 00-1.594-1.514 2.722 2.722 0 00-1.658-.32zm-23.968-5.844v10.562a9.25 9.25 0 002.731.292c1.71-.015 3.163-1.293 3.448-3.032a6.917 6.917 0 00-.023-2.89c-.429-2.121-1.945-3.833-3.955-4.465a9.659 9.659 0 00-2.201-.467zM55 7c.251.046.47.08.685.127 2.312.498 4.642.933 6.934 1.517a13.753 13.753 0 016.772 3.924 9.908 9.908 0 012.72 7.912c-.276 3.39-2.431 5.738-5.815 6.38-.055.01-.11.024-.216.048.052.115.112.226.18.333a51.283 51.283 0 013.042 5.106c4.313 7.856 8.823 9.496 15.247 9.567H85l-.036.037c-.424.424-4.598 4.41-9.945 2.563-3.004-1.039-7.02-3.46-11.157-13.227-.484-1.143-1.775-3.723-2.805-4.396l-.023-.014a1.027 1.027 0 00-.2-.104c-.03-.011-.071.008-.15.02-.008.175-.025.36-.025.545 0 2.733-.014 4.456 0 7.19-.058 1.84.173 3.677.686 5.443l-6.33-1.342c.132-.563.28-1.078.38-1.6.2-1.254.285-2.525.251-3.795v-6.898c.002-4.474.003-8.799 0-13.572.053-1.56-.069-3.12-.364-4.65-.08-.353-.177-.701-.282-1.114zm21 4c5.04.875 10.052 1.619 15.137 2.135L92 18.199a2.983 2.983 0 01-.324-.075 22.026 22.026 0 00-5.44-1.28c-1.482-.171-2.958-.4-4.437-.602a1.685 1.685 0 00-.201 0v9.073a23.85 23.85 0 008.496.36c-.368 1.957-.712 3.78-1.066 5.675a26.567 26.567 0 00-7.483-1.678c.111 4.616-.34 4.71.073 9.328-1.83-.254-4.922-2.104-4.922-7.05-.017-6.486-.004-8.52-.014-15.006a22.164 22.164 0 00-.389-4.79c-.08-.36-.181-.716-.293-1.154zM32 2l6.392 1.222c-.153.708-.346 1.354-.422 2.015-.128 1.03-.2 2.066-.216 3.103-.022 4.886-.022 9.772 0 14.658a21.815 21.815 0 00.577 5.608c.194.724.471 1.422.827 2.081a3.334 3.334 0 002.867 1.845 2.16 2.16 0 002.07-1.108 6.242 6.242 0 00.898-2.595 37.57 37.57 0 00.312-4.021c.038-4.617.012-9.234.016-13.851a19.656 19.656 0 00-.691-6.33A48.98 48.98 0 0151 5.901c-.117.45-.257.902-.348 1.363a21.028 21.028 0 00-.308 4.078c-.008 4.79-.008 9.58 0 14.37a27.9 27.9 0 01-.384 4.94c-.168.967-.458 1.91-.864 2.803a5.54 5.54 0 01-4.456 3.483 9.735 9.735 0 01-3.866-.34c-3.665-.976-5.892-3.416-7.054-6.948a21.594 21.594 0 01-.95-6.305c-.043-1.77-.03-3.54-.032-5.31-.005-3.385.006-6.771-.005-10.157a20.753 20.753 0 00-.392-4.646C32.25 2.856 32.134 2.489 32 2zm-7.53-.82a5.59 5.59 0 001.863.559c.308.021.623.003 1.008.003v7.096c-.149-.168-.236-.254-.31-.35a11.148 11.148 0 00-3.168-3.064 6.778 6.778 0 00-3.731-.99 4.63 4.63 0 00-1.39.272c-1.371.523-2.134 1.93-1.79 3.304.174.966.676 1.85 1.426 2.517.915.815 1.87 1.592 2.838 2.348 1.447 1.131 2.969 2.176 4.371 3.356a11.831 11.831 0 013.767 5.258 9.648 9.648 0 01-.039 7.041c-.888 2.357-3.095 4.029-5.697 4.316-3.876.601-7.823-.576-10.656-3.179a1.573 1.573 0 01-.61-1.332c.04-1.826.015-3.654.015-5.481v-.566l.082-.034c.089.132.185.26.265.396a13.823 13.823 0 003.975 4.495 7.84 7.84 0 004.32 1.44 5.45 5.45 0 001.753-.258c1.494-.472 2.462-1.854 2.35-3.355a5.621 5.621 0 00-1.354-3.752 17.823 17.823 0 00-3.095-2.835c-1.537-1.145-3.08-2.284-4.581-3.472a11.64 11.64 0 01-2.773-3.188 8.404 8.404 0 01-.896-7.102C13.133 2.162 15.345.366 18 .087c2.223-.275 4.48.106 6.47 1.094zm36.225 10.947v10.456c1.05.365 2.17.48 3.272.333a3.41 3.41 0 002.914-2.77c.176-.87.196-1.763.06-2.639a5.694 5.694 0 00-.751-2.159 6.339 6.339 0 00-3.691-2.8c-.569-.18-1.165-.275-1.804-.421z"/></svg>