<svg xmlns="http://www.w3.org/2000/svg" viewBox="0 0 2023 493">
    <path fill="currentColor" fill-rule="evenodd" d="M242.335,413.15 C216.335,438.55 187.335,442.65 187.335,442.65 C120.835,453.85 108.335,360.65 106.335,335.15 L213.335,274.15 L191.135,234.35 L103.735,284.95 L96.435,137.95 L48.435,138.95 C49.435,207.95 52.835,271.15 55.435,312.95 L0.135,344.95 L22.335,382.95 L59.035,362.15 C59.035,363.45 59.235,364.15 59.235,364.15 C106.635,587.65 265.235,450.35 265.235,450.35 L242.235,413.15 L242.335,413.15 Z M431.935,272.15 C395.535,249.15 342.235,257.45 321.135,273.95 C276.935,308.65 276.135,404.75 310.135,447.75 C337.835,482.95 426.135,478.75 450.635,425.35 C476.635,368.85 461.135,290.65 431.935,272.15 Z M424.935,405.15 C405.735,448.95 348.935,444.15 332.935,419.65 C313.435,389.65 313.235,328.45 342.135,305.65 C355.935,294.95 388.535,287.65 412.135,303.05 C431.835,316.05 441.135,367.85 424.935,405.05 L424.935,405.15 Z M490.835,283.65 L522.435,274.35 C522.435,274.35 544.035,396.35 561.135,413.15 C574.735,426.55 590.535,425.65 597.935,409.35 C606.935,389.35 608.935,345.35 608.535,271.15 L641.235,273.15 C641.235,273.15 648.335,419.95 615.035,444.95 C580.035,471.35 546.035,454.25 532.835,434.95 C510.235,400.95 492.135,299.95 490.835,283.65 Z M795.135,229.25 L803.135,261.25 C803.135,261.25 692.735,286.15 696.335,358.95 C697.835,388.95 704.935,410.35 817.135,405.95 L817.835,438.65 C817.835,438.65 661.535,458.45 663.835,366.65 C665.835,274.95 735.435,242.65 795.035,229.25 L795.135,229.25 Z M997.335,230.35 C997.335,230.35 919.935,219.75 872.335,272.55 C852.635,294.35 832.735,330.55 841.035,385.55 C841.035,385.55 846.535,460.55 976.035,419.85 L977.735,437.15 L1010.235,436.35 L997.235,230.35 L997.335,230.35 Z M874.035,375.35 C868.435,358.65 875.735,312.75 890.035,296.35 C919.335,262.75 967.235,265.85 967.235,265.85 L973.035,387.55 C892.635,407.55 879.035,391.15 874.035,375.25 L874.035,375.35 Z M1058.535,233.25 L1054.735,429.25 L1089.535,428.45 L1092.935,312.45 C1092.935,312.45 1126.135,249.45 1165.435,285.05 C1171.935,291.05 1172.435,292.45 1173.635,318.65 C1174.835,344.95 1174.235,431.65 1174.235,431.65 L1206.635,424.45 C1206.635,424.45 1218.835,318.25 1203.335,278.25 C1203.335,278.25 1193.935,247.25 1163.735,238.95 C1163.735,238.95 1126.735,226.25 1094.335,250.15 L1094.535,234.35 L1058.535,233.35 L1058.535,233.25 Z"/>
    <path fill="currentColor" fill-rule="evenodd" d="M1440.3,224 C1440.3,224 1503.3,153.7 1465.7,87 C1458,73.4 1449.4,59 1428.7,46 C1417.3,38.7 1408.9,34.4 1374,29 C1342.4,24 1277,21.4 1253,30.4 L1262,435.4 C1262,435.4 1380,458.2 1432,412.4 C1484,366.4 1506.3,259.4 1440.4,224.1 L1440.3,224 Z M1423.8,349 C1405.5,393.6 1310,385.3 1310,385.3 L1307,260.8 C1345,256 1380.4,259.1 1380.4,259.1 C1434.1,268.5 1442.1,304.7 1423.8,349.1 L1423.8,349 Z M1409.8,186.2 C1386.3,206.4 1312.2,205.8 1305.8,207.8 L1302.8,71.8 C1302.8,71.8 1375.5,66 1409.8,91.1 C1443.6,116.1 1436.4,163.6 1409.8,186.3 L1409.8,186.2 Z M1754.4,95 C1719.1,-18.5 1488.9,-38.5 1505.6,191.6 C1505.6,191.6 1510.9,322.6 1535.6,359.1 C1560,395.5 1589.6,416.9 1656.6,421.5 C1723.4,426 1751.3,369.7 1764.8,333.5 C1778.8,296.3 1785.8,195.7 1754.4,94.8 L1754.4,95 Z M1703,355 C1644.2,408.4 1585.7,360.3 1572.3,330.3 C1519.3,211.8 1559.5,107.8 1559.5,107.8 C1605.6,29 1693.6,63 1711.2,109 C1760.2,237.8 1720.5,339 1702.9,355 L1703,355 Z M1804.4,378 L1850.1,396.2 L1908.9,269.5 L1976.9,396.5 L2022.3,376.8 L1935.3,213 L2023,24 L1988.8,0 L1908.8,163.7 L1826.3,8.4 L1779.9,28.4 L1881.9,219 L1804.4,378 Z"/>
</svg>
