<svg xmlns="http://www.w3.org/2000/svg" viewBox="0 0 800 276"><title>Wallop</title><path fill="currentColor" fill-rule="evenodd" d="M163.072 180.683l-19.818-92.99c7.563-.212 15.02-.606 22.489-.109 5.302.353 10.567.916 15.719 2.297 8.731 2.341 15.389 6.318 16.593 15.901 1.534 12.215-2.798 24.879-7.609 35.943-3.066 7.052-6.979 13.719-11.419 19.989-4.684 6.615-9.961 12.801-15.608 18.612l-.347.357zm47.739-97.422c-1.344-7.216-4.984-12.759-11.766-15.979-2.878-1.367-5.903-2.26-8.94-2.835-.983 1.502-1.857 2.977-2.87 4.349-4.265 5.789-10.015 9.505-16.737 11.839-7.48 2.596-15.172 4.217-23.039 5.04-1.496.158-3 .256-4.491.379-.076-.269-.136-.431-.169-.601-.659-3.305-1.329-6.608-1.961-9.917-.214-1.117-1.166-.96-1.886-1.208-.663-.226-.711.402-.897.745-16.033 30.067-32.056 60.137-48.082 90.209-.13.245-.266.486-.502.919L73.254 76.859c-.269.041-.418.056-.564.088-4.698 1.009-9.37 2.167-14.101 2.997a977.564 977.564 0 0 1-25.464 4.112c-5.492.813-11.02 1.397-16.54 1.991-5.522.592-11.056 1.069-16.585 1.597v.298c.057.315.123.63.169.947.072.495.288.689.843.653 8.293-.524 16.587-1.049 24.884-1.515 3.772-.214 7.531-.037 11.263.655 3.891.72 6.625 2.796 7.937 6.563.675 1.938 1.364 3.893 1.767 5.898 1.056 5.271 1.965 10.571 2.923 15.862 1.67 9.217 3.334 18.435 4.998 27.654 1.617 8.95 3.231 17.899 4.844 26.848 1.665 9.22 3.328 18.437 4.989 27.656.714 3.95 1.422 7.902 2.141 11.851.048.257.123.68.266.718.616.163 1.263.283 1.893.26.215-.007.458-.457.612-.746 16.89-31.576 33.772-63.154 50.656-94.734.123-.229.27-.445.471-.776.099.417.171.697.231.979l6.781 31.613c3.248 15.138 6.497 30.279 9.744 45.419 1.256 5.862 2.507 11.725 3.765 17.587.051.237.089.524.242.682.435.456 2.149.348 2.587-.139 3.379-3.734 6.813-7.421 10.119-11.218 8.653-9.941 18.583-22.473 26.076-33.331 8.391-12.163 14.34-22.474 20.421-35.969 5.146-11.418 9.365-23.103 10.415-35.709.343-4.135.539-8.276-.226-12.389zm477.088 48.227v24.062c0 29.159 19.534 46.993 38.216 46.993 24.063 0 38.499-22.93 38.499-60.58 0-35.104-14.719-56.051-38.782-56.051-18.684 0-37.933 17.268-37.933 45.576zm0 113.235c0 18.685 1.982 24.483 15.287 30.71V276h-63.412v-.567c13.306-6.227 15.287-12.025 15.287-30.71V105.162c0-16.985-3.397-24.344-16.703-30.574v-.565h49.541v37.367c5.662-21.799 23.779-40.199 50.107-40.199 34.253 0 61.994 26.611 61.994 70.772 0 44.444-28.309 73.32-63.128 73.32-25.761 0-43.311-17.27-48.973-38.217v67.657zm-82.094-101.345c0-39.349-12.455-66.808-35.951-66.808-23.496 0-35.953 27.459-35.953 66.808 0 39.067 12.457 66.525 35.953 66.525 23.496 0 35.951-27.458 35.951-66.525zm-107.855 0c0-42.179 30.857-72.186 71.904-72.186 41.329 0 71.903 30.007 71.903 72.186s-30.574 71.905-71.903 71.905c-41.047 0-71.904-29.726-71.904-71.905zM481.16.137h-50.106v.567c13.305 5.944 17.267 13.588 17.267 30.857v150.033c0 18.684-1.98 24.063-15.286 30.291v.567h63.411v-.567c-13.305-6.228-15.286-11.607-15.286-30.291V.137zm-71.334 0h-50.105v.567c13.305 5.944 17.268 13.588 17.268 30.857v150.033c0 18.684-1.982 24.063-15.286 30.291v.567h63.409v-.567c-13.305-6.228-15.286-11.607-15.286-30.291V.137zM286.585 139.981c-25.194 5.096-36.801 15.286-36.801 35.104 0 17.267 9.058 24.626 21.515 24.626 16.418 0 31.139-14.154 31.422-37.649l.565-25.194-16.701 3.113zm74.734 62.562c-5.662 7.077-16.135 12.173-28.309 12.173-17.55 0-27.175-9.909-28.874-24.911 0-1.134-.566-9.059-.566-11.607-3.398 19.532-22.929 36.234-46.71 36.234-22.362 0-40.764-11.322-40.764-35.102 0-30.856 31.706-37.65 65.676-43.878l21.514-3.964v-19.815c0-18.683-8.492-35.103-29.44-35.103-18.683 0-26.044 10.192-26.044 22.648 0 9.623 4.812 15.852 13.022 15.852 1.415 0 2.83-.283 4.247-.85-2.549 9.06-10.475 13.872-20.383 13.872-12.739 0-22.646-8.211-22.646-21.797 0-19.25 21.23-35.104 52.371-35.104 39.63 0 62.277 14.154 62.277 48.407 0 22.649-.566 41.049-.566 59.166 0 16.418 4.814 25.194 17.268 25.194 2.832 0 5.662-.848 7.927-1.981v.566z"/></svg>