<svg xmlns="http://www.w3.org/2000/svg" viewBox="0 0 536 149"><path fill="currentColor" fill-rule="evenodd" d="M202.32 142.79h-17.61v-13.5h13.15a1.76 1.76 0 0 0 2-2v-1.19a1.76 1.76 0 0 0-2-2h-13.15V111h16.6a1.76 1.76 0 0 0 2-2v-1.19a1.74 1.74 0 0 0-2-2h-20.46a1.74 1.74 0 0 0-2 2v38.07a1.73 1.73 0 0 0 2 2h21.47a1.73 1.73 0 0 0 2-2v-1.19a1.73 1.73 0 0 0-2-1.9zm59.24-.67h-16.9V107.2a1.74 1.74 0 0 0-2-2h-1.9a1.74 1.74 0 0 0-2 2v38.07a1.73 1.73 0 0 0 2 2h20.76a1.76 1.76 0 0 0 2-2v-1.19a1.76 1.76 0 0 0-1.97-1.97l.01.01zm-142.64-36.21H117a1.74 1.74 0 0 0-2 2v38.07a1.73 1.73 0 0 0 2 2h1.9a1.73 1.73 0 0 0 2-2v-38.11a1.74 1.74 0 0 0-1.98-1.96zm-22.43 0h-2a1.76 1.76 0 0 0-2 2v16.54H70.74v-16.58a1.74 1.74 0 0 0-2-2h-1.9a1.74 1.74 0 0 0-2 2v38.07a1.73 1.73 0 0 0 2 2h1.9a1.73 1.73 0 0 0 2-2v-16.48h21.83v16.48a1.76 1.76 0 0 0 2 2h2a1.72 1.72 0 0 0 1.9-2v-38.07a1.72 1.72 0 0 0-1.97-1.96h-.01zm68.82 0h-30.8a1.74 1.74 0 0 0-2 2v1.19a1.76 1.76 0 0 0 2 2H147v34.92a1.72 1.72 0 0 0 1.9 2h2a1.76 1.76 0 0 0 2-2V111h12.49a1.74 1.74 0 0 0 1.9-2v-1.19a1.72 1.72 0 0 0-1.97-1.9h-.01zm-115.31 0h-2a2 2 0 0 0-2.2 1.73l-7.32 29.09c-.54 2.26-.83 4.46-.83 4.46h-.12a37.59 37.59 0 0 0-1-4.46l-7.79-29.15a1.94 1.94 0 0 0-2.14-1.67h-1.66a2 2 0 0 0-2.2 1.67l-7.79 29.15c-.65 2.32-1 4.46-1 4.46h-.12a41.22 41.22 0 0 0-.77-4.46l-7-29.09a2 2 0 0 0-2.2-1.73H1.8c-1.43 0-2 .77-1.72 2.14l9.7 38.13A2.08 2.08 0 0 0 12 147.9h3.27a2.08 2.08 0 0 0 2.2-1.67l6.9-25.58c.71-2.68 1.31-5.95 1.31-5.95h.18a60.73 60.73 0 0 0 1.31 5.95L34 146.24a2.06 2.06 0 0 0 2.14 1.67h3.27a2 2 0 0 0 2.2-1.67L51.71 108a1.57 1.57 0 0 0-1.71-2.09zm360.4 20.21h-8.27a1.79 1.79 0 0 0-2 2v1.19a1.76 1.76 0 0 0 2 2H407v5.89a15.9 15.9 0 0 1-12 5.41c-8.68 0-15.35-6.84-15.35-16.42 0-9 6-16.18 15.64-16.18a19.25 19.25 0 0 1 10.35 3c1.13.6 2 .53 2.74-.54l.83-1.25a1.73 1.73 0 0 0-.42-2.68 24.85 24.85 0 0 0-13.8-3.93c-12.31 0-21.41 9.4-21.41 21.83 0 12.61 9.28 21.59 20.64 21.59a17.66 17.66 0 0 0 13-5.23h.12s-.06.59-.06 1.31v1.55c0 1 .71 1.67 2 1.67h1.13a1.73 1.73 0 0 0 2-2v-17.26a1.76 1.76 0 0 0-2.03-1.96l.02.01zm20.34-20.88h-1.9a1.74 1.74 0 0 0-2 2v38.07a1.74 1.74 0 0 0 2 2h1.9a1.73 1.73 0 0 0 2-2V107.2a1.74 1.74 0 0 0-2.01-1.97l.01.01zm50.2 0H479a1.76 1.76 0 0 0-2 2v25.34c0 2.32.36 6.07.36 6.07h-.12s-2-3.81-3.45-6.07l-17.9-26a2.46 2.46 0 0 0-2.38-1.31h-2.26a1.74 1.74 0 0 0-2 2v38.07a1.74 1.74 0 0 0 2 2h1.9a1.73 1.73 0 0 0 2-2V120c0-2.38-.36-6.13-.36-6.13h.12s2 3.81 3.45 6.13l18 25.94a2.37 2.37 0 0 0 2.32 1.31h2.26a1.73 1.73 0 0 0 2-2V107.2a1.74 1.74 0 0 0-2.01-1.97l.01.01zm52.76 20.88h-8.27a1.79 1.79 0 0 0-2 2v1.19a1.76 1.76 0 0 0 2 2h4.88v5.89a15.9 15.9 0 0 1-12 5.41c-8.68 0-15.35-6.84-15.35-16.42 0-9 6-16.18 15.64-16.18a19.25 19.25 0 0 1 10.35 3c1.13.6 2 .53 2.74-.54l.83-1.25a1.73 1.73 0 0 0-.42-2.68 24.85 24.85 0 0 0-13.8-3.93c-12.31 0-21.41 9.4-21.41 21.83 0 12.61 9.28 21.59 20.64 21.59a17.66 17.66 0 0 0 13-5.23h.12s-.06.59-.06 1.31v1.55c0 1 .71 1.67 2 1.67h1.13a1.73 1.73 0 0 0 2-2v-17.26a1.76 1.76 0 0 0-2.03-1.96l.01.01zm-242.28-21.6c-12.49 0-21.59 9.34-21.59 21.41 0 12.37 9.1 22 21.59 22s21.53-9.64 21.53-22c0-12.07-9.04-21.41-21.53-21.41zm0 38c-8.92 0-15.53-7.2-15.53-16.6 0-9.1 6.6-16 15.53-16s15.47 6.9 15.47 16c-.01 9.41-6.55 16.61-15.47 16.61v-.01zm49.43-37.3h-12a1.74 1.74 0 0 0-2 2v38.07a1.74 1.74 0 0 0 2 2h12c12.79 0 21.3-7.73 21.3-21.06 0-13.33-8.52-21-21.3-21v-.01zm-.42 36.88h-7.67v-31.75h7.67c9.4 0 15.64 5.53 15.64 15.82s-6.18 15.94-15.64 15.94v-.01zm-47.64-61.5h11.38c8.21-.64 6.7-17.91 6.7-17.91h-17.88L292.91.13S278.35-2.11 275 11.81v33.56l-.1 35.23h17.89zM249.88.13l-.08 64.62c.64 18.23 17.91 14.88 17.91 14.88l.08-67.82C264.44-2.11 249.88.13 249.88.13zm-7.36 79.5l.08-67.82C239.24-2.11 224.69.13 224.69.13l-.08 64.62c.64 18.25 17.91 14.88 17.91 14.88z"></path></svg>