<svg xmlns="http://www.w3.org/2000/svg" viewBox="0 0 295 46" ><path fill="currentColor" fill-rule="evenodd" d="M32.84 2.031c-2.315.35-2.8.735-3.768 3.64-.795 2.277-2.835 8.544-5.703 18.345h-1.556a2045.38 2045.38 0 0 0-5.808-16.243h-.069c-1.832 5.601-3.63 10.957-5.323 16.243H9.057A2357.539 2357.539 0 0 0 3.491 5.497C2.627 2.732 2.074 2.311 0 2.031V.876h9.575V2.03c-2.592.315-2.627.7-2.143 2.52A545.228 545.228 0 0 0 11.2 17.436h.07c1.728-5.321 3.525-10.782 5.185-16.314h1.452a1770.104 1770.104 0 0 0 5.877 16.384h.068c1.383-4.411 2.974-10.363 3.492-12.569.483-2.1.345-2.625-2.42-2.905V.876h7.916V2.03zm6.917 21.601v-1.12c2.662-.245 2.973-.457 2.973-3.432V5.462c0-2.976-.31-3.22-2.973-3.43V.875h9.922V2.03c-2.663.21-2.939.455-2.939 3.43v13.62c0 2.94.276 3.186 2.939 3.431v1.12h-9.922zm36.298-16.98c-.414-1.75-.829-2.836-1.347-3.431-.623-.7-1.383-.91-3.63-.91H69.21v16.77c0 2.905.311 3.186 3.457 3.431v1.12H61.882v-1.12c2.973-.245 3.32-.526 3.32-3.432V2.31h-1.557c-2.834 0-3.491.317-3.975.981-.519.596-.899 1.716-1.314 3.396h-1.175c.138-2.38.346-4.865.415-6.687h.795c.518.805.967.876 1.936.876h13.828c.898 0 1.312-.21 1.9-.876h.795c0 1.505.173 4.411.347 6.582l-1.142.07zm32.773-4.62c-2.73.244-2.972.419-2.972 3.395v13.688c0 2.94.276 3.152 2.972 3.397v1.12H98.734v-1.12c2.8-.245 3.077-.457 3.077-3.397v-6.687H91.545v6.687c0 2.94.275 3.152 2.937 3.397v1.12h-9.886v-1.12c2.627-.245 2.938-.457 2.938-3.397V5.427c0-2.976-.31-3.186-3.042-3.396V.876h9.887V2.03c-2.559.21-2.834.42-2.834 3.396v5.321h10.266v-5.32c0-2.976-.242-3.15-2.87-3.396V.876h9.887V2.03zm7.78 21.6v-1.12c2.663-.245 2.973-.457 2.973-3.432V5.462c0-2.976-.31-3.22-2.973-3.43V.875h9.922V2.03c-2.663.21-2.938.455-2.938 3.43v13.62c0 2.94.275 3.186 2.938 3.431v1.12h-9.922zm41.415-21.636c-1.866.105-2.627.595-2.8 2.17-.138 1.05-.276 2.697-.276 5.846v13.97h-1.452l-14.52-17.786h-.068v8.229c0 3.115.138 4.69.242 5.741.173 1.646.829 2.206 3.318 2.346v1.12h-8.365v-1.12c1.936-.14 2.766-.667 2.938-2.241.104-1.156.277-2.73.277-5.846V6.967c0-2.38-.035-2.87-.691-3.675-.692-.876-1.418-1.156-2.974-1.296V.876h5.947l13.654 16.138h.104v-7.002c0-3.15-.173-4.795-.242-5.81-.208-1.506-.934-2.066-3.422-2.206V.876h8.33v1.12zm65.102.035c-2.315.35-2.8.735-3.768 3.64-.795 2.277-2.834 8.544-5.703 18.345h-1.556a2045.38 2045.38 0 0 0-5.808-16.243h-.069c-1.832 5.601-3.63 10.957-5.323 16.243h-1.555a2357.484 2357.484 0 0 0-5.567-18.519c-.864-2.765-1.417-3.186-3.49-3.466V.876h9.574V2.03c-2.592.315-2.627.7-2.143 2.52a545.23 545.23 0 0 0 3.768 12.884h.07c1.728-5.321 3.525-10.782 5.185-16.314h1.452a1770.095 1770.095 0 0 0 5.877 16.384h.068c1.383-4.411 2.974-10.363 3.492-12.569.483-2.1.346-2.625-2.42-2.905V.876h7.916V2.03zm6.917 21.601v-1.121c2.663-.244 2.973-.456 2.973-3.43V5.46c0-2.975-.31-3.22-2.973-3.43V.876h9.922V2.03c-2.663.21-2.939.455-2.939 3.43v13.62c0 2.94.276 3.186 2.939 3.43v1.121h-9.922zm35.123-5.777c-.276 1.365-.968 4.796-1.279 5.777H247.5v-1.121c2.939-.244 3.285-.49 3.285-3.465V5.426c0-2.975-.311-3.185-3.008-3.394V.876h9.991v1.156c-2.662.21-2.973.42-2.973 3.394v13.759c0 1.717.138 2.381.829 2.696.623.28 1.625.35 2.835.35 1.66 0 2.869-.21 3.664-1.155.657-.7 1.28-1.82 1.868-3.502l1.174.281zm13.691.98c0 2.556.76 3.361 3.18 3.361 5.289 0 8.436-4.2 8.436-10.187 0-3.466-1.141-6.268-3.147-7.878-1.487-1.294-3.352-1.926-5.703-1.926-1.348 0-2.11.246-2.386.491-.276.281-.38.805-.38 1.961v14.178zM282.14.876c4.356 0 7.674.91 9.852 3.01C293.72 5.533 295 8.053 295 11.379c0 4.237-1.66 7.318-4.287 9.348-2.558 1.996-6.119 2.906-10.405 2.906h-8.643v-1.121c2.835-.244 3.146-.455 3.146-3.431V5.462c0-3.01-.31-3.22-2.834-3.43V.876h10.163zM165.832 9.088h4.196v.84h-1.66v5.356h-.875V9.93h-1.66v-.841zm11.144 3.275h-3.408v2.921h-.874V9.087h.874v2.435h3.408V9.087h.874v6.197h-.874v-2.921zm7.08-.84v.84h-2.011v2.08h2.71v.841h-3.585V9.087h3.497v.842h-2.622v1.593h2.01zM75.68 43.476h1.888l-.944-2.302-.944 2.302zm2.229.841h-2.578l-.638 1.593h-.91l2.535-6.196h.612l2.535 6.196h-.909l-.647-1.593zm5.008.752h2.71v.841h-3.584v-6.196h.874v5.355zm7.009-1.593h1.888l-.944-2.302-.944 2.302zm2.229.841h-2.579l-.638 1.593h-.909l2.535-6.196h.612l2.535 6.196h-.91l-.646-1.593zm4.343.044c.358.443.866.797 1.495.797.568 0 1.066-.372 1.066-.93 0-.946-1.294-1.053-2.106-1.593-.438-.292-.778-.718-.778-1.363 0-.903.786-1.647 1.853-1.647.777 0 1.32.345 1.643.62l-.515.646a1.67 1.67 0 0 0-1.093-.425c-.507 0-1.014.293-1.014.832 0 .788 1.302.957 2.089 1.488.41.274.795.708.795 1.416 0 1.089-.83 1.797-1.897 1.797-.838 0-1.6-.372-2.14-1.036l.602-.602zm6.319-4.647h.874v2.612l2.517-2.612h1.154L104.6 42.59l2.937 3.32h-1.119l-2.727-3.098v3.099h-.874v-6.197zm8.758 3.762h1.888l-.944-2.302-.944 2.302zm2.228.841h-2.578l-.638 1.593h-.91l2.536-6.196h.611l2.536 6.196h-.91l-.647-1.593zm9.046-.841h1.888l-.944-2.302-.944 2.302zm2.23.841h-2.58l-.637 1.593h-.91l2.535-6.196h.613l2.534 6.196h-.91l-.646-1.593zm7.673-3.24c-.385-.336-.892-.522-1.749-.522h-.917v4.514h.917c.857 0 1.364-.185 1.749-.522.462-.415.742-1.045.742-1.735 0-.69-.28-1.32-.742-1.735zm-3.54 4.833v-6.196h1.835c.97 0 1.6.212 2.098.584.752.567 1.223 1.487 1.223 2.514 0 1.027-.463 1.947-1.215 2.514-.498.372-1.135.584-2.106.584h-1.835zm10.182 0h-.613l-2.403-6.196h.909l1.8 4.674 1.802-4.674h.909l-2.404 6.196zm7.91-3.761v.84h-2.01v2.08h2.71v.842h-3.585v-6.197h3.497v.841h-2.623v1.594h2.01zm4.457-.789v4.55h-.874v-6.196h.611l3.671 4.55v-4.55h.874v6.196h-.611l-3.671-4.55zm6.947-1.646h4.196v.841h-1.66v5.356h-.874v-5.356h-1.662v-.841zm7.413 5.47c-.394-.433-.639-1.009-.639-1.84v-3.63h.874v3.674c0 .583.14.946.385 1.221.305.345.76.55 1.276.55s.97-.205 1.276-.55c.245-.275.385-.638.385-1.221v-3.674h.874v3.63c0 .831-.245 1.407-.638 1.84a2.566 2.566 0 0 1-1.897.815c-.751 0-1.434-.31-1.896-.814zm9.762-3.035c.393 0 .594-.09.734-.231a.806.806 0 0 0 .227-.566.808.808 0 0 0-.227-.567c-.14-.142-.34-.23-.734-.23h-1.224v1.594h1.224zm-1.224.84v2.922h-.874v-6.197h2.141c.56 0 .91.133 1.189.362a1.649 1.649 0 0 1 0 2.55c-.192.16-.411.275-.717.328l2.194 2.957h-1.057l-2.176-2.922h-.7zm9.352-.84v.84H182v2.08h2.71v.842h-3.585v-6.197h3.497v.841H182v1.594h2.01zm8.565 2.92h2.71v.841h-3.584v-6.196h.874v5.355zm7.691.09c1.25 0 2.185-1.001 2.185-2.347 0-1.336-.935-2.346-2.185-2.346s-2.185 1.01-2.185 2.346c0 1.346.935 2.346 2.185 2.346zm0-5.534c1.73 0 3.06 1.381 3.06 3.187 0 1.806-1.33 3.187-3.06 3.187s-3.06-1.381-3.06-3.187c0-1.806 1.33-3.187 3.06-3.187zm9.439 1.452c-.385-.336-.891-.522-1.748-.522h-.918v4.514h.918c.857 0 1.363-.185 1.748-.522.463-.415.743-1.045.743-1.735 0-.69-.28-1.32-.743-1.735zm-3.54 4.833v-6.196h1.836c.97 0 1.6.212 2.098.584.752.567 1.223 1.487 1.223 2.514 0 1.027-.463 1.947-1.215 2.514-.498.372-1.136.584-2.106.584h-1.836zm13.242-1.062A3.096 3.096 0 0 1 217.03 46c-1.827 0-3.173-1.355-3.173-3.187 0-1.788 1.329-3.186 3.094-3.186.874 0 1.704.363 2.238.956l-.586.584c-.358-.398-.997-.7-1.652-.7-1.25 0-2.22 1.01-2.22 2.346 0 1.399.996 2.346 2.3 2.346.646 0 1.179-.247 1.503-.576V42.99h-1.749v-.84h2.623v2.7zm5.986-2.7v.841h-2.01v2.08h2.71v.842h-3.585v-6.197h3.497v.841h-2.623v1.594h2.011zm3.662 2.213c.358.443.866.797 1.495.797.567 0 1.065-.372 1.065-.93 0-.946-1.293-1.053-2.105-1.593-.438-.292-.778-.718-.778-1.363 0-.903.786-1.647 1.853-1.647.777 0 1.32.345 1.643.62l-.516.646a1.67 1.67 0 0 0-1.093-.425c-.507 0-1.013.293-1.013.832 0 .788 1.302.957 2.088 1.488.411.274.796.708.796 1.416 0 1.089-.83 1.797-1.897 1.797-.839 0-1.6-.372-2.14-1.036l.602-.602z"></path></svg>