<svg xmlns="http://www.w3.org/2000/svg" viewBox="0 0 320 94" fill="currentColor">
  <path d="M310.944 34.609a13.538 13.538 0 0 0-27.072 0v24.959a13.538 13.538 0 0 0 23.074 9.51 13.549 13.549 0 0 0 3.998-9.51v-24.96Zm-13.536-22.597a22.452 22.452 0 0 1 16.008 6.582 22.476 22.476 0 0 1 6.582 16.014v24.96a22.607 22.607 0 0 1-6.616 15.979 22.585 22.585 0 0 1-31.946 0 22.599 22.599 0 0 1-6.616-15.98V34.61a22.076 22.076 0 0 1 3.03-11.338 22.31 22.31 0 0 1 19.56-11.26h-.002ZM262.886 82.078h-9.525V35.714a14.43 14.43 0 0 0-1.041-5.445 13.636 13.636 0 0 0-3.04-4.564 14.095 14.095 0 0 0-4.606-3.084 13.94 13.94 0 0 0-5.399-1.08h-14.168v60.537h-9.525V12.01h23.693a23.163 23.163 0 0 1 11.846 3.164 23.686 23.686 0 0 1 8.649 8.608 23.322 23.322 0 0 1 3.119 11.931l-.003 46.364ZM144.472 21.54a24.597 24.597 0 0 1-4.486 13.373 50.4 50.4 0 0 1-4.04 5.244c-1.679 1.949-4.441 5.005-8.285 9.17l-1.36 1.44c-4.535 4.859-8.004 8.676-10.407 11.451-2.402 2.775-4.402 5.258-5.999 7.447a25.159 25.159 0 0 0-1.679 2.884h36.256v9.53H97.165v-.723a6.868 6.868 0 0 1-.08-1.361 28.079 28.079 0 0 1 5.039-15.774 91.278 91.278 0 0 1 5.928-7.449c2.295-2.616 6.004-6.7 11.126-12.251 6.88-7.473 11.202-12.465 12.967-14.974a16.339 16.339 0 0 0 2.8-8.008h-37.46v-9.53h46.987v9.531ZM161.195 19.586c3.792-4.47 8.936-7.663 14.359-7.663h28.093v9.53h-28.093c-2.872 0-5.343 1.563-7.015 3.561-1.688 2.009-2.56 3.765-2.56 6.386v10.536h21.726v9.578h-21.726v21.073h37.668v9.58h-47.243s.008-44.38 0-49.489c0-5.604 2.936-10.905 4.791-13.09M34.79 2.358l-15.152 8.83 15.154-8.83h-.002ZM10.319 25.502l12.04-7.016-12.04 7.016ZM5.396 19.49h-.002l14.244-8.3-14.242 8.3ZM38.056 9.34l-15.698 9.147L38.056 9.34Z"></path>
  <path d="M78.008 63.659 63.089 37.608l10.442-6.084a6.961 6.961 0 0 0 2.531-9.487 6.963 6.963 0 0 0-2.53-2.546L42.965 1.679a6.97 6.97 0 0 0-7.008 0l-1.168.68-15.155 8.83L5.391 19.49l-1.926 1.122A7.01 7.01 0 0 0 .921 30.13l14.964 26.137-10.442 6.086a7.003 7.003 0 0 0-2.547 9.544 7.003 7.003 0 0 0 2.547 2.562l30.48 17.763a7.013 7.013 0 0 0 7.05 0L73.455 74.46c.345-.201.673-.43.98-.686l1.024-.597a7.01 7.01 0 0 0 2.549-9.517ZM10.317 25.506l12.039-7.018L38.054 9.34l1.41-.82 10.457 6.094 18.688 10.89-9.336 5.441-6.633 3.865-13.176 7.68L10.32 25.505h-.002Zm2.833 10.536 18.72 10.91 4.089 2.382a6.97 6.97 0 0 0 7.008 0l4.075-2.373 9.414-5.487 9.432 16.468 5.12 8.942-2.511 1.464L40.87 84.447 26.334 59.064l-3.815-6.662-9.369-16.36Zm6.552 26.887 9.417 16.44-18.814-10.963 9.397-5.477Z"></path>
</svg>