<svg xmlns="http://www.w3.org/2000/svg" viewBox="0 0 182 41">
  <g>
    <path fill="currentColor" fill-rule="evenodd" d="M160.92 7.91a101.71 101.71 0 008-6.54A5.09 5.09 0 00167 0l-7.61 6.58-.17 1.42c.5.45 1.08-.13 1.7-.09zM44.88 7c1.2-1.9 2.69-3.85 3.19-5.83-1 .17-1.49-.33-2.28.08-.83 1.95-3 3.56-2 5.75h1.09z"/>
    <path fill="currentColor" fill-rule="evenodd" d="M181.28 17.55c-.33-.33-.54-.91-1-1-2.52-.12-5.63.33-7.86-.41.08-1 .58-1.74.7-2.69.33-1.28 1.36-2.23 1.57-3.56-.42-.5-.66-1.45-1.57-1.41-8.36 1.9-15.4 7.12-22.14 12.62h-.5c-.16-3.6 2.07-6.46 2.78-9.81a2.22 2.22 0 00-1.7-1.33c-2 .91-3.68 2.57-5.46 4h-.41c.12-1.2 1.53-2.52.41-3.64-.45-.29-1-.75-1.57-.41-4.3 2.32-8.2 5.59-12.25 8.53l-.58.12c1-2.48 2.86-4.55 3.48-7.16 0-.87-1-1-1.49-1.41a12.81 12.81 0 00-8.24 2.9c-2.15 3.27-5.5 4.26-8.73 5.55l-.21-.17a33.33 33.33 0 013.19-5.17 1.74 1.74 0 00-.71-2.69c-2 0-3.35 1.7-5.09 2.4l-1.16-1.2c-1.86-.41-3.48.87-5 1.78-1.24.33-.41-1.57-1.49-1.9a1.85 1.85 0 00-1.9-.08l-8.23 6-.12-.08a34.72 34.72 0 013.31-4.3c.45-1.45 3.06-1.74 2-3.56-1.95-1.82-4.26.13-6.67-.5a3.51 3.51 0 00-2.19-.5c-.83.16-.7 1.32-.7 1.78-2 4.14-5.79 6.79-9.15 10.14-1 .54-1.78 1.57-3 1.28a7.14 7.14 0 01-.29-2.48c3.6-2.86 8.19-4.64 10.84-8.65a2.55 2.55 0 00-.79-2.77 3.18 3.18 0 00-2.32-.58c-3.81 1-8.4 3.68-9.52 7.95-.29 1-.16 2.15-.91 3l-6.13 4-.21-.21c.25-1.24.66-2.52.79-3.68.87-2.32 1.32-4.8 3.06-6.74.66-1.24-1.28-1.37-1.28-2.4a3.78 3.78 0 00-1.78-.58c-4.72 2.32-8.86 6-12.62 9.93h-.24A33.83 33.83 0 0061.1 10a2.63 2.63 0 00-2.32-.66l-5.55 4.47-.23-.23.91-2.48c.25-.7 1-1.24.79-2.11a2.74 2.74 0 00-2.28-1c-.58.21-.79.62-1.12 1.12-3.1 2.81-6 5-8.94 8-1 .83-1.61 2.11-2.77 2.61.91-3.52 2.86-6.58 4.59-9.77.17-.41.5-1 .08-1.49-.62-.5-1.32-.25-2.07-.17a52.68 52.68 0 00-5.46 12.29c-.17.91-.29 2.32.5 3.1a2.48 2.48 0 002.07.66A62 62 0 0150 13h.41c-1 3.35-2.4 6.5-3.39 9.85l.62 1c.58.08 1.12.66 1.78.29 1.82-3.77 4.18-7.82 7.66-10.43l.17.21c-1.24 3.31-3 6.41-3.85 9.93.37.7 1.2 1.57 2 1.49 2.82-1.2 3.64-4.18 5.84-6 .17 1.28.7 2.77 2.11 3.19 2.15.74 3.15-2.07 4.55-3a9.69 9.69 0 01-.35 2.47c.54 3.56-3.76 4.18-5.3 6.54l-30.58.21-13.2.58c-3.93.5-8 1-11.84 1.49 10-8.36 20.53-15.56 30.71-23.51a1.13 1.13 0 00.41-1.2c-.46-.74-1.2-1.61-2.11-1.61-4.06.74-8.23 1.63-12.21 2.55-6.7 1.57-13.28 4.08-20.28 5a2.09 2.09 0 001 2c4 .29 7.45-1.53 11.13-2.28 5.59-1.2 10.93-3.27 16.6-3.89 0 .13 0 .25-.08.29L9.33 25.37C6.51 27.53 4 29.76 1 31.67c-1.16.37 0 1.16.08 1.78 2.32 0 4.35-.62 6.54-.79 6.41-1 13.66-1 20.07-1.49L59.61 31l.37.29c-1.57 1.95-.79 4.39-.29 6.58a3.82 3.82 0 002.77 2.19c3.93-1.24 4.18-5.5 5.59-8.57l.37-.37 21.56.29 28.8.08.41-.37a1.13 1.13 0 00-.33-1.61l-42.21-.7-7.45-.08-.29-.21.62-2.86a47.39 47.39 0 017.24-4.88c.58 1.16 1.57 2.69 3.06 3a5 5 0 002.9-.58A63.17 63.17 0 0094 11.47c.7 0 2-.29 2.61.12l-3.27 4.55c-1 2-3.06 4.59-1.12 6.66a2.35 2.35 0 001.7.5c2.94-2.44 5.71-5.5 8.94-7.66l.21.21c-1 1.94-3 3.48-4.18 5.38a1.74 1.74 0 00.58 1.57c.62.08 1.16.66 1.7.08 2.36-2.73 4.47-5.42 7.45-7.33h.5a18.47 18.47 0 01-2.36 4.35c-.74.7 0 1.66.58 2.11.41.29 1.28.33 1.57-.21a19.87 19.87 0 015.88-6.46c-.08 1.86-2.56 3.93-.79 5.75 2.48 1.49 4.34-1.45 6.66-1.86.37.54 0 1.24.08 1.86a3.17 3.17 0 001.49 2.4c2.65 1.41 3.89-2.15 5.75-3.39a9.21 9.21 0 001 1.78 2.19 2.19 0 002.2.62 88.58 88.58 0 0111-8.24c.33.79-.49 1.57-.79 2.36-.21 1.94-1.53 3.43-1.57 5.46a1.88 1.88 0 002.18 1.31 27.73 27.73 0 017.24-8.94l.21.21c-.83 2.69-1.78 5.63-1.12 8.57a2.3 2.3 0 002.19 1.36 78.66 78.66 0 018.73-6.83c.7 1 2 .87 2.9 1.66 1.08 1.7 2.23 3.72 4.26 4.3a2.75 2.75 0 003-1c1.12-1.2 1.45-2.81 2.4-4l8.24.08c.36-.5 1.69-.34 1.23-1.25zM87.21 9.61l.08.08c-.37 1.07-1.16 1.53-2 2.28a25.8 25.8 0 01-4.84 3.31c1.05-2.94 4.16-4.64 6.76-5.67zM62.67 37.42a1 1 0 01-1.2-.7c.54-2.11.16-6.12 3.6-5.46a7.92 7.92 0 01-2.4 6.16zm1.49-18c.38-2.48 1.65-4.76 5.38-7h.37a36.39 36.39 0 01-5.75 6.99v.01zm66.34-6c-2.48 2.61-4.38 5.17-7.16 7.37.54-2.73 2.44-4.76 4.3-6.87.66-.7 1.74-.58 2.48-1.16h.5l-.12.66zm36.5 8.11c-1.53.41-2-1.57-2.9-2.4 1.32-.54 3-.21 4.47-.29a4 4 0 01-1.57 2.69zm2.77-5.38a48.63 48.63 0 01-8.15.21 18.26 18.26 0 019.35-4.68c-.16 1.49-.9 2.93-1.23 4.46l.03.01z"/>
  </g>
</svg>
